<svg xmlns="http://www.w3.org/2000/svg" xmlns:xlink="http://www.w3.org/1999/xlink" width="190" height="112" viewBox="0 0 190 112">
  <defs>
    <linearGradient id="linear-gradient" x1="0.5" x2="0.5" y2="1" gradientUnits="objectBoundingBox">
      <stop offset="0" stop-color="#f7ca2e" stop-opacity="0"/>
      <stop offset="0.091" stop-color="#f7ca2e" stop-opacity="0.129"/>
      <stop offset="0.283" stop-color="#f7ca2e" stop-opacity="0.388"/>
      <stop offset="0.465" stop-color="#f7ca2e" stop-opacity="0.612"/>
      <stop offset="0.633" stop-color="#f7ca2e" stop-opacity="0.78"/>
      <stop offset="0.784" stop-color="#f7ca2e" stop-opacity="0.902"/>
      <stop offset="0.911" stop-color="#f7ca2e" stop-opacity="0.969"/>
      <stop offset="1" stop-color="#f7ca2e"/>
    </linearGradient>
    <linearGradient id="linear-gradient-2" x1="0.5" x2="0.5" y2="1" gradientUnits="objectBoundingBox">
      <stop offset="0" stop-color="#b13e8d" stop-opacity="0"/>
      <stop offset="0.091" stop-color="#b13e8d" stop-opacity="0.129"/>
      <stop offset="0.283" stop-color="#b13e8d" stop-opacity="0.388"/>
      <stop offset="0.465" stop-color="#b13e8d" stop-opacity="0.612"/>
      <stop offset="0.633" stop-color="#b13e8d" stop-opacity="0.78"/>
      <stop offset="0.784" stop-color="#b13e8d"/>
      <stop offset="0.911" stop-color="#b13e8d" stop-opacity="0.969"/>
      <stop offset="1" stop-color="#b13e8d"/>
    </linearGradient>
    <filter id="Rectángulo_40720" x="41" y="4" width="108" height="108" filterUnits="userSpaceOnUse">
      <feOffset dy="3" input="SourceAlpha"/>
      <feGaussianBlur stdDeviation="3" result="blur"/>
      <feFlood flood-opacity="0.161"/>
      <feComposite operator="in" in2="blur"/>
      <feComposite in="SourceGraphic"/>
    </filter>
    <clipPath id="clip-path">
      <path id="path2280" d="M0-682.665H65.423v65.423H0Z" transform="translate(0 682.665)" fill="none"/>
    </clipPath>
  </defs>
  <g id="Grupo_136863" data-name="Grupo 136863" transform="translate(-180 -1627)">
    <g id="Grupo_128321" data-name="Grupo 128321" transform="translate(0 1228)">
      <rect id="Rectángulo_40586" data-name="Rectángulo 40586" width="190" height="20" transform="translate(180 444)" fill="none"/>
      <g id="Grupo_108405" data-name="Grupo 108405" transform="translate(209.5 463)">
        <path id="Rectángulo_5242" data-name="Rectángulo 5242" d="M0,0H12a0,0,0,0,1,0,0V43.333a3,3,0,0,1-3,3H3a3,3,0,0,1-3-3V0A0,0,0,0,1,0,0Z" transform="translate(0 0)" fill="url(#linear-gradient)"/>
      </g>
      <g id="Grupo_108406" data-name="Grupo 108406" transform="translate(340 451) rotate(180)">
        <path id="Rectángulo_5242-2" data-name="Rectángulo 5242" d="M0,0H12a0,0,0,0,1,0,0V49a3,3,0,0,1-3,3H3a3,3,0,0,1-3-3V0A0,0,0,0,1,0,0Z" transform="translate(0 0)" fill="url(#linear-gradient-2)"/>
      </g>
      <g transform="matrix(1, 0, 0, 1, 180, 399)" filter="url(#Rectángulo_40720)">
        <path id="Rectángulo_40720-2" data-name="Rectángulo 40720" d="M10,0H80A10,10,0,0,1,90,10V90a0,0,0,0,1,0,0H10A10,10,0,0,1,0,80V10A10,10,0,0,1,10,0Z" transform="translate(50 10)" fill="#f6f6f6"/>
      </g>
    </g>
    <g id="g2274" transform="translate(245.288 2332.12)">
      <g id="g2276" transform="translate(0 -682.665)">
        <g id="g2278" clip-path="url(#clip-path)">
          <g id="g2284" transform="translate(4.773 4.044)">
            <path id="path2286" d="M-337.411,0H-369.8a3.373,3.373,0,0,0-3.373,3.372V49.855a3.373,3.373,0,0,0,3.373,3.373h33.409a3.373,3.373,0,0,0,3.372-3.373V21.246" transform="translate(373.174)" fill="none" stroke="#6836bf" stroke-linecap="round" stroke-linejoin="round" stroke-miterlimit="10" stroke-width="3"/>
          </g>
          <path id="path2288" d="M162.195-529.775H139.169v-5.4h23.026Z" transform="translate(-125.832 549.307)" fill="none" stroke="#6836bf" stroke-linecap="round" stroke-linejoin="round" stroke-miterlimit="10" stroke-width="3"/>
          <g id="g2290" transform="translate(13.337 26.531)">
            <path id="path2292" d="M0,0H23.026" fill="none" stroke="#6836bf" stroke-linecap="round" stroke-linejoin="round" stroke-miterlimit="10" stroke-width="3"/>
          </g>
          <g id="g2294" transform="translate(13.337 32.592)">
            <path id="path2296" d="M0,0H23.026" fill="none" stroke="#6836bf" stroke-linecap="round" stroke-linejoin="round" stroke-miterlimit="10" stroke-width="3"/>
          </g>
          <g id="g2298" transform="translate(13.337 38.652)">
            <path id="path2300" d="M0,0H23.026" fill="none" stroke="#6836bf" stroke-linecap="round" stroke-linejoin="round" stroke-miterlimit="10" stroke-width="3"/>
          </g>
          <g id="g2302" transform="translate(13.337 44.713)">
            <path id="path2304" d="M0,0H23.026" fill="none" stroke="#6836bf" stroke-linecap="round" stroke-linejoin="round" stroke-miterlimit="10" stroke-width="3"/>
          </g>
          <g id="g2306" transform="translate(36.363 1.278)">
            <path id="path2308" d="M-229.143-114.6a12.145,12.145,0,0,1-12.144,12.146A12.145,12.145,0,0,1-253.43-114.6a12.145,12.145,0,0,1,12.144-12.146A12.145,12.145,0,0,1-229.143-114.6Z" transform="translate(253.43 126.742)" fill="none" stroke="#6836bf" stroke-linecap="round" stroke-linejoin="round" stroke-miterlimit="10" stroke-width="3"/>
          </g>
          <g id="g2310" transform="translate(48.512 11.75)">
            <path id="path2312" d="M0,0V8.737" transform="translate(0 0)" fill="none" stroke="#6836bf" stroke-linecap="round" stroke-linejoin="round" stroke-miterlimit="10" stroke-width="3"/>
          </g>
          <g id="g2314" transform="translate(47.229 6.361)">
            <path id="path2316" d="M-24.111-12.056a1.278,1.278,0,0,1-1.278,1.278,1.278,1.278,0,0,1-1.278-1.278,1.278,1.278,0,0,1,1.278-1.278,1.278,1.278,0,0,1,1.278,1.278" transform="translate(26.667 13.333)" fill="none"/>
          </g>
          <g id="g2318" transform="translate(53.632 25.006)">
            <path id="path2320" d="M0,0V6.49" fill="none" stroke="#6836bf" stroke-linecap="round" stroke-linejoin="round" stroke-miterlimit="10" stroke-width="3"/>
          </g>
          <g id="g2322" transform="translate(13.478 43.049)">
            <path id="path2324" d="M-378.842,0V17.723a3.373,3.373,0,0,1-3.373,3.373h-33.409A3.373,3.373,0,0,1-419,17.723V14.605" transform="translate(418.996)" fill="none" stroke="#6836bf" stroke-linecap="round" stroke-linejoin="round" stroke-miterlimit="10" stroke-width="3"/>
          </g>
          <g id="g2326" transform="translate(53.632 37.25)">
            <path id="path2328" d="M0,0H0" fill="none" stroke="#6836bf" stroke-linecap="round" stroke-linejoin="round" stroke-miterlimit="10" stroke-width="3"/>
          </g>
        </g>
      </g>
    </g>
  </g>
</svg>
