<svg xmlns="http://www.w3.org/2000/svg" width="89.998" height="90" viewBox="0 0 89.998 90">
  <g id="equipo" transform="translate(-0.008 -0.001)">
    <path id="Trazado_195742" data-name="Trazado 195742" d="M81.844,73.545A7.218,7.218,0,0,0,84.2,68.228v-2.9a7.258,7.258,0,0,0-14.37-1.452H65.062a4.33,4.33,0,0,0-8.176,0H52.118a7.281,7.281,0,0,0-5.66-5.66V54.957a5.8,5.8,0,0,0,4.355-5.6h1.452a1.45,1.45,0,0,0,1.452-1.452V43.551h2.9v-2.9h-2.9v-.016a9.978,9.978,0,0,1,3.611-7.483A18.861,18.861,0,0,0,44.229.019,19.109,19.109,0,0,0,26.139,18.53a18.821,18.821,0,0,0,6.424,14.513,10.587,10.587,0,0,1,3.719,7.6H33.394v2.9h2.9v4.355a1.45,1.45,0,0,0,1.452,1.452H39.2a5.8,5.8,0,0,0,4.355,5.6v3.256a7.282,7.282,0,0,0-5.66,5.66H33.127a4.33,4.33,0,0,0-8.176,0H20.183A7.258,7.258,0,0,0,5.814,65.324v2.9a7.217,7.217,0,0,0,2.355,5.317,13.078,13.078,0,0,0-8.162,12.1v2.9A1.45,1.45,0,0,0,1.459,90H24.685a1.45,1.45,0,0,0,1.452-1.452v-2.9a13.079,13.079,0,0,0-8.162-12.1,7.218,7.218,0,0,0,2.356-5.317V66.776h4.621a4.33,4.33,0,0,0,8.176,0h4.622v1.452A7.217,7.217,0,0,0,40.1,73.545a13.078,13.078,0,0,0-8.162,12.1v2.9A1.45,1.45,0,0,0,33.394,90H56.62a1.45,1.45,0,0,0,1.452-1.452v-2.9a13.079,13.079,0,0,0-8.162-12.1,7.218,7.218,0,0,0,2.356-5.317V66.776h4.621a4.33,4.33,0,0,0,8.176,0h4.622v1.452a7.217,7.217,0,0,0,2.355,5.317,13.078,13.078,0,0,0-8.162,12.1v2.9A1.45,1.45,0,0,0,65.329,90H88.554a1.45,1.45,0,0,0,1.452-1.452v-2.9A13.079,13.079,0,0,0,81.844,73.545Zm-58.61,12.1V87.1h-2.9v-2.9h-2.9v2.9H8.717v-2.9h-2.9v2.9h-2.9V85.647a10.161,10.161,0,1,1,20.322,0ZM8.717,68.228v-2.9a4.355,4.355,0,1,1,8.709,0v2.9a4.355,4.355,0,1,1-8.709,0Zm20.322-1.452a1.452,1.452,0,1,1,1.452-1.452A1.452,1.452,0,0,1,29.039,66.776Zm5.437-35.917A15.919,15.919,0,0,1,29.042,18.58a16.168,16.168,0,0,1,15.3-15.661A15.954,15.954,0,0,1,55.432,30.948a12.882,12.882,0,0,0-4.618,9.684v.016H39.186A13.482,13.482,0,0,0,34.477,30.859ZM50.813,43.551v2.9H39.2v-2.9ZM42.1,49.357H47.91a2.9,2.9,0,0,1-5.806,0Zm13.064,36.29V87.1h-2.9v-2.9h-2.9v2.9H40.652v-2.9h-2.9v2.9h-2.9V85.647a10.161,10.161,0,1,1,20.322,0ZM40.652,68.228v-2.9a4.355,4.355,0,1,1,8.709,0v2.9a4.355,4.355,0,1,1-8.709,0Zm20.322-1.452a1.452,1.452,0,1,1,1.452-1.452A1.452,1.452,0,0,1,60.974,66.776Zm11.613,1.452v-2.9a4.355,4.355,0,1,1,8.709,0v2.9a4.355,4.355,0,1,1-8.709,0ZM87.1,87.1H84.2v-2.9H81.3v2.9H72.587v-2.9h-2.9v2.9h-2.9V85.647a10.161,10.161,0,0,1,20.322,0Zm0,0" transform="translate(0 0)" fill="#b13e8d"/>
    <path id="Trazado_195743" data-name="Trazado 195743" d="M232.008,192.012h5.806v2.9h-5.806Zm0,0" transform="translate(-189.904 -157.171)" fill="#b13e8d"/>
    <path id="Trazado_195744" data-name="Trazado 195744" d="M200.717,65.284v3.05h2.9v-3.05a7.2,7.2,0,0,0,2.545-1.062l2.236,2.235,2.052-2.053-2.235-2.235a7.217,7.217,0,0,0,1.062-2.545h3.05v-2.9h-3.05a7.217,7.217,0,0,0-1.062-2.545l2.235-2.235L208.4,49.889l-2.236,2.235a7.2,7.2,0,0,0-2.545-1.062v-3.05h-2.9v3.05a7.2,7.2,0,0,0-2.545,1.062l-2.236-2.235-2.052,2.053,2.235,2.235a7.205,7.205,0,0,0-1.063,2.545h-3.049v2.9h3.049a7.205,7.205,0,0,0,1.063,2.545L193.885,64.4l2.052,2.053,2.236-2.235A7.2,7.2,0,0,0,200.717,65.284Zm1.452-11.466a4.355,4.355,0,1,1-4.355,4.355A4.36,4.36,0,0,1,202.169,53.818Zm0,0" transform="translate(-157.162 -39.299)" fill="#b13e8d"/>
  </g>
</svg>
