<svg xmlns="http://www.w3.org/2000/svg" xmlns:xlink="http://www.w3.org/1999/xlink" width="190" height="112" viewBox="0 0 190 112">
  <defs>
    <linearGradient id="linear-gradient" x1="0.5" x2="0.5" y2="1" gradientUnits="objectBoundingBox">
      <stop offset="0" stop-color="#f7ca2e" stop-opacity="0"/>
      <stop offset="0.091" stop-color="#f7ca2e" stop-opacity="0.129"/>
      <stop offset="0.283" stop-color="#f7ca2e" stop-opacity="0.388"/>
      <stop offset="0.465" stop-color="#f7ca2e" stop-opacity="0.612"/>
      <stop offset="0.633" stop-color="#f7ca2e" stop-opacity="0.78"/>
      <stop offset="0.784" stop-color="#f7ca2e" stop-opacity="0.902"/>
      <stop offset="0.911" stop-color="#f7ca2e" stop-opacity="0.969"/>
      <stop offset="1" stop-color="#f7ca2e"/>
    </linearGradient>
    <linearGradient id="linear-gradient-2" x1="0.5" x2="0.5" y2="1" gradientUnits="objectBoundingBox">
      <stop offset="0" stop-color="#b13e8d" stop-opacity="0"/>
      <stop offset="0.091" stop-color="#b13e8d" stop-opacity="0.129"/>
      <stop offset="0.283" stop-color="#b13e8d" stop-opacity="0.388"/>
      <stop offset="0.465" stop-color="#b13e8d" stop-opacity="0.612"/>
      <stop offset="0.633" stop-color="#b13e8d" stop-opacity="0.78"/>
      <stop offset="0.784" stop-color="#b13e8d"/>
      <stop offset="0.911" stop-color="#b13e8d" stop-opacity="0.969"/>
      <stop offset="1" stop-color="#b13e8d"/>
    </linearGradient>
    <filter id="Rectángulo_40720" x="41" y="4" width="108" height="108" filterUnits="userSpaceOnUse">
      <feOffset dy="3" input="SourceAlpha"/>
      <feGaussianBlur stdDeviation="3" result="blur"/>
      <feFlood flood-opacity="0.161"/>
      <feComposite operator="in" in2="blur"/>
      <feComposite in="SourceGraphic"/>
    </filter>
  </defs>
  <g id="Grupo_136182" data-name="Grupo 136182" transform="translate(-180 -1627)">
    <g id="Grupo_128321" data-name="Grupo 128321" transform="translate(0 1228)">
      <rect id="Rectángulo_40586" data-name="Rectángulo 40586" width="190" height="20" transform="translate(180 444)" fill="none"/>
      <g id="Grupo_108405" data-name="Grupo 108405" transform="translate(209.5 463)">
        <path id="Rectángulo_5242" data-name="Rectángulo 5242" d="M0,0H12a0,0,0,0,1,0,0V43.333a3,3,0,0,1-3,3H3a3,3,0,0,1-3-3V0A0,0,0,0,1,0,0Z" transform="translate(0 0)" fill="url(#linear-gradient)"/>
      </g>
      <g id="Grupo_108406" data-name="Grupo 108406" transform="translate(340 451) rotate(180)">
        <path id="Rectángulo_5242-2" data-name="Rectángulo 5242" d="M0,0H12a0,0,0,0,1,0,0V49a3,3,0,0,1-3,3H3a3,3,0,0,1-3-3V0A0,0,0,0,1,0,0Z" transform="translate(0 0)" fill="url(#linear-gradient-2)"/>
      </g>
      <g transform="matrix(1, 0, 0, 1, 180, 399)" filter="url(#Rectángulo_40720)">
        <path id="Rectángulo_40720-2" data-name="Rectángulo 40720" d="M10,0H80A10,10,0,0,1,90,10V90a0,0,0,0,1,0,0H10A10,10,0,0,1,0,80V10A10,10,0,0,1,10,0Z" transform="translate(50 10)" fill="#f6f6f6"/>
      </g>
    </g>
    <g id="plan-estrategico" transform="translate(243.467 1650)">
      <path id="Trazado_195714" data-name="Trazado 195714" d="M29,13H14a1,1,0,0,0-1,1V29a1,1,0,0,0,1,1h5a1,1,0,0,0,1-1V27.5a1.5,1.5,0,0,1,3,0V29a1,1,0,0,0,1,1h5a1,1,0,0,0,1-1V25h.5a3.5,3.5,0,1,0,0-7H30V14A1,1,0,0,0,29,13Zm1.5,7a1.5,1.5,0,0,1,0,3H29a1,1,0,0,0-1,1v4H25v-.5a3.5,3.5,0,0,0-7,0V28H15V15H28v4a1,1,0,0,0,1,1Z" fill="#6836bf"/>
      <path id="Trazado_195715" data-name="Trazado 195715" d="M13,50a1,1,0,0,0,1,1H29a1,1,0,0,0,1-1V45a1,1,0,0,0-1-1H27.5a1.5,1.5,0,0,1,0-3H29a1,1,0,0,0,1-1V35a1,1,0,0,0-1-1H25v-.5a3.5,3.5,0,0,0-7,0V34H14a1,1,0,0,0-1,1Zm2-14h4a1,1,0,0,0,1-1V33.5a1.5,1.5,0,0,1,3,0V35a1,1,0,0,0,1,1h4v3h-.5a3.5,3.5,0,0,0,0,7H28v3H15Z" fill="#6836bf"/>
      <path id="Trazado_195716" data-name="Trazado 195716" d="M35,51H50a1,1,0,0,0,1-1V35a1,1,0,0,0-1-1H45a1,1,0,0,0-1,1v1.5a1.5,1.5,0,0,1-3,0V35a1,1,0,0,0-1-1H35a1,1,0,0,0-1,1v4h-.5a3.5,3.5,0,0,0,0,7H34v4A1,1,0,0,0,35,51Zm-1.5-7a1.5,1.5,0,0,1,0-3H35a1,1,0,0,0,1-1V36h3v.5a3.5,3.5,0,0,0,7,0V36h3V49H36V45a1,1,0,0,0-1-1Z" fill="#6836bf"/>
      <path id="Trazado_195717" data-name="Trazado 195717" d="M36.5,23H35a1,1,0,0,0-1,1v5a1,1,0,0,0,1,1h4v.5a3.5,3.5,0,0,0,7,0V30h4a1,1,0,0,0,1-1V14a1,1,0,0,0-1-1H35a1,1,0,0,0-1,1v5a1,1,0,0,0,1,1h1.5a1.5,1.5,0,0,1,0,3Zm0-5H36V15H49V28H45a1,1,0,0,0-1,1v1.5a1.5,1.5,0,0,1-3,0V29a1,1,0,0,0-1-1H36V25h.5a3.5,3.5,0,1,0,0-7Z" fill="#6836bf"/>
      <path id="Trazado_195718" data-name="Trazado 195718" d="M61,2H53a1,1,0,0,0-1,1V6H35.86a4,4,0,0,0-7.72,0H12V3a1,1,0,0,0-1-1H3A1,1,0,0,0,2,3v8a1,1,0,0,0,1,1h8a1,1,0,0,0,1-1V8H28.14a4,4,0,0,0,7.72,0H52v3a1,1,0,0,0,1,1h8a1,1,0,0,0,1-1V3A1,1,0,0,0,61,2ZM10,10H4V4h6ZM32,9a2,2,0,1,1,2-2A2,2,0,0,1,32,9Zm28,1H54V4h6Z" fill="#6836bf"/>
      <path id="Trazado_195719" data-name="Trazado 195719" d="M61,52H53a1,1,0,0,0-1,1v3H35.86a4,4,0,0,0-7.72,0H12V53a1,1,0,0,0-1-1H3a1,1,0,0,0-1,1v8a1,1,0,0,0,1,1h8a1,1,0,0,0,1-1V58H28.14a4,4,0,0,0,7.72,0H52v3a1,1,0,0,0,1,1h8a1,1,0,0,0,1-1V53A1,1,0,0,0,61,52ZM10,60H4V54h6Zm22-1a2,2,0,1,1,2-2A2,2,0,0,1,32,59Zm28,1H54V54h6Z" fill="#6836bf"/>
      <path id="Trazado_195720" data-name="Trazado 195720" d="M58,28H53v2h6a1,1,0,0,0,1-1V18H58Z" fill="#6836bf"/>
      <path id="Trazado_195721" data-name="Trazado 195721" d="M6,36h5V34H5a1,1,0,0,0-1,1V46H6Z" fill="#6836bf"/>
      <rect id="Rectángulo_44171" data-name="Rectángulo 44171" width="2" height="2" transform="translate(4 48)" fill="#6836bf"/>
      <rect id="Rectángulo_44172" data-name="Rectángulo 44172" width="2" height="2" transform="translate(58 14)" fill="#6836bf"/>
    </g>
  </g>
</svg>
