<svg xmlns="http://www.w3.org/2000/svg" width="120" height="120" viewBox="0 0 120 120">
  <g id="Grupo_137078" data-name="Grupo 137078" transform="translate(-898 -1687)">
    <circle id="Elipse_6074" data-name="Elipse 6074" cx="60" cy="60" r="60" transform="translate(898 1687)" fill="#b13e8d"/>
    <g id="gente-de-negocios" transform="translate(916 1706.001)">
      <path id="Trazado_195768" data-name="Trazado 195768" d="M34,40a8,8,0,1,1,8-8,8,8,0,0,1-8,8Zm0-13.333A5.333,5.333,0,1,0,39.333,32,5.333,5.333,0,0,0,34,26.667Z" transform="translate(8 6.334)" fill="#fff"/>
      <path id="Trazado_195769" data-name="Trazado 195769" d="M45.667,47.667a1.333,1.333,0,0,1-1.333-1.333v-4c0-.775-3.271-2.667-9.333-2.667s-9.333,1.892-9.333,2.667v4a1.333,1.333,0,0,1-2.667,0v-4C23,38.832,29.036,37,35,37s12,1.832,12,5.333v4A1.333,1.333,0,0,1,45.667,47.667Z" transform="translate(7 10.667)" fill="#fff"/>
      <path id="Trazado_195770" data-name="Trazado 195770" d="M34,40a8,8,0,1,1,8-8,8,8,0,0,1-8,8Zm0-13.333A5.333,5.333,0,1,0,39.333,32,5.333,5.333,0,0,0,34,26.667Z" transform="translate(8 6.334)" fill="#fff"/>
      <path id="Trazado_195771" data-name="Trazado 195771" d="M45.667,47.667a1.333,1.333,0,0,1-1.333-1.333v-4c0-.775-3.271-2.667-9.333-2.667s-9.333,1.892-9.333,2.667v4a1.333,1.333,0,0,1-2.667,0v-4C23,38.832,29.036,37,35,37s12,1.832,12,5.333v4A1.333,1.333,0,0,1,45.667,47.667Z" transform="translate(7 10.667)" fill="#fff"/>
      <path id="Trazado_195772" data-name="Trazado 195772" d="M46,35a8,8,0,1,1,8-8,8,8,0,0,1-8,8Zm0-13.333A5.333,5.333,0,1,0,51.333,27,5.333,5.333,0,0,0,46,21.667Z" transform="translate(12 4.667)" fill="#fff"/>
      <path id="Trazado_195773" data-name="Trazado 195773" d="M56.667,42.667a1.333,1.333,0,0,1-1.333-1.333v-4c0-.775-3.271-2.667-9.333-2.667a22.581,22.581,0,0,0-6.283.821,1.333,1.333,0,1,1-.768-2.554A24.9,24.9,0,0,1,46,32c5.964,0,12,1.832,12,5.333v4A1.333,1.333,0,0,1,56.667,42.667Z" transform="translate(12 9)" fill="#fff"/>
      <path id="Trazado_195774" data-name="Trazado 195774" d="M22,35a8,8,0,1,1,8-8A8,8,0,0,1,22,35Zm0-13.333A5.333,5.333,0,1,0,27.333,27,5.333,5.333,0,0,0,22,21.667Z" transform="translate(4 4.667)" fill="#fff"/>
      <path id="Trazado_195775" data-name="Trazado 195775" d="M12.333,42.667A1.333,1.333,0,0,1,11,41.334v-4C11,33.832,17.036,32,23,32a24.9,24.9,0,0,1,7.051.933,1.333,1.333,0,1,1-.768,2.554A22.582,22.582,0,0,0,23,34.667c-6.063,0-9.333,1.892-9.333,2.667v4A1.333,1.333,0,0,1,12.333,42.667Z" transform="translate(3 9)" fill="#fff"/>
      <path id="Trazado_195776" data-name="Trazado 195776" d="M62.333,37.667a1.333,1.333,0,0,1-.942-.39l-4-4a1.333,1.333,0,1,1,1.885-1.885l4,4a1.333,1.333,0,0,1-.943,2.276Z" transform="translate(18.334 8.667)" fill="#fff"/>
      <path id="Trazado_195777" data-name="Trazado 195777" d="M55.333,37.667a1.333,1.333,0,0,1-.943-2.276l4-4a1.333,1.333,0,1,1,1.885,1.885l-4,4A1.333,1.333,0,0,1,55.333,37.667Z" transform="translate(17.334 8.667)" fill="#fff"/>
      <path id="Trazado_195778" data-name="Trazado 195778" d="M38.334,68.333A35.833,35.833,0,0,1,13.41,58.311a1.333,1.333,0,1,1,1.847-1.924A33.333,33.333,0,0,0,71.667,32.333a1.333,1.333,0,0,1,2.667,0A36.04,36.04,0,0,1,38.334,68.333Z" transform="translate(3.667 8.667)" fill="#fff"/>
      <path id="Trazado_195779" data-name="Trazado 195779" d="M62.333,37.667a1.333,1.333,0,0,1-.942-.39l-4-4a1.333,1.333,0,1,1,1.885-1.885l4,4a1.333,1.333,0,0,1-.943,2.276Z" transform="translate(18.334 8.667)" fill="#fff"/>
      <path id="Trazado_195780" data-name="Trazado 195780" d="M55.333,37.667a1.333,1.333,0,0,1-.943-2.276l4-4a1.333,1.333,0,1,1,1.885,1.885l-4,4A1.333,1.333,0,0,1,55.333,37.667Z" transform="translate(17.334 8.667)" fill="#fff"/>
      <path id="Trazado_195781" data-name="Trazado 195781" d="M38.334,68.333A35.833,35.833,0,0,1,13.41,58.311a1.333,1.333,0,1,1,1.847-1.924A33.333,33.333,0,0,0,71.667,32.333a1.333,1.333,0,0,1,2.667,0A36.04,36.04,0,0,1,38.334,68.333Z" transform="translate(3.667 8.667)" fill="#fff"/>
      <path id="Trazado_195782" data-name="Trazado 195782" d="M62.333,37.667a1.333,1.333,0,0,1-.942-.39l-4-4a1.333,1.333,0,1,1,1.885-1.885l4,4a1.333,1.333,0,0,1-.943,2.276Z" transform="translate(18.334 8.667)" fill="#fff"/>
      <path id="Trazado_195783" data-name="Trazado 195783" d="M55.333,37.667a1.333,1.333,0,0,1-.943-2.276l4-4a1.333,1.333,0,1,1,1.885,1.885l-4,4A1.333,1.333,0,0,1,55.333,37.667Z" transform="translate(17.334 8.667)" fill="#fff"/>
      <path id="Trazado_195784" data-name="Trazado 195784" d="M38.334,68.333A35.833,35.833,0,0,1,13.41,58.311a1.333,1.333,0,1,1,1.847-1.924A33.333,33.333,0,0,0,71.667,32.333a1.333,1.333,0,0,1,2.667,0A36.04,36.04,0,0,1,38.334,68.333Z" transform="translate(3.667 8.667)" fill="#fff"/>
      <path id="Trazado_195785" data-name="Trazado 195785" d="M6.333,34.667a1.333,1.333,0,0,1-.943-2.276l4-4a1.333,1.333,0,1,1,1.885,1.885l-4,4A1.333,1.333,0,0,1,6.333,34.667Z" transform="translate(1 7.667)" fill="#fff"/>
      <path id="Trazado_195786" data-name="Trazado 195786" d="M7.333,34.667a1.333,1.333,0,0,1-.942-.39l-4-4a1.333,1.333,0,1,1,1.885-1.885l4,4a1.333,1.333,0,0,1-.943,2.276Z" transform="translate(0 7.667)" fill="#fff"/>
      <path id="Trazado_195787" data-name="Trazado 195787" d="M6.333,42.334A1.333,1.333,0,0,1,5,41,36,36,0,0,1,65.924,15.023a1.333,1.333,0,1,1-1.847,1.924A33.333,33.333,0,0,0,7.667,41,1.333,1.333,0,0,1,6.333,42.334Z" transform="translate(1 0)" fill="#fff"/>
      <path id="Trazado_195788" data-name="Trazado 195788" d="M6.333,34.667a1.333,1.333,0,0,1-.943-2.276l4-4a1.333,1.333,0,1,1,1.885,1.885l-4,4A1.333,1.333,0,0,1,6.333,34.667Z" transform="translate(1 7.667)" fill="#fff"/>
      <path id="Trazado_195789" data-name="Trazado 195789" d="M7.333,34.667a1.333,1.333,0,0,1-.942-.39l-4-4a1.333,1.333,0,1,1,1.885-1.885l4,4a1.333,1.333,0,0,1-.943,2.276Z" transform="translate(0 7.667)" fill="#fff"/>
      <path id="Trazado_195790" data-name="Trazado 195790" d="M6.333,42.334A1.333,1.333,0,0,1,5,41,36,36,0,0,1,65.924,15.023a1.333,1.333,0,1,1-1.847,1.924A33.333,33.333,0,0,0,7.667,41,1.333,1.333,0,0,1,6.333,42.334Z" transform="translate(1 0)" fill="#fff"/>
      <path id="Trazado_195791" data-name="Trazado 195791" d="M6.333,34.667a1.333,1.333,0,0,1-.943-2.276l4-4a1.333,1.333,0,1,1,1.885,1.885l-4,4A1.333,1.333,0,0,1,6.333,34.667Z" transform="translate(1 7.667)" fill="#fff"/>
      <path id="Trazado_195792" data-name="Trazado 195792" d="M7.333,34.667a1.333,1.333,0,0,1-.942-.39l-4-4a1.333,1.333,0,1,1,1.885-1.885l4,4a1.333,1.333,0,0,1-.943,2.276Z" transform="translate(0 7.667)" fill="#fff"/>
      <path id="Trazado_195793" data-name="Trazado 195793" d="M6.333,42.334A1.333,1.333,0,0,1,5,41,36,36,0,0,1,65.924,15.023a1.333,1.333,0,1,1-1.847,1.924A33.333,33.333,0,0,0,7.667,41,1.333,1.333,0,0,1,6.333,42.334Z" transform="translate(1 0)" fill="#fff"/>
    </g>
  </g>
</svg>
