<svg xmlns="http://www.w3.org/2000/svg" xmlns:xlink="http://www.w3.org/1999/xlink" width="190" height="112" viewBox="0 0 190 112">
  <defs>
    <linearGradient id="linear-gradient" x1="0.5" x2="0.5" y2="1" gradientUnits="objectBoundingBox">
      <stop offset="0" stop-color="#f7ca2e" stop-opacity="0"/>
      <stop offset="0.091" stop-color="#f7ca2e" stop-opacity="0.129"/>
      <stop offset="0.283" stop-color="#f7ca2e" stop-opacity="0.388"/>
      <stop offset="0.465" stop-color="#f7ca2e" stop-opacity="0.612"/>
      <stop offset="0.633" stop-color="#f7ca2e" stop-opacity="0.78"/>
      <stop offset="0.784" stop-color="#f7ca2e" stop-opacity="0.902"/>
      <stop offset="0.911" stop-color="#f7ca2e" stop-opacity="0.969"/>
      <stop offset="1" stop-color="#f7ca2e"/>
    </linearGradient>
    <linearGradient id="linear-gradient-2" x1="0.5" x2="0.5" y2="1" gradientUnits="objectBoundingBox">
      <stop offset="0" stop-color="#b13e8d" stop-opacity="0"/>
      <stop offset="0.091" stop-color="#b13e8d" stop-opacity="0.129"/>
      <stop offset="0.283" stop-color="#b13e8d" stop-opacity="0.388"/>
      <stop offset="0.465" stop-color="#b13e8d" stop-opacity="0.612"/>
      <stop offset="0.633" stop-color="#b13e8d" stop-opacity="0.78"/>
      <stop offset="0.784" stop-color="#b13e8d"/>
      <stop offset="0.911" stop-color="#b13e8d" stop-opacity="0.969"/>
      <stop offset="1" stop-color="#b13e8d"/>
    </linearGradient>
    <filter id="Rectángulo_40720" x="41" y="4" width="108" height="108" filterUnits="userSpaceOnUse">
      <feOffset dy="3" input="SourceAlpha"/>
      <feGaussianBlur stdDeviation="3" result="blur"/>
      <feFlood flood-opacity="0.161"/>
      <feComposite operator="in" in2="blur"/>
      <feComposite in="SourceGraphic"/>
    </filter>
    <clipPath id="clip-path">
      <path id="path2274" d="M0-682.665H63.676v63.676H0Z" transform="translate(0 682.665)"/>
    </clipPath>
  </defs>
  <g id="Grupo_136886" data-name="Grupo 136886" transform="translate(-180 -1627)">
    <g id="Grupo_128321" data-name="Grupo 128321" transform="translate(0 1228)">
      <rect id="Rectángulo_40586" data-name="Rectángulo 40586" width="190" height="20" transform="translate(180 444)" fill="none"/>
      <g id="Grupo_108405" data-name="Grupo 108405" transform="translate(209.5 463)">
        <path id="Rectángulo_5242" data-name="Rectángulo 5242" d="M0,0H12a0,0,0,0,1,0,0V43.333a3,3,0,0,1-3,3H3a3,3,0,0,1-3-3V0A0,0,0,0,1,0,0Z" transform="translate(0 0)" fill="url(#linear-gradient)"/>
      </g>
      <g id="Grupo_108406" data-name="Grupo 108406" transform="translate(340 451) rotate(180)">
        <path id="Rectángulo_5242-2" data-name="Rectángulo 5242" d="M0,0H12a0,0,0,0,1,0,0V49a3,3,0,0,1-3,3H3a3,3,0,0,1-3-3V0A0,0,0,0,1,0,0Z" transform="translate(0 0)" fill="url(#linear-gradient-2)"/>
      </g>
      <g transform="matrix(1, 0, 0, 1, 180, 399)" filter="url(#Rectángulo_40720)">
        <path id="Rectángulo_40720-2" data-name="Rectángulo 40720" d="M10,0H80A10,10,0,0,1,90,10V90a0,0,0,0,1,0,0H10A10,10,0,0,1,0,80V10A10,10,0,0,1,10,0Z" transform="translate(50 10)" fill="#f6f6f6"/>
      </g>
    </g>
    <g id="g2268" transform="translate(244.961 2332.994)">
      <g id="g2270" transform="translate(0 -682.665)">
        <g id="g2272" clip-path="url(#clip-path)">
          <path id="path2278" d="M10-298.571H26.252v-20.765H10Z" transform="translate(-9.067 353.225)" fill="rgba(0,0,0,0)" stroke="#6836bf" stroke-linecap="round" stroke-linejoin="round" stroke-miterlimit="10" stroke-width="2"/>
          <g id="g2280" transform="translate(11.939 1.781)">
            <path id="path2282" d="M-58.464-201.816h-6.014v-20.761h16.252v20.761h-6.014" transform="translate(64.479 222.577)" fill="rgba(0,0,0,0)" stroke="#6836bf" stroke-linecap="round" stroke-linejoin="round" stroke-miterlimit="10" stroke-width="2"/>
          </g>
        </g>
      </g>
      <g id="g2284" transform="translate(23.71 -648.775)">
        <path id="path2286" d="M-58.464-201.851h-6.014v-20.765h16.252v20.765h-6.014" transform="translate(64.479 222.615)" fill="rgba(0,0,0,0)" stroke="#6836bf" stroke-linecap="round" stroke-linejoin="round" stroke-miterlimit="10" stroke-width="2"/>
      </g>
      <g id="g2288" transform="translate(0 -682.665)">
        <g id="g2290" clip-path="url(#clip-path)">
          <g id="g2296" transform="translate(34.717 1.781)">
            <path id="path2298" d="M-58.464-201.816h-6.014v-20.761h16.256v20.761h-6.014" transform="translate(64.479 222.577)" fill="rgba(0,0,0,0)" stroke="#6836bf" stroke-linecap="round" stroke-linejoin="round" stroke-miterlimit="10" stroke-width="2"/>
          </g>
          <path id="path2300" d="M498.391-298.571h16.256v-20.765H498.391Z" transform="translate(-451.903 353.225)" fill="rgba(0,0,0,0)" stroke="#6836bf" stroke-linecap="round" stroke-linejoin="round" stroke-miterlimit="10" stroke-width="2"/>
        </g>
      </g>
      <path id="path2302" d="M48.816-266.966h9.011v-13.516H48.816Z" transform="translate(-44.263 -364.669)" fill="rgba(0,0,0,0)" stroke="#6836bf" stroke-linecap="round" stroke-linejoin="round" stroke-miterlimit="10" stroke-width="2"/>
      <path id="path2304" d="M411.046-542.22h9.007v-6.42h-9.007Z" transform="translate(-372.705 -121.524)" fill="rgba(0,0,0,0)" stroke="#6836bf" stroke-linecap="round" stroke-linejoin="round" stroke-miterlimit="10" stroke-width="2"/>
      <g id="g2306" transform="translate(4.553 -645.151)">
        <path id="path2308" d="M-87.594,0l-9.011,13.516m0-13.516,9.011,13.516" transform="translate(96.605)" fill="rgba(0,0,0,0)" stroke="#6836bf" stroke-linecap="round" stroke-linejoin="round" stroke-miterlimit="10" stroke-width="2"/>
      </g>
      <path id="path2310" d="M293.011-269.616h9.011v4.71h-9.011Zm0-8.334h9.011v4.71h-9.011Z" transform="translate(-265.681 -366.965)" fill="rgba(0,0,0,0)" stroke="#6836bf" stroke-linecap="round" stroke-linejoin="round" stroke-miterlimit="10" stroke-width="2"/>
      <g id="g2312" transform="translate(49.71 -643.826)">
        <path id="path2314" d="M0-35.194H9.811M0-31.57H9.811M0-27.949H5.887M0-38.815H9.811" transform="translate(0 38.815)" fill="rgba(0,0,0,0)" stroke="#6836bf" stroke-linecap="round" stroke-linejoin="round" stroke-miterlimit="10" stroke-width="2"/>
      </g>
      <g id="g2316" transform="translate(38.341 -677.264)">
        <path id="path2318" d="M0-35.194H9.007M0-38.815H9.007" transform="translate(0 38.815)" fill="rgba(0,0,0,0)" stroke="#6836bf" stroke-linecap="round" stroke-linejoin="round" stroke-miterlimit="10" stroke-width="2"/>
      </g>
      <g id="g2320" transform="translate(16.162 -673.108)">
        <path id="path2322" d="M0-25.292l2.6,2.6,5.2-5.2" transform="translate(0 27.893)" fill="rgba(0,0,0,0)" stroke="#6836bf" stroke-linecap="round" stroke-linejoin="round" stroke-miterlimit="10" stroke-width="2"/>
      </g>
      <g id="g2324" transform="translate(0 -682.665)">
        <g id="g2326" clip-path="url(#clip-path)">
          <g id="g2332" transform="translate(2.279 4.918)">
            <path id="path2334" d="M-366.311-382.556h6.526m-29.3,0h6.526m-14.651-10.382a7.264,7.264,0,0,1,7.245-7.241h37.083a7.264,7.264,0,0,0,7.241-7.245,7.264,7.264,0,0,0-7.241-7.245H-355.3m-22.781,0h6.525m-32.437-7.241a7.264,7.264,0,0,0,7.245,7.241h2.415m42.678,42.5a7.264,7.264,0,0,1-7.245,7.241h-38.314" transform="translate(403.994 421.91)" fill="rgba(0,0,0,0)" stroke="#6836bf" stroke-linecap="round" stroke-linejoin="round" stroke-miterlimit="10" stroke-width="2"/>
          </g>
        </g>
      </g>
    </g>
  </g>
</svg>
