<svg xmlns="http://www.w3.org/2000/svg" width="90" height="89.924" viewBox="0 0 90 89.924">
  <g id="encuesta" transform="translate(-192.961 -49)">
    <g id="Grupo_137053" data-name="Grupo 137053" transform="translate(239.878 95.917)">
      <circle id="Elipse_6086" data-name="Elipse 6086" cx="1.955" cy="1.955" r="1.955" transform="translate(0)" fill="#b13e8d"/>
    </g>
    <g id="Grupo_137054" data-name="Grupo 137054" transform="translate(220.33 68.55)">
      <path id="Trazado_195726" data-name="Trazado 195726" d="M63.572,140.246l3.91,3.91a1.953,1.953,0,0,0,2.764,0l7.819-7.819a1.955,1.955,0,1,0-2.764-2.764l-6.437,6.437-2.528-2.528a1.955,1.955,0,0,0-2.764,2.764Z" transform="translate(-63 -133)" fill="#b13e8d" fill-rule="evenodd"/>
    </g>
    <g id="Grupo_137055" data-name="Grupo 137055" transform="translate(220.33 88.098)">
      <path id="Trazado_195727" data-name="Trazado 195727" d="M63.572,140.246l3.91,3.91a1.953,1.953,0,0,0,2.764,0l7.819-7.819a1.955,1.955,0,1,0-2.764-2.764l-6.437,6.437-2.528-2.528a1.955,1.955,0,0,0-2.764,2.764Z" transform="translate(-63 -133)" fill="#b13e8d" fill-rule="evenodd"/>
    </g>
    <g id="Grupo_137056" data-name="Grupo 137056" transform="translate(239.878 68.549)">
      <path id="Trazado_195728" data-name="Trazado 195728" d="M74.955,138.91H94.5a1.955,1.955,0,1,0,0-3.91H74.955a1.955,1.955,0,1,0,0,3.91Z" transform="translate(-73 -135)" fill="#b13e8d" fill-rule="evenodd"/>
    </g>
    <g id="Grupo_137057" data-name="Grupo 137057" transform="translate(239.878 88.097)">
      <path id="Trazado_195729" data-name="Trazado 195729" d="M74.955,138.91h7.9a1.955,1.955,0,1,0,0-3.91h-7.9a1.955,1.955,0,1,0,0,3.91Z" transform="translate(-73 -135)" fill="#b13e8d" fill-rule="evenodd"/>
    </g>
    <g id="Grupo_137058" data-name="Grupo 137058" transform="translate(239.878 76.368)">
      <path id="Trazado_195730" data-name="Trazado 195730" d="M74.955,142.91H86.684a1.955,1.955,0,1,0,0-3.91H74.955a1.955,1.955,0,1,0,0,3.91Z" transform="translate(-73 -139)" fill="#b13e8d" fill-rule="evenodd"/>
    </g>
    <g id="Grupo_137059" data-name="Grupo 137059" transform="translate(208.6 56.819)">
      <path id="Trazado_195731" data-name="Trazado 195731" d="M60.91,158.233V129.887a.974.974,0,0,1,.977-.977h4.963a1.955,1.955,0,0,0,0-3.91H61.887A4.886,4.886,0,0,0,57,129.887v28.346a1.955,1.955,0,0,0,3.91,0Z" transform="translate(-57 -125)" fill="#b13e8d" fill-rule="evenodd"/>
    </g>
    <path id="Trazado_195732" data-name="Trazado 195732" d="M232.382,56.819V54.865a5.865,5.865,0,1,0-11.729,0v1.955h-9.7a1.955,1.955,0,0,0,0,3.91h43.908a.978.978,0,0,1,.977.977l.076,8.814a1.955,1.955,0,0,0,3.91-.035l-.076-8.8a4.889,4.889,0,0,0-4.887-4.87Zm-3.91-1.955a1.955,1.955,0,1,0-3.91,0v1.955h3.91Z" transform="translate(15.315 0)" fill="#b13e8d" fill-rule="evenodd"/>
    <g id="Grupo_137060" data-name="Grupo 137060" transform="translate(232.135 119.375)">
      <path id="Trazado_195733" data-name="Trazado 195733" d="M108.136,158.943l-.076,12.718a.974.974,0,0,1-.977.977H70.994a1.955,1.955,0,0,0,0,3.91h36.089a4.886,4.886,0,0,0,4.887-4.887c0,.012.076-12.695.076-12.695a1.955,1.955,0,1,0-3.91-.023Z" transform="translate(-69.039 -157)" fill="#b13e8d" fill-rule="evenodd"/>
    </g>
    <path id="Trazado_195734" data-name="Trazado 195734" d="M201.119,96.591a9.776,9.776,0,0,0-8.158,9.641v4.887a4.886,4.886,0,0,0,4.887,4.887h25.413a4.888,4.888,0,0,0,4.887-4.887v-4.887a9.778,9.778,0,0,0-8.16-9.641,13.683,13.683,0,1,0-18.87,0Zm19.21,15.506h2.932a.978.978,0,0,0,.977-.977v-4.887a5.864,5.864,0,0,0-5.865-5.865H202.735a5.864,5.864,0,0,0-5.865,5.865v4.887a.978.978,0,0,0,.977.977h2.932v-5.865a1.955,1.955,0,1,1,3.91,0V112.1h11.729v-5.865a1.955,1.955,0,1,1,3.91,0ZM210.555,76.91a9.774,9.774,0,1,1-9.774,9.774A9.779,9.779,0,0,1,210.555,76.91Z" transform="translate(0 22.917)" fill="#b13e8d" fill-rule="evenodd"/>
    <path id="Trazado_195735" data-name="Trazado 195735" d="M251.754,64.431c-2.254,2.254-38.126,38.321-38.126,38.321a1.95,1.95,0,0,0-.567,1.376v7.819a1.953,1.953,0,0,0,1.955,1.955h7.819a1.954,1.954,0,0,0,1.386-.577s17.928-18.045,29.806-29.976l.54.54a.979.979,0,0,1,0,1.382l-7.583,7.583a4.887,4.887,0,0,0,0,6.91l1.838,1.836a1.955,1.955,0,1,0,2.764-2.764L249.748,97a.979.979,0,0,1,0-1.382l7.583-7.583a4.887,4.887,0,0,0,0-6.91l-.543-.545c2.289-2.3,4.219-4.232,5.55-5.565a4.887,4.887,0,0,0,0-6.91l-3.673-3.673A4.887,4.887,0,0,0,251.754,64.431ZM242.386,79.37l5.055,5.055c-10.189,10.24-22.63,22.76-25.419,25.568h-5.051v-5.057C219.749,102.138,232.191,89.615,242.386,79.37Zm7.814,2.283L245.144,76.6c3.957-3.974,7.352-7.384,9.374-9.4a.978.978,0,0,1,1.382,0l3.673,3.673a.978.978,0,0,1,0,1.382C257.55,74.272,254.154,77.681,250.2,81.653Z" transform="translate(19.193 13.368)" fill="#b13e8d" fill-rule="evenodd"/>
  </g>
</svg>
