<svg id="medida-de-impresion-3d" xmlns="http://www.w3.org/2000/svg" width="90" height="90" viewBox="0 0 90 90">
  <g id="Grupo_137062" data-name="Grupo 137062">
    <g id="Grupo_137061" data-name="Grupo 137061">
      <path id="Trazado_195736" data-name="Trazado 195736" d="M87,72H18V3a3,3,0,0,0-3-3H3A3,3,0,0,0,0,3V87a3,3,0,0,0,3,3H87a3,3,0,0,0,3-3V75A3,3,0,0,0,87,72ZM15,3V7.5H9a1.5,1.5,0,1,0,0,3h6v3H12a1.5,1.5,0,1,0,0,3h3v3H12a1.5,1.5,0,0,0,0,3h3v3H12a1.5,1.5,0,0,0,0,3h3v3H12a1.5,1.5,0,0,0,0,3h3v3H9a1.5,1.5,0,1,0,0,3h6v3H12a1.5,1.5,0,1,0,0,3h3v3H12a1.5,1.5,0,1,0,0,3h3v3H12a1.5,1.5,0,1,0,0,3h3v3H12a1.5,1.5,0,0,0,0,3h3v3H9a1.5,1.5,0,1,0,0,3h6V72a3,3,0,0,0,.105.774L3,84.879V3ZM87,87H5.121L17.226,74.895A3,3,0,0,0,18,75h1.5v6a1.5,1.5,0,1,0,3,0V75h3v3a1.5,1.5,0,1,0,3,0V75h3v3a1.5,1.5,0,1,0,3,0V75h3v3a1.5,1.5,0,1,0,3,0V75h3v3a1.5,1.5,0,1,0,3,0V75h3v6a1.5,1.5,0,1,0,3,0V75h3v3a1.5,1.5,0,1,0,3,0V75h3v3a1.5,1.5,0,1,0,3,0V75h3v3a1.5,1.5,0,1,0,3,0V75h3v3a1.5,1.5,0,1,0,3,0V75h3v6a1.5,1.5,0,1,0,3,0V75H87V87Z" fill="#b13e8d"/>
      <path id="Trazado_195737" data-name="Trazado 195737" d="M229.866,15.175l-28.5-15a1.5,1.5,0,0,0-1.4,0l-28.5,15a1.5,1.5,0,0,0-.8,1.327v30a1.5,1.5,0,0,0,.8,1.327l28.488,14.994.009,0h0l.006,0a1.466,1.466,0,0,0,.145.065l.045.016q.057.02.115.036l.053.013c.039.009.079.016.118.022l.049.007a1.384,1.384,0,0,0,.335,0l.049-.007c.04-.006.079-.013.118-.022l.053-.013c.039-.01.077-.022.115-.036l.045-.016a1.509,1.509,0,0,0,.145-.065l.006,0h0l.009,0,28.488-14.994a1.5,1.5,0,0,0,.8-1.327v-30A1.5,1.5,0,0,0,229.866,15.175ZM200.667,3.2l26.187,13.782L200.668,32.154,174.48,16.979Zm-27,16.778,25.5,14.776V59.017L173.667,45.6Zm28.5,39.043V34.75h0l25.5-14.775V45.6Z" transform="translate(-140.667 -0.002)" fill="#b13e8d"/>
    </g>
  </g>
</svg>
