<svg xmlns="http://www.w3.org/2000/svg" width="71.264" height="90" viewBox="0 0 71.264 90">
  <g id="toque" transform="translate(-34.875 -10.344)">
    <path id="Trazado_195738" data-name="Trazado 195738" d="M56.932,84.163c-.806-3.974-3.186-14.718-6.109-18.936-1.346-1.943-2.861-2.87-4.493-2.774A5.147,5.147,0,0,0,42.7,64.725a3.519,3.519,0,0,0-.661,1.639L38.608,92.518l-.011.115-.57,10.046-2.671,2.668a1.589,1.589,0,0,0,0,2.275,1.53,1.53,0,0,0,2.108-.053l3.143-3.143a1.53,1.53,0,0,0,.446-.994l.6-10.575L44.872,67.61a2.706,2.706,0,0,1,.932-1.755,1.342,1.342,0,0,1,.715-.348c.477-.022,1.124.5,1.788,1.463,3.17,4.572,5.879,19.091,5.906,19.238a1.534,1.534,0,0,0,1.768,1.229l2.07-.362a1.527,1.527,0,0,0,.625-.262L89.967,64.469l.063-.047a3.163,3.163,0,0,1,2.284-.688,2.852,2.852,0,0,1,2.579,3.243,3.165,3.165,0,0,1-1.186,2.07L82.78,77.736c-.031.024-.065.044-.1.069-.016.012-.027.028-.042.041l-7.22,5.742a1.553,1.553,0,0,0-.45,1.9,1.533,1.533,0,0,0,2.324.516l7.391-5.879a2.954,2.954,0,1,1,3.586,4.691l-1.457,1.154,0,0L78.18,92.814a1.53,1.53,0,1,0,1.9,2.4l8.641-6.844A3.1,3.1,0,0,1,91,87.721a3.008,3.008,0,0,1,2.037,1.109,2.864,2.864,0,0,1,.591,2.177,3.166,3.166,0,0,1-1.17,2.059l-8.7,6.543a1.572,1.572,0,0,0-.446,2.042,1.53,1.53,0,0,0,2.235.441l4.863-3.658c.009,0,.019-.006.028-.011a3.005,3.005,0,0,1,3.728.731,2.865,2.865,0,0,1,.591,2.176,3.163,3.163,0,0,1-1.181,2.068l-24.5,19.385-7.748,2.744a1.53,1.53,0,0,0-.571.36L57.9,128.744a1.589,1.589,0,0,0,0,2.275,1.53,1.53,0,0,0,2.109-.053l2.67-2.67,7.661-2.713a1.514,1.514,0,0,0,.438-.242l24.7-19.544a6.212,6.212,0,0,0,2.314-4.068,5.871,5.871,0,0,0-3.5-6.209l.027-.02.033-.025a6.212,6.212,0,0,0,2.314-4.068,5.9,5.9,0,0,0-1.23-4.478A6.014,6.014,0,0,0,92.028,84.8a6,6,0,0,0-.772-6.126A5.857,5.857,0,0,0,88.8,76.864l6.818-5.423a6.212,6.212,0,0,0,2.314-4.068,5.912,5.912,0,0,0-5.316-6.686A6.223,6.223,0,0,0,88.159,62Z" transform="translate(0 -31.07)" fill="#b13e8d"/>
    <path id="Trazado_195739" data-name="Trazado 195739" d="M39.467,62.4a1.53,1.53,0,0,0,1.082-2.612,7.535,7.535,0,1,1,12.365-2.625,1.53,1.53,0,1,0,2.857,1.1,10.6,10.6,0,1,0-17.384,3.692A1.525,1.525,0,0,0,39.467,62.4Z" transform="translate(-0.251 -20.698)" fill="#b13e8d"/>
    <path id="Trazado_195740" data-name="Trazado 195740" d="M185.243,44.4a10.6,10.6,0,0,0-17.1,3.013,1.53,1.53,0,1,0,2.773,1.293,7.537,7.537,0,1,1,8.273,10.584,1.53,1.53,0,1,0,.582,3A10.594,10.594,0,0,0,185.244,44.4Z" transform="translate(-82.211 -19.117)" fill="#b13e8d"/>
    <path id="Trazado_195741" data-name="Trazado 195741" d="M85.143,28.021a1.53,1.53,0,1,0,2.12-2.207l-5.089-4.889h24.631l-5.091,4.888a1.53,1.53,0,0,0,2.12,2.207l7.828-7.519a1.53,1.53,0,0,0,0-2.206l-7.828-7.524a1.53,1.53,0,0,0-2.12,2.206l5.087,4.888H82.176l5.087-4.887a1.53,1.53,0,1,0-2.12-2.207l-7.829,7.521a1.53,1.53,0,0,0,0,2.207Z" transform="translate(-25.918)" fill="#b13e8d"/>
  </g>
</svg>
