<svg id="proceso" xmlns="http://www.w3.org/2000/svg" width="90" height="90" viewBox="0 0 90 90">
  <path id="_x31_1" d="M15.755,56.629a1.415,1.415,0,1,1-2.831,0V41.244A9.865,9.865,0,0,1,22.769,31.4H37.975a1.4,1.4,0,0,1,1.415,1.394,1.421,1.421,0,0,1-1.415,1.415H22.77a7.007,7.007,0,0,0-7.015,7.035Zm7.673,10.343a1.4,1.4,0,0,1-1.4-1.415,1.386,1.386,0,0,1,1.4-1.395H37.059a1.387,1.387,0,0,1,1.4,1.395,1.4,1.4,0,0,1-1.4,1.415Zm36.43,0a1.42,1.42,0,0,1-1.415-1.415,1.4,1.4,0,0,1,1.415-1.395H77.575a7.246,7.246,0,0,1,5.042,2.053,6.957,6.957,0,0,1,2.113,4.963v2.77a1.4,1.4,0,0,1-1.4,1.415,1.421,1.421,0,0,1-1.415-1.415v-2.77a4.183,4.183,0,0,0-1.275-2.95,4.407,4.407,0,0,0-3.068-1.256H59.858ZM74.227,82.616a1.4,1.4,0,0,1,1.415,1.395,1.421,1.421,0,0,1-1.415,1.415H69.843a1.4,1.4,0,0,1-1.4-1.415,1.386,1.386,0,0,1,1.4-1.395Zm-10.642,0A1.4,1.4,0,0,1,65,84.011a1.421,1.421,0,0,1-1.415,1.415H43.258a1.4,1.4,0,0,1-1.4-1.415,1.386,1.386,0,0,1,1.4-1.395ZM60.4,34.208a1.42,1.42,0,0,1-1.415-1.415A1.4,1.4,0,0,1,60.4,31.4H74.227a1.4,1.4,0,0,1,1.415,1.394,1.421,1.421,0,0,1-1.415,1.415ZM84.73,21.892a1.387,1.387,0,0,1-1.395,1.4,1.4,1.4,0,0,1-1.415-1.4V19.959a4.2,4.2,0,0,0-1.236-2.969,4.12,4.12,0,0,0-2.969-1.235H34.508a1.415,1.415,0,0,1,0-2.83H77.714a7.042,7.042,0,0,1,7.016,7.035ZM27.851,12.924a1.415,1.415,0,1,1,0,2.83H23.427a1.415,1.415,0,0,1,0-2.83Z" transform="translate(-3.837 -3.837)" fill="#b13e8d"/>
  <path id="_x31_0" d="M8.594,15.225a1.4,1.4,0,0,1,1.495-2.372l2.072,1.335,3.009-4.982a1.408,1.408,0,0,1,2.412,1.455L13.8,16.9a1.4,1.4,0,0,1-1.933.418Z" transform="translate(-2.356 -2.531)" fill="#b13e8d"/>
  <path id="_x39_" d="M106.7,40.254a1.407,1.407,0,0,1,1.514-2.372l2.073,1.335,3.009-4.982a1.408,1.408,0,1,1,2.411,1.455l-3.786,6.238a1.39,1.39,0,0,1-1.933.419Z" transform="translate(-31.487 -9.962)" fill="#b13e8d"/>
  <path id="_x38_" d="M8.594,88.3a1.393,1.393,0,0,1-.439-1.932,1.409,1.409,0,0,1,1.934-.419l2.072,1.315,3.009-4.982a1.408,1.408,0,0,1,2.412,1.455L13.8,89.971a1.408,1.408,0,0,1-1.933.438Z" transform="translate(-2.356 -24.225)" fill="#b13e8d"/>
  <path id="_x37_" d="M102.331,98.126h12.575a4.235,4.235,0,0,1,4.225,4.2v12.575a4.253,4.253,0,0,1-4.225,4.226H102.331a4.235,4.235,0,0,1-4.2-4.226V102.331A4.217,4.217,0,0,1,102.331,98.126Zm12.575,2.81H102.331a1.386,1.386,0,0,0-1.394,1.4v12.575a1.4,1.4,0,0,0,1.394,1.415h12.575a1.421,1.421,0,0,0,1.415-1.415V102.331A1.4,1.4,0,0,0,114.906,100.936Z" transform="translate(-29.131 -29.131)" fill="#b13e8d"/>
  <path id="_x36_" d="M106.7,113.327a1.4,1.4,0,0,1,1.514-2.352l2.073,1.316,3.009-4.963a1.381,1.381,0,0,1,1.933-.479,1.4,1.4,0,0,1,.478,1.914L111.921,115a1.394,1.394,0,0,1-1.933.439Z" transform="translate(-31.487 -31.658)" fill="#b13e8d"/>
  <path id="_x35_" d="M62.209,104.386a1.4,1.4,0,1,1,1.654,2.252l-6.039,4.444,6.039,4.464a1.4,1.4,0,1,1-1.654,2.252l-7.553-5.56a1.534,1.534,0,0,1-.3-.319,1.38,1.38,0,0,1,.279-1.953Z" transform="translate(-16.052 -30.907)" fill="#b13e8d"/>
  <path id="_x34_" d="M61.106,42.107a15.221,15.221,0,0,1,2.651,1.2,14.319,14.319,0,0,1,2.372,1.714l3.727-1.375a1.424,1.424,0,0,1,1.694.618s2.391,4.146,2.61,4.524a1.375,1.375,0,0,1-.319,1.754l-3.049,2.571c.079.319.12.638.179.977a15.371,15.371,0,0,1,0,3.826c-.06.319-.1.658-.179.977l3.049,2.55a1.417,1.417,0,0,1,.259,1.874c-.856,1.475-1.693,2.929-2.55,4.4a1.423,1.423,0,0,1-1.735.618l-3.686-1.356a15.652,15.652,0,0,1-2.372,1.714,15.143,15.143,0,0,1-2.651,1.2L60.428,73.8a1.41,1.41,0,0,1-1.394,1.155h-5.2a1.433,1.433,0,0,1-1.395-1.215l-.678-3.847a15.732,15.732,0,0,1-2.63-1.2,14.682,14.682,0,0,1-2.371-1.714L43.01,68.335a1.372,1.372,0,0,1-1.714-.678c-.857-1.474-1.714-2.949-2.571-4.444a1.406,1.406,0,0,1,.319-1.773l3.03-2.55c-.06-.319-.12-.658-.16-.977a15.371,15.371,0,0,1,0-3.826c.04-.339.1-.657.16-.977l-3.03-2.551a1.418,1.418,0,0,1-.259-1.874c.837-1.475,1.694-2.95,2.551-4.424a1.406,1.406,0,0,1,1.734-.6l3.687,1.356A13.568,13.568,0,0,1,49.128,43.3a15.046,15.046,0,0,1,2.63-1.2l.7-3.906a1.407,1.407,0,0,1,1.375-1.157h5.2a1.384,1.384,0,0,1,1.394,1.216Zm1.255,3.627a11.79,11.79,0,0,0-2.789-1.156,1.406,1.406,0,0,1-1.076-1.136l-.638-3.587H55.026l-.637,3.587a1.421,1.421,0,0,1-1.016,1.116,12.418,12.418,0,0,0-2.85,1.176,12.286,12.286,0,0,0-2.431,1.853,1.416,1.416,0,0,1-1.494.359L43.169,46.69l-1.434,2.451,2.81,2.351A1.426,1.426,0,0,1,45,52.927a10.223,10.223,0,0,0-.3,1.515A9.741,9.741,0,0,0,44.6,56a9.418,9.418,0,0,0,.1,1.535,12.984,12.984,0,0,0,.278,1.475,1.391,1.391,0,0,1-.438,1.474l-2.79,2.352c.458.817.937,1.654,1.415,2.471L46.6,64.049a1.443,1.443,0,0,1,1.474.319,11.861,11.861,0,0,0,2.451,1.894,11.158,11.158,0,0,0,2.791,1.155,1.406,1.406,0,0,1,1.076,1.136l.637,3.587h2.831l.638-3.587a1.421,1.421,0,0,1,1.017-1.117,12.431,12.431,0,0,0,2.849-1.175,12.121,12.121,0,0,0,2.412-1.854,1.388,1.388,0,0,1,1.495-.359L69.715,65.3c.479-.817.937-1.634,1.415-2.471L68.339,60.48a1.393,1.393,0,0,1-.458-1.415,10.467,10.467,0,0,0,.3-1.535A12.429,12.429,0,0,0,68.28,56a12.166,12.166,0,0,0-.378-3.009,1.4,1.4,0,0,1,.438-1.495l2.791-2.351c-.458-.817-.937-1.634-1.415-2.451l-3.447,1.256a1.388,1.388,0,0,1-1.455-.339,12.59,12.59,0,0,0-2.453-1.872Zm-5.919,1.873A8.369,8.369,0,1,1,50.5,50.058,8.424,8.424,0,0,1,56.442,47.607Zm3.946,4.444A5.581,5.581,0,1,0,62.022,56,5.555,5.555,0,0,0,60.388,52.052Z" transform="translate(-11.442 -10.998)" fill="#b13e8d"/>
  <path id="_x33_" d="M4.225,73.1H16.78A4.237,4.237,0,0,1,21.006,77.3V89.879a4.237,4.237,0,0,1-4.226,4.2H4.225A4.236,4.236,0,0,1,0,89.879V77.3A4.236,4.236,0,0,1,4.225,73.1Zm12.555,2.81H4.225A1.4,1.4,0,0,0,2.81,77.3V89.879a1.4,1.4,0,0,0,1.415,1.395H16.78A1.4,1.4,0,0,0,18.2,89.879V77.3A1.4,1.4,0,0,0,16.78,75.908Z" transform="translate(0 -21.701)" fill="#b13e8d"/>
  <path id="_x32_" d="M102.331,25.027h12.575a4.253,4.253,0,0,1,4.225,4.224V41.827a4.235,4.235,0,0,1-4.225,4.2H102.331a4.218,4.218,0,0,1-4.2-4.2V29.252a4.235,4.235,0,0,1,4.2-4.225Zm12.575,2.81H102.331a1.4,1.4,0,0,0-1.394,1.415V41.827a1.386,1.386,0,0,0,1.394,1.4h12.575a1.4,1.4,0,0,0,1.415-1.4V29.252a1.421,1.421,0,0,0-1.415-1.415Z" transform="translate(-29.131 -7.43)" fill="#b13e8d"/>
  <path id="_x31_" d="M4.225,0H16.78a4.253,4.253,0,0,1,4.226,4.224V16.78a4.254,4.254,0,0,1-4.226,4.225H4.225A4.253,4.253,0,0,1,0,16.78V4.224A4.253,4.253,0,0,1,4.225,0ZM16.78,2.81H4.225A1.42,1.42,0,0,0,2.81,4.224V16.78a1.42,1.42,0,0,0,1.415,1.415H16.78A1.42,1.42,0,0,0,18.2,16.78V4.224A1.42,1.42,0,0,0,16.78,2.81Z" fill="#b13e8d"/>
</svg>
