<svg xmlns="http://www.w3.org/2000/svg" xmlns:xlink="http://www.w3.org/1999/xlink" width="190" height="112" viewBox="0 0 190 112">
  <defs>
    <linearGradient id="linear-gradient" x1="0.5" x2="0.5" y2="1" gradientUnits="objectBoundingBox">
      <stop offset="0" stop-color="#f7ca2e" stop-opacity="0"/>
      <stop offset="0.091" stop-color="#f7ca2e" stop-opacity="0.129"/>
      <stop offset="0.283" stop-color="#f7ca2e" stop-opacity="0.388"/>
      <stop offset="0.465" stop-color="#f7ca2e" stop-opacity="0.612"/>
      <stop offset="0.633" stop-color="#f7ca2e" stop-opacity="0.78"/>
      <stop offset="0.784" stop-color="#f7ca2e" stop-opacity="0.902"/>
      <stop offset="0.911" stop-color="#f7ca2e" stop-opacity="0.969"/>
      <stop offset="1" stop-color="#f7ca2e"/>
    </linearGradient>
    <linearGradient id="linear-gradient-2" x1="0.5" x2="0.5" y2="1" gradientUnits="objectBoundingBox">
      <stop offset="0" stop-color="#b13e8d" stop-opacity="0"/>
      <stop offset="0.091" stop-color="#b13e8d" stop-opacity="0.129"/>
      <stop offset="0.283" stop-color="#b13e8d" stop-opacity="0.388"/>
      <stop offset="0.465" stop-color="#b13e8d" stop-opacity="0.612"/>
      <stop offset="0.633" stop-color="#b13e8d" stop-opacity="0.78"/>
      <stop offset="0.784" stop-color="#b13e8d"/>
      <stop offset="0.911" stop-color="#b13e8d" stop-opacity="0.969"/>
      <stop offset="1" stop-color="#b13e8d"/>
    </linearGradient>
    <filter id="Rectángulo_40720" x="41" y="4" width="108" height="108" filterUnits="userSpaceOnUse">
      <feOffset dy="3" input="SourceAlpha"/>
      <feGaussianBlur stdDeviation="3" result="blur"/>
      <feFlood flood-opacity="0.161"/>
      <feComposite operator="in" in2="blur"/>
      <feComposite in="SourceGraphic"/>
    </filter>
  </defs>
  <g id="Grupo_136182" data-name="Grupo 136182" transform="translate(-180 -1627)">
    <g id="Grupo_128321" data-name="Grupo 128321" transform="translate(0 1228)">
      <rect id="Rectángulo_40586" data-name="Rectángulo 40586" width="190" height="20" transform="translate(180 444)" fill="none"/>
      <g id="Grupo_108405" data-name="Grupo 108405" transform="translate(209.5 463)">
        <path id="Rectángulo_5242" data-name="Rectángulo 5242" d="M0,0H12a0,0,0,0,1,0,0V43.333a3,3,0,0,1-3,3H3a3,3,0,0,1-3-3V0A0,0,0,0,1,0,0Z" transform="translate(0 0)" fill="url(#linear-gradient)"/>
      </g>
      <g id="Grupo_108406" data-name="Grupo 108406" transform="translate(340 451) rotate(180)">
        <path id="Rectángulo_5242-2" data-name="Rectángulo 5242" d="M0,0H12a0,0,0,0,1,0,0V49a3,3,0,0,1-3,3H3a3,3,0,0,1-3-3V0A0,0,0,0,1,0,0Z" transform="translate(0 0)" fill="url(#linear-gradient-2)"/>
      </g>
      <g transform="matrix(1, 0, 0, 1, 180, 399)" filter="url(#Rectángulo_40720)">
        <path id="Rectángulo_40720-2" data-name="Rectángulo 40720" d="M10,0H80A10,10,0,0,1,90,10V90a0,0,0,0,1,0,0H10A10,10,0,0,1,0,80V10A10,10,0,0,1,10,0Z" transform="translate(50 10)" fill="#f6f6f6"/>
      </g>
    </g>
    <g id="equilibrar" transform="translate(245.467 1650)">
      <path id="Trazado_195710" data-name="Trazado 195710" d="M10.976,42.96h.054a4.007,4.007,0,0,0-.048-8.014h-.054a4.007,4.007,0,0,0,.048,8.014ZM9.541,37.552a2,2,0,0,1,1.412-.606h.027A2.008,2.008,0,0,1,11,40.961a2.178,2.178,0,0,1-1.426-.569,2.009,2.009,0,0,1-.036-2.84Z" fill="#6836bf"/>
      <path id="Trazado_195711" data-name="Trazado 195711" d="M2.046,41.91h.013l1.3-.017q.128.334.282.657l-.9.927a1,1,0,0,0,.018,1.414L5.322,47.4a1.036,1.036,0,0,0,.711.284.994.994,0,0,0,.7-.3l.9-.927c.218.1.439.186.665.265l.016,1.295a1,1,0,0,0,1,.988h.013l3.591-.046a1,1,0,0,0,.987-1.013l-.017-1.295c.224-.084.442-.178.657-.281l.927.9a1.045,1.045,0,0,0,.711.284.994.994,0,0,0,.7-.3L19.4,44.678a1,1,0,0,0-.018-1.415l-.928-.9c.1-.217.187-.439.265-.664l1.3-.017A1,1,0,0,0,21,40.666l-.046-3.59a.988.988,0,0,0-1.013-.987l-1.3.017q-.127-.334-.282-.657l.9-.927a1,1,0,0,0-.018-1.414L16.677,30.6a1,1,0,0,0-1.414.018l-.9.927c-.218-.1-.439-.186-.665-.265l-.016-1.3A1,1,0,0,0,12.666,29l-3.591.046a1,1,0,0,0-.987,1.013l.017,1.3c-.224.084-.442.178-.657.281l-.927-.9a1.007,1.007,0,0,0-.711-.284.994.994,0,0,0-.7.3L2.6,33.322a1,1,0,0,0,.018,1.415l.928.9c-.1.217-.187.439-.265.664l-1.295.017A1,1,0,0,0,1,37.332l.046,3.591a1,1,0,0,0,1,.987Zm2-3.617A1,1,0,0,0,5,37.529a6.1,6.1,0,0,1,.637-1.6,1,1,0,0,0-.17-1.213L4.732,34l1.11-1.14.738.72a1,1,0,0,0,1.219.138,6.169,6.169,0,0,1,1.579-.678,1,1,0,0,0,.737-.978L10.1,31.032l1.591-.021.013,1.031a1,1,0,0,0,.763.959,6.13,6.13,0,0,1,1.6.637,1,1,0,0,0,1.214-.169l.72-.738,1.139,1.11-.719.738a1,1,0,0,0-.139,1.217,6.161,6.161,0,0,1,.678,1.58,1,1,0,0,0,.978.738l1.031-.013.021,1.591-1.031.013a1,1,0,0,0-.959.764,6.1,6.1,0,0,1-.637,1.6,1,1,0,0,0,.17,1.213L17.27,44l-1.11,1.14-.738-.72a1,1,0,0,0-1.219-.138,6.169,6.169,0,0,1-1.579.678,1,1,0,0,0-.737.978l.013,1.031-1.591.021L10.3,45.956A1,1,0,0,0,9.533,45a6.13,6.13,0,0,1-1.6-.637,1,1,0,0,0-1.214.169L6,45.267l-1.139-1.11.719-.738A1,1,0,0,0,5.721,42.2a6.161,6.161,0,0,1-.678-1.58,1.009,1.009,0,0,0-.978-.738L3.034,39.9l-.021-1.591Z" fill="#6836bf"/>
      <path id="Trazado_195712" data-name="Trazado 195712" d="M7.836,15.986,10,16.347V28h2V16.68l13,2.167V50H21a1,1,0,0,0-.98.8l-2,10A1,1,0,0,0,19,62H45a1,1,0,0,0,.98-1.2l-2-10A1,1,0,0,0,43,50H39V18.847L52,16.68V29h2V16.347l2.164-.361A1,1,0,0,0,57,15V11a1,1,0,0,0-1.083-1L36.791,11.6a6,6,0,1,0-9.582,0L8.083,10A1,1,0,0,0,7,11v4A1,1,0,0,0,7.836,15.986ZM43.78,60H20.22l1.6-8H42.181ZM28,8a4,4,0,1,1,4.192,3.981L32,12l-.192-.016A4,4,0,0,1,28,8ZM9,12.087l22.15,1.846a6.069,6.069,0,0,0,.743.062l.024,0h.016c.022,0,.044,0,.067,0s.045,0,.068,0h.016l.024,0a6.069,6.069,0,0,0,.743-.062L55,12.087v2.066L37.836,17.014A1,1,0,0,0,37,18V50H33V32H31V50H27V18a1,1,0,0,0-.836-.986L9,14.153Z" fill="#6836bf"/>
      <path id="Trazado_195713" data-name="Trazado 195713" d="M58.918,29.142A6.2,6.2,0,0,0,53,31.078a6.2,6.2,0,0,0-5.918-1.936A5.141,5.141,0,0,0,43,34.449c0,5.6,7.228,10.894,9.442,12.381a1,1,0,0,0,1.116,0C55.772,45.342,63,40.052,63,34.449a5.141,5.141,0,0,0-4.082-5.307ZM53,44.785c-2.174-1.538-8-6.057-8-10.336a3.146,3.146,0,0,1,2.519-3.355A3.937,3.937,0,0,1,48.374,31,4.074,4.074,0,0,1,52.1,33.323a1,1,0,0,0,1.808,0,4.11,4.11,0,0,1,4.577-2.229A3.146,3.146,0,0,1,61,34.449c0,4.279-5.826,8.8-8,10.336Z" fill="#6836bf"/>
    </g>
  </g>
</svg>
