<svg id="punto-de-encuentro" xmlns="http://www.w3.org/2000/svg" width="90" height="90" viewBox="0 0 90 90">
  <g id="Grupo_137064" data-name="Grupo 137064" transform="translate(31.304)">
    <g id="Grupo_137063" data-name="Grupo 137063">
      <path id="Trazado_195745" data-name="Trazado 195745" d="M154.817,12.312a1.954,1.954,0,0,0-2.767,0l-8.4,8.4V1.957a1.957,1.957,0,1,0-3.913,0V20.712l-8.4-8.4a1.956,1.956,0,0,0-2.767,2.767l11.739,11.739a1.962,1.962,0,0,0,2.767,0l11.739-11.739A1.954,1.954,0,0,0,154.817,12.312Z" transform="translate(-127.998)" fill="#b13e8d"/>
    </g>
  </g>
  <g id="Grupo_137066" data-name="Grupo 137066" transform="translate(31.304 62.611)">
    <g id="Grupo_137065" data-name="Grupo 137065">
      <path id="Trazado_195746" data-name="Trazado 195746" d="M154.817,268.32l-11.737-11.737a1.938,1.938,0,0,0-.638-.425,1.962,1.962,0,0,0-2.133.425L128.572,268.32a1.956,1.956,0,1,0,2.767,2.767l8.4-8.4v18.755a1.957,1.957,0,0,0,3.913,0V262.687l8.4,8.4a1.956,1.956,0,1,0,2.767-2.767Z" transform="translate(-127.998 -256.01)" fill="#b13e8d"/>
    </g>
  </g>
  <g id="Grupo_137068" data-name="Grupo 137068" transform="translate(0 31.304)">
    <g id="Grupo_137067" data-name="Grupo 137067">
      <path id="Trazado_195747" data-name="Trazado 195747" d="M27.241,140.947a1.975,1.975,0,0,0-.423-.636L15.079,128.572a1.956,1.956,0,1,0-2.767,2.767l8.4,8.4H1.957a1.957,1.957,0,0,0,0,3.913H20.712l-8.4,8.4a1.956,1.956,0,1,0,2.767,2.767l11.739-11.739a1.962,1.962,0,0,0,.423-2.131Z" transform="translate(0 -127.998)" fill="#b13e8d"/>
    </g>
  </g>
  <g id="Grupo_137070" data-name="Grupo 137070" transform="translate(62.611 31.304)">
    <g id="Grupo_137069" data-name="Grupo 137069">
      <path id="Trazado_195748" data-name="Trazado 195748" d="M281.442,139.738H262.687l8.4-8.4a1.956,1.956,0,1,0-2.767-2.767l-11.739,11.739a1.962,1.962,0,0,0,0,2.767l11.739,11.739a1.956,1.956,0,1,0,2.767-2.767l-8.4-8.4h18.755a1.957,1.957,0,1,0,0-3.913Z" transform="translate(-256.01 -127.998)" fill="#b13e8d"/>
    </g>
  </g>
  <g id="Grupo_137072" data-name="Grupo 137072" transform="translate(35.217 35.217)">
    <g id="Grupo_137071" data-name="Grupo 137071">
      <path id="Trazado_195749" data-name="Trazado 195749" d="M153.783,144a9.783,9.783,0,1,0,9.783,9.783A9.794,9.794,0,0,0,153.783,144Zm0,15.652a5.87,5.87,0,1,1,5.87-5.87A5.877,5.877,0,0,1,153.783,159.652Z" transform="translate(-144 -144)" fill="#b13e8d"/>
    </g>
  </g>
</svg>
