<svg xmlns="http://www.w3.org/2000/svg" xmlns:xlink="http://www.w3.org/1999/xlink" width="601.806" height="601.808" viewBox="0 0 601.806 601.808">
  <defs>
    <filter id="Trazado_196312" x="0" y="0" width="601.806" height="601.808" filterUnits="userSpaceOnUse">
      <feOffset dy="3" input="SourceAlpha"/>
      <feGaussianBlur stdDeviation="3" result="blur"/>
      <feFlood flood-opacity="0.161"/>
      <feComposite operator="in" in2="blur"/>
      <feComposite in="SourceGraphic"/>
    </filter>
    <filter id="Trazado_196314" x="133.538" y="16.774" width="330.73" height="187.051" filterUnits="userSpaceOnUse">
      <feOffset dx="-2" dy="3" input="SourceAlpha"/>
      <feGaussianBlur stdDeviation="2" result="blur-2"/>
      <feFlood flood-color="#262a30" flood-opacity="0.2"/>
      <feComposite operator="in" in2="blur-2"/>
      <feComposite in="SourceGraphic"/>
    </filter>
    <filter id="Elipse_6102" x="259.35" y="157.182" width="79.105" height="79.105" filterUnits="userSpaceOnUse">
      <feOffset dx="-2" dy="3" input="SourceAlpha"/>
      <feGaussianBlur stdDeviation="1" result="blur-3"/>
      <feFlood flood-color="#262a30" flood-opacity="0.2"/>
      <feComposite operator="in" in2="blur-3"/>
      <feComposite in="SourceGraphic"/>
    </filter>
    <filter id="Trazado_196315" x="297.986" y="352.53" width="269.907" height="232.504" filterUnits="userSpaceOnUse">
      <feOffset dx="-2" dy="3" input="SourceAlpha"/>
      <feGaussianBlur stdDeviation="2" result="blur-4"/>
      <feFlood flood-color="#262a30" flood-opacity="0.2"/>
      <feComposite operator="in" in2="blur-4"/>
      <feComposite in="SourceGraphic"/>
    </filter>
    <filter id="Trazado_196316" x="319.598" y="342.607" width="79.105" height="79.105" filterUnits="userSpaceOnUse">
      <feOffset dx="-2" dy="3" input="SourceAlpha"/>
      <feGaussianBlur stdDeviation="1" result="blur-5"/>
      <feFlood flood-color="#262a30" flood-opacity="0.2"/>
      <feComposite operator="in" in2="blur-5"/>
      <feComposite in="SourceGraphic"/>
    </filter>
    <filter id="Trazado_196317" x="29.914" y="352.53" width="269.907" height="232.504" filterUnits="userSpaceOnUse">
      <feOffset dx="-2" dy="3" input="SourceAlpha"/>
      <feGaussianBlur stdDeviation="2" result="blur-6"/>
      <feFlood flood-color="#262a30" flood-opacity="0.2"/>
      <feComposite operator="in" in2="blur-6"/>
      <feComposite in="SourceGraphic"/>
    </filter>
    <filter id="Trazado_196318" x="199.102" y="342.607" width="79.105" height="79.105" filterUnits="userSpaceOnUse">
      <feOffset dx="-2" dy="3" input="SourceAlpha"/>
      <feGaussianBlur stdDeviation="1" result="blur-7"/>
      <feFlood flood-color="#262a30" flood-opacity="0.2"/>
      <feComposite operator="in" in2="blur-7"/>
      <feComposite in="SourceGraphic"/>
    </filter>
    <filter id="Trazado_196319" x="384.307" y="72.922" width="198.757" height="315.14" filterUnits="userSpaceOnUse">
      <feOffset dx="-2" dy="3" input="SourceAlpha"/>
      <feGaussianBlur stdDeviation="2" result="blur-8"/>
      <feFlood flood-color="#262a30" flood-opacity="0.2"/>
      <feComposite operator="in" in2="blur-8"/>
      <feComposite in="SourceGraphic"/>
    </filter>
    <filter id="Elipse_6103" x="342.912" y="214.085" width="106.95" height="106.95" filterUnits="userSpaceOnUse">
      <feOffset dx="-2" dy="3" input="SourceAlpha"/>
      <feGaussianBlur stdDeviation="1" result="blur-9"/>
      <feFlood flood-color="#262a30" flood-opacity="0.2"/>
      <feComposite operator="in" in2="blur-9"/>
      <feComposite in="SourceGraphic"/>
    </filter>
    <filter id="Trazado_196320" x="14.742" y="72.922" width="198.758" height="315.14" filterUnits="userSpaceOnUse">
      <feOffset dx="-2" dy="3" input="SourceAlpha"/>
      <feGaussianBlur stdDeviation="2" result="blur-10"/>
      <feFlood flood-color="#262a30" flood-opacity="0.2"/>
      <feComposite operator="in" in2="blur-10"/>
      <feComposite in="SourceGraphic"/>
    </filter>
    <filter id="Trazado_196321" x="161.867" y="228.008" width="79.104" height="79.104" filterUnits="userSpaceOnUse">
      <feOffset dx="-2" dy="3" input="SourceAlpha"/>
      <feGaussianBlur stdDeviation="1" result="blur-11"/>
      <feFlood flood-color="#262a30" flood-opacity="0.2"/>
      <feComposite operator="in" in2="blur-11"/>
      <feComposite in="SourceGraphic"/>
    </filter>
    <clipPath id="clip-path">
      <path id="path1812" d="M0-682.665H59.669V-623H0Z" transform="translate(0 682.665)"/>
    </clipPath>
    <clipPath id="clip-path-3">
      <path id="path954" d="M0-682.665H62.239v62.239H0Z" transform="translate(0 682.665)"/>
    </clipPath>
  </defs>
  <g id="Grupo_139235" data-name="Grupo 139235" transform="translate(-499.098 -4459.92)">
    <g id="Grupo_139199" data-name="Grupo 139199" transform="translate(10009.791 11165.84)">
      <g transform="matrix(1, 0, 0, 1, -9510.69, -6705.92)" filter="url(#Trazado_196312)">
        <path id="Trazado_196312-2" data-name="Trazado 196312" d="M723.669,35.4c-161.216,0-291.9,130.69-291.9,291.9s130.688,291.9,291.9,291.9,291.9-130.69,291.9-291.9S884.882,35.4,723.669,35.4Zm0,386.908a95,95,0,1,1,95-95A95,95,0,0,1,723.669,422.308Z" transform="translate(-422.77 -29.4)" fill="#fff"/>
      </g>
      <path id="Trazado_196313" data-name="Trazado 196313" d="M712.091,120.965a168.413,168.413,0,0,0-186.035-.032C577.718,170.552,660.416,170.562,712.091,120.965Z" transform="translate(-9828.864 -6671.503)" fill="#fff"/>
      <g transform="matrix(1, 0, 0, 1, -9510.69, -6705.92)" filter="url(#Trazado_196314)">
        <path id="Trazado_196314-2" data-name="Trazado 196314" d="M762.938,161.458,813.331,92.1a278.2,278.2,0,0,0-318.73,0l50.393,69.359C598.782,235.489,709.149,235.489,762.938,161.458Z" transform="translate(-353.06 -22.16)" fill="#f7ca18"/>
      </g>
      <g transform="matrix(1, 0, 0, 1, -9510.69, -6705.92)" filter="url(#Elipse_6102)">
        <circle id="Elipse_6102-2" data-name="Elipse 6102" cx="36.552" cy="36.552" r="36.552" transform="translate(264.35 157.18)" fill="#fff"/>
      </g>
      <g transform="matrix(1, 0, 0, 1, -9510.69, -6705.92)" filter="url(#Trazado_196315)">
        <path id="Trazado_196315-2" data-name="Trazado 196315" d="M572.565,335.908v85.708c119.619-2.145,220.794-79.785,257.907-187.3L748.885,207.8C661.857,179.526,572.565,244.4,572.565,335.908Z" transform="translate(-266.58 154.42)" fill="#7fc733"/>
      </g>
      <g transform="matrix(1, 0, 0, 1, -9510.69, -6705.92)" filter="url(#Trazado_196316)">
        <path id="Trazado_196316-2" data-name="Trazado 196316" d="M588.372,253.02a36.55,36.55,0,1,1,51.053,8.087A36.551,36.551,0,0,1,588.372,253.02Z" transform="translate(-256.79 147.62)" fill="#fff"/>
      </g>
      <g transform="matrix(1, 0, 0, 1, -9510.69, -6705.92)" filter="url(#Trazado_196317)">
        <path id="Trazado_196317-2" data-name="Trazado 196317" d="M527.06,207.8l-81.587,26.509c37.113,107.518,138.29,185.158,257.907,187.3V335.908C703.38,244.4,614.088,179.526,527.06,207.8Z" transform="translate(-407.56 154.42)" fill="#b13e8d"/>
      </g>
      <g transform="matrix(1, 0, 0, 1, -9510.69, -6705.92)" filter="url(#Trazado_196318)">
        <path id="Trazado_196318-2" data-name="Trazado 196318" d="M531.245,210.054a36.55,36.55,0,1,1,8.087,51.053A36.549,36.549,0,0,1,531.245,210.054Z" transform="translate(-320.16 147.62)" fill="#fff"/>
      </g>
      <g transform="matrix(1, 0, 0, 1, -9510.69, -6705.92)" filter="url(#Trazado_196319)">
        <path id="Trazado_196319-2" data-name="Trazado 196319" d="M706.631,345.181l81.584,26.509A278.479,278.479,0,0,0,689.671,68.55L639.282,137.9C585.5,211.936,619.6,316.9,706.631,345.181Z" transform="translate(-221.18 7.37)" fill="#6836bf"/>
      </g>
      <g transform="matrix(1, 0, 0, 1, -9510.69, -6705.92)" filter="url(#Elipse_6103)">
        <circle id="Elipse_6103-2" data-name="Elipse 6103" cx="36.542" cy="36.542" r="36.542" transform="matrix(0.54, -0.84, 0.84, 0.54, 347.91, 275.65)" fill="#fff"/>
      </g>
      <g transform="matrix(1, 0, 0, 1, -9510.69, -6705.92)" filter="url(#Trazado_196320)">
        <path id="Trazado_196320-2" data-name="Trazado 196320" d="M599.245,137.9,548.856,68.55a278.479,278.479,0,0,0-98.545,303.14L531.9,345.181C618.926,316.9,653.033,211.936,599.245,137.9Z" transform="translate(-415.54 7.37)" fill="#421d83"/>
      </g>
      <g transform="matrix(1, 0, 0, 1, -9510.69, -6705.92)" filter="url(#Trazado_196321)">
        <path id="Trazado_196321-2" data-name="Trazado 196321" d="M554.453,142.452a36.542,36.542,0,1,1-46.045,23.461A36.541,36.541,0,0,1,554.453,142.452Z" transform="translate(-339.74 87.35)" fill="#fff"/>
      </g>
    </g>
    <path id="Trazado_196421" data-name="Trazado 196421" d="M16.7,13.454H11.641v3.428h5.941V19H9V6.2h8.561V8.339H11.641v3.05H16.7Zm7.409,2.918a.818.818,0,0,0-.461-.734,5.241,5.241,0,0,0-1.481-.479q-3.393-.712-3.393-2.883a2.613,2.613,0,0,1,1.05-2.114,4.237,4.237,0,0,1,2.747-.848,4.56,4.56,0,0,1,2.9.853,2.687,2.687,0,0,1,1.085,2.215h-2.54a1.229,1.229,0,0,0-.352-.9,1.488,1.488,0,0,0-1.1-.356,1.52,1.52,0,0,0-.993.29.916.916,0,0,0-.352.738.783.783,0,0,0,.4.681,4.114,4.114,0,0,0,1.349.448,11.019,11.019,0,0,1,1.6.426,2.628,2.628,0,0,1,2.013,2.558,2.481,2.481,0,0,1-1.116,2.1,4.815,4.815,0,0,1-2.883.8,5.029,5.029,0,0,1-2.123-.426,3.561,3.561,0,0,1-1.455-1.169,2.716,2.716,0,0,1-.527-1.6h2.408a1.326,1.326,0,0,0,.5,1.037,1.987,1.987,0,0,0,1.248.36,1.839,1.839,0,0,0,1.1-.277A.861.861,0,0,0,24.112,16.372Zm7.146-9.22V9.49h1.626v1.863H31.258V16.1a1.133,1.133,0,0,0,.2.756,1.015,1.015,0,0,0,.773.229,4.051,4.051,0,0,0,.747-.062v1.925a5.229,5.229,0,0,1-1.538.229,2.425,2.425,0,0,1-2.725-2.7V11.354H27.329V9.49h1.389V7.152Zm8.385,4.72a6.9,6.9,0,0,0-.914-.07,1.86,1.86,0,0,0-1.89.976V19H34.3V9.49h2.4l.07,1.134a2.354,2.354,0,0,1,2.118-1.31,2.662,2.662,0,0,1,.791.114ZM46.111,19a2.821,2.821,0,0,1-.255-.853,3.073,3.073,0,0,1-2.4,1.028,3.376,3.376,0,0,1-2.316-.809,2.6,2.6,0,0,1-.918-2.039,2.687,2.687,0,0,1,1.121-2.32,5.529,5.529,0,0,1,3.239-.817h1.169v-.545a1.567,1.567,0,0,0-.338-1.055,1.331,1.331,0,0,0-1.068-.4,1.513,1.513,0,0,0-1.006.308,1.045,1.045,0,0,0-.365.844h-2.54a2.551,2.551,0,0,1,.51-1.529,3.37,3.37,0,0,1,1.441-1.1,5.253,5.253,0,0,1,2.092-.4,4.15,4.15,0,0,1,2.791.883A3.09,3.09,0,0,1,48.3,12.681V16.8a4.546,4.546,0,0,0,.378,2.048V19Zm-2.1-1.767a2.188,2.188,0,0,0,1.037-.25,1.645,1.645,0,0,0,.7-.672V14.676H44.8q-1.907,0-2.03,1.318l-.009.149a1.017,1.017,0,0,0,.334.782A1.3,1.3,0,0,0,44.011,17.233ZM53.292,7.152V9.49h1.626v1.863H53.292V16.1a1.133,1.133,0,0,0,.2.756,1.015,1.015,0,0,0,.773.229,4.051,4.051,0,0,0,.747-.062v1.925a5.229,5.229,0,0,1-1.538.229,2.425,2.425,0,0,1-2.725-2.7V11.354H49.363V9.49h1.389V7.152ZM60.71,19.176A4.668,4.668,0,0,1,57.3,17.893a4.561,4.561,0,0,1-1.314-3.419v-.246a5.745,5.745,0,0,1,.554-2.562,4.064,4.064,0,0,1,1.569-1.74,4.4,4.4,0,0,1,2.316-.611,3.947,3.947,0,0,1,3.072,1.23,5,5,0,0,1,1.121,3.489v1.037H58.565a2.36,2.36,0,0,0,.743,1.494,2.245,2.245,0,0,0,1.569.563,2.742,2.742,0,0,0,2.294-1.063l1.248,1.4a3.813,3.813,0,0,1-1.547,1.261A5.075,5.075,0,0,1,60.71,19.176Zm-.29-7.813a1.587,1.587,0,0,0-1.226.512,2.651,2.651,0,0,0-.6,1.466h3.533v-.2a1.891,1.891,0,0,0-.457-1.311A1.638,1.638,0,0,0,60.42,11.362Zm5.273,2.813a5.573,5.573,0,0,1,1.042-3.524,3.375,3.375,0,0,1,2.808-1.336,2.96,2.96,0,0,1,2.435,1.072l.105-.9h2.3v9.193a4.064,4.064,0,0,1-.567,2.171,3.641,3.641,0,0,1-1.6,1.406,5.608,5.608,0,0,1-2.408.483,5.215,5.215,0,0,1-2.039-.417,3.619,3.619,0,0,1-1.5-1.077L67.4,19.7a2.975,2.975,0,0,0,2.3,1.063,2.178,2.178,0,0,0,1.573-.541,2.027,2.027,0,0,0,.563-1.534v-.51a2.938,2.938,0,0,1-2.312.993,3.366,3.366,0,0,1-2.773-1.34,5.572,5.572,0,0,1-1.059-3.555Zm2.54.189a3.47,3.47,0,0,0,.519,2.029,1.65,1.65,0,0,0,1.424.735,1.764,1.764,0,0,0,1.661-.871V12.251a1.76,1.76,0,0,0-1.644-.871,1.66,1.66,0,0,0-1.437.748A3.911,3.911,0,0,0,68.233,14.364ZM79.018,19H76.469V9.49h2.549Zm-2.7-11.971a1.251,1.251,0,0,1,.382-.94,1.648,1.648,0,0,1,2.079,0,1.244,1.244,0,0,1,.387.94,1.247,1.247,0,0,1-.391.949,1.629,1.629,0,0,1-2.065,0A1.247,1.247,0,0,1,76.319,7.029ZM86.62,19a2.821,2.821,0,0,1-.255-.853,3.073,3.073,0,0,1-2.4,1.028,3.376,3.376,0,0,1-2.316-.809,2.6,2.6,0,0,1-.918-2.039,2.687,2.687,0,0,1,1.121-2.32,5.529,5.529,0,0,1,3.239-.817H86.26v-.545a1.567,1.567,0,0,0-.338-1.055,1.331,1.331,0,0,0-1.068-.4,1.513,1.513,0,0,0-1.006.308,1.045,1.045,0,0,0-.365.844h-2.54a2.551,2.551,0,0,1,.51-1.529,3.37,3.37,0,0,1,1.441-1.1,5.253,5.253,0,0,1,2.092-.4,4.15,4.15,0,0,1,2.791.883,3.09,3.09,0,0,1,1.033,2.483V16.8a4.546,4.546,0,0,0,.378,2.048V19Zm-2.1-1.767a2.188,2.188,0,0,0,1.037-.25,1.645,1.645,0,0,0,.7-.672V14.676h-.949q-1.907,0-2.03,1.318l-.009.149a1.017,1.017,0,0,0,.334.782A1.3,1.3,0,0,0,84.52,17.233Zm10.327-3.059a5.731,5.731,0,0,1,1-3.542,3.237,3.237,0,0,1,2.729-1.318,2.913,2.913,0,0,1,2.294,1.037V5.5h2.549V19h-2.294L101,17.989a2.989,2.989,0,0,1-2.443,1.187,3.228,3.228,0,0,1-2.694-1.323A5.916,5.916,0,0,1,94.847,14.175Zm2.54.189a3.754,3.754,0,0,0,.466,2.051,1.517,1.517,0,0,0,1.354.713,1.7,1.7,0,0,0,1.661-.995V12.375a1.675,1.675,0,0,0-1.644-.995Q97.387,11.38,97.387,14.364Zm12.375,4.812a4.668,4.668,0,0,1-3.406-1.283,4.561,4.561,0,0,1-1.314-3.419v-.246a5.745,5.745,0,0,1,.554-2.562,4.064,4.064,0,0,1,1.569-1.74,4.4,4.4,0,0,1,2.316-.611,3.947,3.947,0,0,1,3.072,1.23,5,5,0,0,1,1.121,3.489v1.037h-6.056a2.36,2.36,0,0,0,.743,1.494,2.245,2.245,0,0,0,1.569.563,2.742,2.742,0,0,0,2.294-1.063l1.248,1.4a3.813,3.813,0,0,1-1.547,1.261A5.075,5.075,0,0,1,109.762,19.176Zm-.29-7.813a1.587,1.587,0,0,0-1.226.512,2.651,2.651,0,0,0-.6,1.466h3.533v-.2a1.891,1.891,0,0,0-.457-1.311A1.638,1.638,0,0,0,109.472,11.362ZM33.147,39.176a4.668,4.668,0,0,1-3.406-1.283,4.561,4.561,0,0,1-1.314-3.419v-.246a5.745,5.745,0,0,1,.554-2.562,4.064,4.064,0,0,1,1.569-1.74,4.4,4.4,0,0,1,2.316-.611,3.947,3.947,0,0,1,3.072,1.23,5,5,0,0,1,1.121,3.489v1.037H31a2.36,2.36,0,0,0,.743,1.494,2.245,2.245,0,0,0,1.569.563,2.742,2.742,0,0,0,2.294-1.063l1.248,1.4a3.813,3.813,0,0,1-1.547,1.261A5.075,5.075,0,0,1,33.147,39.176Zm-.29-7.813a1.587,1.587,0,0,0-1.226.512,2.651,2.651,0,0,0-.6,1.466h3.533v-.2a1.891,1.891,0,0,0-.457-1.311A1.638,1.638,0,0,0,32.857,31.362Zm7.98-1.872.079,1.1a3.32,3.32,0,0,1,2.733-1.274,2.759,2.759,0,0,1,2.25.888,4.142,4.142,0,0,1,.756,2.654V39h-2.54V32.918a1.648,1.648,0,0,0-.352-1.173A1.574,1.574,0,0,0,42.6,31.38a1.747,1.747,0,0,0-1.608.914V39h-2.54V29.49ZM49.275,39V31.354H47.86V29.49h1.415v-.809a3.283,3.283,0,0,1,.918-2.483,3.557,3.557,0,0,1,2.571-.883,5.938,5.938,0,0,1,1.292.176L54.03,27.46a3.238,3.238,0,0,0-.773-.079q-1.433,0-1.433,1.345v.765h1.89v1.863h-1.89V39Zm5.361-4.843a5.64,5.64,0,0,1,.545-2.522,3.989,3.989,0,0,1,1.569-1.714,4.577,4.577,0,0,1,2.377-.606,4.33,4.33,0,0,1,3.142,1.178,4.727,4.727,0,0,1,1.358,3.2l.018.65a4.97,4.97,0,0,1-1.222,3.511,4.735,4.735,0,0,1-6.561,0,5.058,5.058,0,0,1-1.226-3.586Zm2.54.18a3.555,3.555,0,0,0,.51,2.073,1.831,1.831,0,0,0,2.9.009,3.89,3.89,0,0,0,.519-2.267,3.519,3.519,0,0,0-.519-2.06,1.686,1.686,0,0,0-1.459-.731,1.658,1.658,0,0,0-1.441.726A3.955,3.955,0,0,0,57.177,34.338Zm7.638-.18a5.684,5.684,0,0,1,1-3.542,3.261,3.261,0,0,1,2.738-1.3,2.92,2.92,0,0,1,2.435,1.169l.167-.993h2.232V42.656H70.835V38.183a2.928,2.928,0,0,1-2.3.993,3.237,3.237,0,0,1-2.707-1.318A5.963,5.963,0,0,1,64.814,34.157Zm2.54.18a3.729,3.729,0,0,0,.479,2.077,1.533,1.533,0,0,0,1.349.713,1.708,1.708,0,0,0,1.652-.933V32.26a1.694,1.694,0,0,0-1.635-.9,1.552,1.552,0,0,0-1.362.713A4.118,4.118,0,0,0,67.354,34.338Zm13.72,3.7a3.185,3.185,0,0,1-2.6,1.143,3,3,0,0,1-2.333-.879,3.752,3.752,0,0,1-.822-2.575V29.49h2.54v6.151q0,1.487,1.354,1.487a1.834,1.834,0,0,0,1.775-.9V29.49h2.549V39H81.145Zm8.754,1.143a4.668,4.668,0,0,1-3.406-1.283,4.561,4.561,0,0,1-1.314-3.419v-.246a5.745,5.745,0,0,1,.554-2.562,4.064,4.064,0,0,1,1.569-1.74,4.4,4.4,0,0,1,2.316-.611,3.947,3.947,0,0,1,3.072,1.23,5,5,0,0,1,1.121,3.489v1.037H87.684a2.36,2.36,0,0,0,.743,1.494A2.245,2.245,0,0,0,90,37.128a2.742,2.742,0,0,0,2.294-1.063l1.248,1.4a3.813,3.813,0,0,1-1.547,1.261A5.075,5.075,0,0,1,89.828,39.176Zm-.29-7.813a1.587,1.587,0,0,0-1.226.512,2.651,2.651,0,0,0-.6,1.466h3.533v-.2a1.891,1.891,0,0,0-.457-1.311A1.638,1.638,0,0,0,89.538,31.362Z" transform="translate(739 4567.219)" fill="#12263f"/>
    <path id="Trazado_196422" data-name="Trazado 196422" d="M17.428,13.454H12.366v3.428h5.941V19H9.729V6.2H18.29V8.339H12.366v3.05h5.063Zm7.409,2.918a.818.818,0,0,0-.461-.734,5.241,5.241,0,0,0-1.481-.479Q19.5,14.447,19.5,12.276a2.613,2.613,0,0,1,1.05-2.114A4.237,4.237,0,0,1,23.3,9.314a4.56,4.56,0,0,1,2.9.853,2.687,2.687,0,0,1,1.085,2.215h-2.54a1.229,1.229,0,0,0-.352-.9,1.488,1.488,0,0,0-1.1-.356,1.52,1.52,0,0,0-.993.29.916.916,0,0,0-.352.738.783.783,0,0,0,.4.681,4.114,4.114,0,0,0,1.349.448,11.019,11.019,0,0,1,1.6.426,2.628,2.628,0,0,1,2.013,2.558,2.481,2.481,0,0,1-1.116,2.1,4.815,4.815,0,0,1-2.883.8,5.029,5.029,0,0,1-2.123-.426,3.561,3.561,0,0,1-1.455-1.169,2.716,2.716,0,0,1-.527-1.6h2.408a1.326,1.326,0,0,0,.5,1.037,1.987,1.987,0,0,0,1.248.36,1.839,1.839,0,0,0,1.1-.277A.861.861,0,0,0,24.837,16.372Zm7.146-9.22V9.49h1.626v1.863H31.983V16.1a1.133,1.133,0,0,0,.2.756,1.015,1.015,0,0,0,.773.229,4.051,4.051,0,0,0,.747-.062v1.925a5.229,5.229,0,0,1-1.538.229,2.425,2.425,0,0,1-2.725-2.7V11.354H28.054V9.49h1.389V7.152Zm8.385,4.72a6.9,6.9,0,0,0-.914-.07,1.86,1.86,0,0,0-1.89.976V19h-2.54V9.49h2.4l.07,1.134a2.354,2.354,0,0,1,2.118-1.31,2.662,2.662,0,0,1,.791.114ZM46.836,19a2.821,2.821,0,0,1-.255-.853,3.073,3.073,0,0,1-2.4,1.028,3.376,3.376,0,0,1-2.316-.809,2.6,2.6,0,0,1-.918-2.039,2.687,2.687,0,0,1,1.121-2.32,5.529,5.529,0,0,1,3.239-.817h1.169v-.545a1.567,1.567,0,0,0-.338-1.055,1.331,1.331,0,0,0-1.068-.4,1.513,1.513,0,0,0-1.006.308,1.045,1.045,0,0,0-.365.844h-2.54a2.551,2.551,0,0,1,.51-1.529,3.37,3.37,0,0,1,1.441-1.1,5.253,5.253,0,0,1,2.092-.4,4.15,4.15,0,0,1,2.791.883,3.09,3.09,0,0,1,1.033,2.483V16.8a4.546,4.546,0,0,0,.378,2.048V19Zm-2.1-1.767a2.188,2.188,0,0,0,1.037-.25,1.645,1.645,0,0,0,.7-.672V14.676h-.949q-1.907,0-2.03,1.318l-.009.149a1.017,1.017,0,0,0,.334.782A1.3,1.3,0,0,0,44.736,17.233ZM54.017,7.152V9.49h1.626v1.863H54.017V16.1a1.133,1.133,0,0,0,.2.756,1.015,1.015,0,0,0,.773.229,4.051,4.051,0,0,0,.747-.062v1.925a5.229,5.229,0,0,1-1.538.229,2.425,2.425,0,0,1-2.725-2.7V11.354H50.088V9.49h1.389V7.152Zm7.418,12.023a4.668,4.668,0,0,1-3.406-1.283,4.561,4.561,0,0,1-1.314-3.419v-.246a5.745,5.745,0,0,1,.554-2.562,4.064,4.064,0,0,1,1.569-1.74,4.4,4.4,0,0,1,2.316-.611,3.947,3.947,0,0,1,3.072,1.23,5,5,0,0,1,1.121,3.489v1.037H59.291a2.36,2.36,0,0,0,.743,1.494,2.245,2.245,0,0,0,1.569.563A2.742,2.742,0,0,0,63.9,16.064l1.248,1.4A3.813,3.813,0,0,1,63.6,18.723,5.075,5.075,0,0,1,61.435,19.176Zm-.29-7.813a1.587,1.587,0,0,0-1.226.512,2.651,2.651,0,0,0-.6,1.466H62.85v-.2a1.891,1.891,0,0,0-.457-1.311A1.638,1.638,0,0,0,61.145,11.362Zm5.273,2.813A5.573,5.573,0,0,1,67.46,10.65a3.375,3.375,0,0,1,2.808-1.336A2.96,2.96,0,0,1,72.7,10.387l.105-.9h2.3v9.193a4.064,4.064,0,0,1-.567,2.171,3.641,3.641,0,0,1-1.6,1.406,5.608,5.608,0,0,1-2.408.483,5.215,5.215,0,0,1-2.039-.417A3.619,3.619,0,0,1,67,21.25L68.124,19.7a2.975,2.975,0,0,0,2.3,1.063A2.178,2.178,0,0,0,72,20.226a2.027,2.027,0,0,0,.563-1.534v-.51a2.938,2.938,0,0,1-2.312.993,3.366,3.366,0,0,1-2.773-1.34,5.572,5.572,0,0,1-1.059-3.555Zm2.54.189a3.47,3.47,0,0,0,.519,2.029,1.65,1.65,0,0,0,1.424.735,1.764,1.764,0,0,0,1.661-.871V12.251a1.76,1.76,0,0,0-1.644-.871,1.66,1.66,0,0,0-1.437.748A3.911,3.911,0,0,0,68.958,14.364ZM79.743,19H77.194V9.49h2.549Zm-2.7-11.971a1.251,1.251,0,0,1,.382-.94,1.648,1.648,0,0,1,2.079,0,1.244,1.244,0,0,1,.387.94,1.247,1.247,0,0,1-.391.949,1.629,1.629,0,0,1-2.065,0A1.247,1.247,0,0,1,77.044,7.029ZM87.345,19a2.821,2.821,0,0,1-.255-.853,3.073,3.073,0,0,1-2.4,1.028,3.376,3.376,0,0,1-2.316-.809,2.6,2.6,0,0,1-.918-2.039,2.687,2.687,0,0,1,1.121-2.32,5.529,5.529,0,0,1,3.239-.817h1.169v-.545a1.567,1.567,0,0,0-.338-1.055,1.331,1.331,0,0,0-1.068-.4,1.513,1.513,0,0,0-1.006.308,1.045,1.045,0,0,0-.365.844h-2.54a2.551,2.551,0,0,1,.51-1.529,3.37,3.37,0,0,1,1.441-1.1,5.253,5.253,0,0,1,2.092-.4A4.15,4.15,0,0,1,88.5,10.2a3.09,3.09,0,0,1,1.033,2.483V16.8a4.546,4.546,0,0,0,.378,2.048V19Zm-2.1-1.767a2.188,2.188,0,0,0,1.037-.25,1.645,1.645,0,0,0,.7-.672V14.676h-.949q-1.907,0-2.03,1.318L84,16.144a1.017,1.017,0,0,0,.334.782A1.3,1.3,0,0,0,85.245,17.233ZM40.192,34.175a5.731,5.731,0,0,1,1-3.542,3.237,3.237,0,0,1,2.729-1.318,2.913,2.913,0,0,1,2.294,1.037V25.5h2.549V39H46.467l-.123-1.011A2.989,2.989,0,0,1,43.9,39.176a3.228,3.228,0,0,1-2.694-1.323A5.916,5.916,0,0,1,40.192,34.175Zm2.54.189a3.754,3.754,0,0,0,.466,2.051,1.517,1.517,0,0,0,1.354.713,1.7,1.7,0,0,0,1.661-.995V32.375a1.675,1.675,0,0,0-1.644-.995Q42.732,31.38,42.732,34.364Zm12.375,4.812A4.668,4.668,0,0,1,51.7,37.893a4.561,4.561,0,0,1-1.314-3.419v-.246a5.745,5.745,0,0,1,.554-2.562,4.064,4.064,0,0,1,1.569-1.74,4.4,4.4,0,0,1,2.316-.611,3.947,3.947,0,0,1,3.072,1.23,5,5,0,0,1,1.121,3.489v1.037H52.962a2.36,2.36,0,0,0,.743,1.494,2.245,2.245,0,0,0,1.569.563,2.742,2.742,0,0,0,2.294-1.063l1.248,1.4a3.813,3.813,0,0,1-1.547,1.261A5.075,5.075,0,0,1,55.107,39.176Zm-.29-7.813a1.587,1.587,0,0,0-1.226.512,2.651,2.651,0,0,0-.6,1.466h3.533v-.2a1.891,1.891,0,0,0-.457-1.311A1.638,1.638,0,0,0,54.817,31.362ZM6.477,57.128a1.666,1.666,0,0,0,1.143-.387,1.355,1.355,0,0,0,.457-1.028h2.382a3.258,3.258,0,0,1-.527,1.771,3.48,3.48,0,0,1-1.419,1.248,4.442,4.442,0,0,1-1.991.444,4.129,4.129,0,0,1-3.217-1.3A5.13,5.13,0,0,1,2.126,54.3v-.167A5.071,5.071,0,0,1,3.3,50.624,4.08,4.08,0,0,1,6.5,49.314,4,4,0,0,1,9.364,50.33a3.594,3.594,0,0,1,1.094,2.7H8.077a1.745,1.745,0,0,0-.457-1.206,1.524,1.524,0,0,0-1.16-.464,1.53,1.53,0,0,0-1.34.647,3.749,3.749,0,0,0-.453,2.1v.264a3.8,3.8,0,0,0,.448,2.113A1.549,1.549,0,0,0,6.477,57.128Zm10.775-5.256a6.9,6.9,0,0,0-.914-.07,1.86,1.86,0,0,0-1.89.976V59h-2.54V49.49h2.4l.07,1.134a2.354,2.354,0,0,1,2.118-1.31,2.662,2.662,0,0,1,.791.114Zm5.6,7.3a4.668,4.668,0,0,1-3.406-1.283,4.561,4.561,0,0,1-1.314-3.419v-.246a5.745,5.745,0,0,1,.554-2.562,4.064,4.064,0,0,1,1.569-1.74,4.4,4.4,0,0,1,2.316-.611,3.947,3.947,0,0,1,3.072,1.23,5,5,0,0,1,1.121,3.489v1.037H20.707a2.36,2.36,0,0,0,.743,1.494,2.245,2.245,0,0,0,1.569.563,2.742,2.742,0,0,0,2.294-1.063l1.248,1.4a3.813,3.813,0,0,1-1.547,1.261A5.075,5.075,0,0,1,22.851,59.176Zm-.29-7.813a1.587,1.587,0,0,0-1.226.512,2.651,2.651,0,0,0-.6,1.466h3.533v-.2a1.891,1.891,0,0,0-.457-1.311A1.638,1.638,0,0,0,22.561,51.362Zm9.6,5.766a1.666,1.666,0,0,0,1.143-.387,1.355,1.355,0,0,0,.457-1.028H36.14a3.258,3.258,0,0,1-.527,1.771,3.48,3.48,0,0,1-1.419,1.248,4.442,4.442,0,0,1-1.991.444,4.129,4.129,0,0,1-3.217-1.3A5.13,5.13,0,0,1,27.808,54.3v-.167a5.071,5.071,0,0,1,1.169-3.507,4.08,4.08,0,0,1,3.208-1.31,4,4,0,0,1,2.861,1.015,3.594,3.594,0,0,1,1.094,2.7H33.758a1.745,1.745,0,0,0-.457-1.206,1.7,1.7,0,0,0-2.5.183,3.749,3.749,0,0,0-.453,2.1v.264a3.8,3.8,0,0,0,.448,2.113A1.549,1.549,0,0,0,32.159,57.128ZM40.271,59H37.722V49.49h2.549Zm-2.7-11.971a1.251,1.251,0,0,1,.382-.94,1.648,1.648,0,0,1,2.079,0,1.342,1.342,0,0,1,0,1.89,1.629,1.629,0,0,1-2.065,0A1.247,1.247,0,0,1,37.573,47.029Zm7.172,2.461.079,1.063a3.342,3.342,0,0,1,2.733-1.239,2.536,2.536,0,0,1,2.522,1.45,3.265,3.265,0,0,1,2.856-1.45,2.836,2.836,0,0,1,2.3.9,4.141,4.141,0,0,1,.756,2.711V59H53.446V52.936a1.811,1.811,0,0,0-.316-1.182,1.4,1.4,0,0,0-1.116-.374,1.585,1.585,0,0,0-1.582,1.09L50.44,59H47.9V52.944a1.789,1.789,0,0,0-.325-1.2,1.416,1.416,0,0,0-1.107-.369,1.646,1.646,0,0,0-1.564.9V59h-2.54V49.49ZM60.626,59H58.078V49.49h2.549Zm-2.7-11.971a1.251,1.251,0,0,1,.382-.94,1.648,1.648,0,0,1,2.079,0,1.342,1.342,0,0,1,0,1.89,1.629,1.629,0,0,1-2.065,0A1.247,1.247,0,0,1,57.928,47.029ZM67.1,59.176a4.668,4.668,0,0,1-3.406-1.283,4.561,4.561,0,0,1-1.314-3.419v-.246a5.745,5.745,0,0,1,.554-2.562,4.064,4.064,0,0,1,1.569-1.74,4.4,4.4,0,0,1,2.316-.611,3.947,3.947,0,0,1,3.072,1.23,5,5,0,0,1,1.121,3.489v1.037H64.951a2.36,2.36,0,0,0,.743,1.494,2.245,2.245,0,0,0,1.569.563,2.742,2.742,0,0,0,2.294-1.063l1.248,1.4a3.813,3.813,0,0,1-1.547,1.261A5.075,5.075,0,0,1,67.1,59.176Zm-.29-7.813a1.587,1.587,0,0,0-1.226.512,2.651,2.651,0,0,0-.6,1.466H68.51v-.2a1.891,1.891,0,0,0-.457-1.311A1.638,1.638,0,0,0,66.805,51.362Zm7.98-1.872.079,1.1A3.32,3.32,0,0,1,77.6,49.314a2.759,2.759,0,0,1,2.25.888,4.142,4.142,0,0,1,.756,2.654V59h-2.54V52.918a1.648,1.648,0,0,0-.352-1.173,1.574,1.574,0,0,0-1.169-.365,1.747,1.747,0,0,0-1.608.914V59H72.4V49.49ZM85.57,47.152V49.49H87.2v1.863H85.57V56.1a1.133,1.133,0,0,0,.2.756,1.015,1.015,0,0,0,.773.229,4.051,4.051,0,0,0,.747-.062v1.925a5.229,5.229,0,0,1-1.538.229,2.425,2.425,0,0,1-2.725-2.7V51.354H81.641V49.49H83.03V47.152Zm2.382,7a5.64,5.64,0,0,1,.545-2.522,3.989,3.989,0,0,1,1.569-1.714,4.577,4.577,0,0,1,2.377-.606,4.33,4.33,0,0,1,3.142,1.178,4.727,4.727,0,0,1,1.358,3.2l.018.65a4.97,4.97,0,0,1-1.222,3.511,4.735,4.735,0,0,1-6.561,0,5.058,5.058,0,0,1-1.226-3.586Zm2.54.18A3.555,3.555,0,0,0,91,56.411a1.831,1.831,0,0,0,2.9.009,3.89,3.89,0,0,0,.519-2.267,3.519,3.519,0,0,0-.519-2.06,1.686,1.686,0,0,0-1.459-.731A1.658,1.658,0,0,0,91,52.089,3.955,3.955,0,0,0,90.492,54.338Z" transform="translate(952.452 4711.824)" fill="#fff"/>
    <path id="Trazado_196423" data-name="Trazado 196423" d="M28.88,13.454H23.818v3.428h5.941V19H21.181V6.2h8.561V8.339H23.818v3.05H28.88Zm7.409,2.918a.818.818,0,0,0-.461-.734,5.241,5.241,0,0,0-1.481-.479q-3.393-.712-3.393-2.883A2.613,2.613,0,0,1,32,10.163a4.237,4.237,0,0,1,2.747-.848,4.56,4.56,0,0,1,2.9.853,2.687,2.687,0,0,1,1.085,2.215h-2.54a1.229,1.229,0,0,0-.352-.9,1.488,1.488,0,0,0-1.1-.356,1.52,1.52,0,0,0-.993.29.916.916,0,0,0-.352.738.783.783,0,0,0,.4.681,4.114,4.114,0,0,0,1.349.448,11.019,11.019,0,0,1,1.6.426,2.628,2.628,0,0,1,2.013,2.558,2.481,2.481,0,0,1-1.116,2.1,4.815,4.815,0,0,1-2.883.8,5.029,5.029,0,0,1-2.123-.426,3.561,3.561,0,0,1-1.455-1.169,2.716,2.716,0,0,1-.527-1.6h2.408a1.326,1.326,0,0,0,.5,1.037,1.987,1.987,0,0,0,1.248.36,1.839,1.839,0,0,0,1.1-.277A.861.861,0,0,0,36.29,16.372Zm7.146-9.22V9.49h1.626v1.863H43.435V16.1a1.133,1.133,0,0,0,.2.756,1.015,1.015,0,0,0,.773.229,4.051,4.051,0,0,0,.747-.062v1.925a5.229,5.229,0,0,1-1.538.229,2.425,2.425,0,0,1-2.725-2.7V11.354H39.506V9.49H40.9V7.152Zm8.385,4.72a6.9,6.9,0,0,0-.914-.07,1.86,1.86,0,0,0-1.89.976V19h-2.54V9.49h2.4l.07,1.134a2.354,2.354,0,0,1,2.118-1.31,2.662,2.662,0,0,1,.791.114ZM58.289,19a2.821,2.821,0,0,1-.255-.853,3.073,3.073,0,0,1-2.4,1.028,3.376,3.376,0,0,1-2.316-.809,2.6,2.6,0,0,1-.918-2.039,2.687,2.687,0,0,1,1.121-2.32,5.529,5.529,0,0,1,3.239-.817h1.169v-.545a1.567,1.567,0,0,0-.338-1.055,1.331,1.331,0,0,0-1.068-.4,1.513,1.513,0,0,0-1.006.308,1.045,1.045,0,0,0-.365.844h-2.54a2.551,2.551,0,0,1,.51-1.529,3.37,3.37,0,0,1,1.441-1.1,5.253,5.253,0,0,1,2.092-.4,4.15,4.15,0,0,1,2.791.883,3.09,3.09,0,0,1,1.033,2.483V16.8a4.546,4.546,0,0,0,.378,2.048V19Zm-2.1-1.767a2.188,2.188,0,0,0,1.037-.25,1.645,1.645,0,0,0,.7-.672V14.676h-.949q-1.907,0-2.03,1.318l-.009.149a1.017,1.017,0,0,0,.334.782A1.3,1.3,0,0,0,56.188,17.233ZM65.469,7.152V9.49H67.1v1.863H65.469V16.1a1.133,1.133,0,0,0,.2.756,1.015,1.015,0,0,0,.773.229,4.051,4.051,0,0,0,.747-.062v1.925a5.229,5.229,0,0,1-1.538.229,2.425,2.425,0,0,1-2.725-2.7V11.354H61.541V9.49h1.389V7.152Zm7.418,12.023a4.668,4.668,0,0,1-3.406-1.283,4.561,4.561,0,0,1-1.314-3.419v-.246a5.745,5.745,0,0,1,.554-2.562,4.064,4.064,0,0,1,1.569-1.74,4.4,4.4,0,0,1,2.316-.611,3.947,3.947,0,0,1,3.072,1.23A5,5,0,0,1,76.8,14.034v1.037H70.743a2.36,2.36,0,0,0,.743,1.494,2.245,2.245,0,0,0,1.569.563,2.742,2.742,0,0,0,2.294-1.063l1.248,1.4a3.813,3.813,0,0,1-1.547,1.261A5.075,5.075,0,0,1,72.887,19.176Zm-.29-7.813a1.587,1.587,0,0,0-1.226.512,2.651,2.651,0,0,0-.6,1.466H74.3v-.2a1.891,1.891,0,0,0-.457-1.311A1.638,1.638,0,0,0,72.6,11.362Zm5.273,2.813a5.573,5.573,0,0,1,1.042-3.524A3.375,3.375,0,0,1,81.72,9.314a2.96,2.96,0,0,1,2.435,1.072l.105-.9h2.3v9.193A4.064,4.064,0,0,1,86,20.854a3.641,3.641,0,0,1-1.6,1.406,5.608,5.608,0,0,1-2.408.483,5.215,5.215,0,0,1-2.039-.417,3.619,3.619,0,0,1-1.5-1.077L79.576,19.7a2.975,2.975,0,0,0,2.3,1.063,2.178,2.178,0,0,0,1.573-.541,2.027,2.027,0,0,0,.563-1.534v-.51a2.938,2.938,0,0,1-2.312.993,3.366,3.366,0,0,1-2.773-1.34,5.572,5.572,0,0,1-1.059-3.555Zm2.54.189a3.47,3.47,0,0,0,.519,2.029,1.65,1.65,0,0,0,1.424.735,1.764,1.764,0,0,0,1.661-.871V12.251a1.76,1.76,0,0,0-1.644-.871,1.66,1.66,0,0,0-1.437.748A3.911,3.911,0,0,0,80.411,14.364ZM91.195,19H88.646V9.49h2.549ZM88.5,7.029a1.251,1.251,0,0,1,.382-.94,1.648,1.648,0,0,1,2.079,0,1.244,1.244,0,0,1,.387.94,1.247,1.247,0,0,1-.391.949,1.629,1.629,0,0,1-2.065,0A1.247,1.247,0,0,1,88.5,7.029ZM98.8,19a2.821,2.821,0,0,1-.255-.853,3.073,3.073,0,0,1-2.4,1.028,3.376,3.376,0,0,1-2.316-.809,2.6,2.6,0,0,1-.918-2.039,2.687,2.687,0,0,1,1.121-2.32,5.529,5.529,0,0,1,3.239-.817h1.169v-.545a1.567,1.567,0,0,0-.338-1.055,1.331,1.331,0,0,0-1.068-.4,1.513,1.513,0,0,0-1.006.308,1.045,1.045,0,0,0-.365.844H93.12a2.551,2.551,0,0,1,.51-1.529,3.37,3.37,0,0,1,1.441-1.1,5.253,5.253,0,0,1,2.092-.4,4.15,4.15,0,0,1,2.791.883,3.09,3.09,0,0,1,1.033,2.483V16.8a4.546,4.546,0,0,0,.378,2.048V19Zm-2.1-1.767a2.188,2.188,0,0,0,1.037-.25,1.645,1.645,0,0,0,.7-.672V14.676h-.949q-1.907,0-2.03,1.318l-.009.149a1.017,1.017,0,0,0,.334.782A1.3,1.3,0,0,0,96.7,17.233ZM24.947,39V31.354H23.532V29.49h1.415v-.809a3.283,3.283,0,0,1,.918-2.483,3.557,3.557,0,0,1,2.571-.883,5.938,5.938,0,0,1,1.292.176L29.7,27.46a3.238,3.238,0,0,0-.773-.079q-1.433,0-1.433,1.345v.765h1.89v1.863H27.5V39ZM36.4,38.033a3.185,3.185,0,0,1-2.6,1.143,3,3,0,0,1-2.333-.879,3.752,3.752,0,0,1-.822-2.575V29.49h2.54v6.151q0,1.487,1.354,1.487a1.834,1.834,0,0,0,1.775-.9V29.49H38.86V39H36.47Zm6.715-8.543.079,1.1a3.32,3.32,0,0,1,2.733-1.274,2.759,2.759,0,0,1,2.25.888,4.142,4.142,0,0,1,.756,2.654V39h-2.54V32.918a1.648,1.648,0,0,0-.352-1.173,1.574,1.574,0,0,0-1.169-.365,1.747,1.747,0,0,0-1.608.914V39h-2.54V29.49Zm11.7,7.638a1.666,1.666,0,0,0,1.143-.387,1.355,1.355,0,0,0,.457-1.028h2.382a3.258,3.258,0,0,1-.527,1.771,3.48,3.48,0,0,1-1.419,1.248,4.442,4.442,0,0,1-1.991.444,4.129,4.129,0,0,1-3.217-1.3A5.13,5.13,0,0,1,50.462,34.3v-.167a5.071,5.071,0,0,1,1.169-3.507,4.08,4.08,0,0,1,3.208-1.31A4,4,0,0,1,57.7,30.33a3.594,3.594,0,0,1,1.094,2.7H56.412a1.745,1.745,0,0,0-.457-1.206,1.7,1.7,0,0,0-2.5.183,3.749,3.749,0,0,0-.453,2.1v.264a3.8,3.8,0,0,0,.448,2.113A1.549,1.549,0,0,0,54.813,37.128ZM62.925,39H60.376V29.49h2.549Zm-2.7-11.971a1.251,1.251,0,0,1,.382-.94,1.648,1.648,0,0,1,2.079,0,1.342,1.342,0,0,1,0,1.89,1.629,1.629,0,0,1-2.065,0A1.247,1.247,0,0,1,60.227,27.029Zm4.395,7.128a5.64,5.64,0,0,1,.545-2.522,3.989,3.989,0,0,1,1.569-1.714,4.577,4.577,0,0,1,2.377-.606,4.33,4.33,0,0,1,3.142,1.178,4.727,4.727,0,0,1,1.358,3.2l.018.65a4.97,4.97,0,0,1-1.222,3.511,4.735,4.735,0,0,1-6.561,0,5.058,5.058,0,0,1-1.226-3.586Zm2.54.18a3.555,3.555,0,0,0,.51,2.073,1.831,1.831,0,0,0,2.9.009,3.89,3.89,0,0,0,.519-2.267,3.519,3.519,0,0,0-.519-2.06,1.686,1.686,0,0,0-1.459-.731,1.658,1.658,0,0,0-1.441.726A3.955,3.955,0,0,0,67.161,34.338ZM77.532,29.49l.079,1.1a3.32,3.32,0,0,1,2.733-1.274,2.759,2.759,0,0,1,2.25.888,4.142,4.142,0,0,1,.756,2.654V39h-2.54V32.918a1.648,1.648,0,0,0-.352-1.173,1.574,1.574,0,0,0-1.169-.365,1.747,1.747,0,0,0-1.608.914V39h-2.54V29.49ZM90.786,39a2.821,2.821,0,0,1-.255-.853,3.073,3.073,0,0,1-2.4,1.028,3.376,3.376,0,0,1-2.316-.809,2.6,2.6,0,0,1-.918-2.039,2.687,2.687,0,0,1,1.121-2.32,5.529,5.529,0,0,1,3.239-.817h1.169v-.545a1.567,1.567,0,0,0-.338-1.055,1.331,1.331,0,0,0-1.068-.4,1.513,1.513,0,0,0-1.006.308,1.045,1.045,0,0,0-.365.844h-2.54a2.551,2.551,0,0,1,.51-1.529,3.37,3.37,0,0,1,1.441-1.1,5.253,5.253,0,0,1,2.092-.4,4.15,4.15,0,0,1,2.791.883,3.09,3.09,0,0,1,1.033,2.483V36.8a4.546,4.546,0,0,0,.378,2.048V39Zm-2.1-1.767a2.188,2.188,0,0,0,1.037-.25,1.645,1.645,0,0,0,.7-.672V34.676h-.949q-1.907,0-2.03,1.318l-.009.149a1.017,1.017,0,0,0,.334.782A1.3,1.3,0,0,0,88.686,37.233ZM97.606,39H95.058V25.5h2.549Z" transform="translate(534 4721.824)" fill="#fff"/>
    <path id="Trazado_196424" data-name="Trazado 196424" d="M8.544,16.882h5.6V19H5.908V6.2H8.544ZM18.23,19H15.69V9.49h2.54ZM17.483,5.632h2.769L17.817,8.356H15.751Zm2.54,8.543a5.731,5.731,0,0,1,1-3.542A3.237,3.237,0,0,1,23.75,9.314a2.913,2.913,0,0,1,2.294,1.037V5.5h2.549V19H26.3l-.123-1.011a2.989,2.989,0,0,1-2.443,1.187,3.228,3.228,0,0,1-2.694-1.323A5.916,5.916,0,0,1,20.023,14.175Zm2.54.189a3.754,3.754,0,0,0,.466,2.051,1.517,1.517,0,0,0,1.354.713,1.7,1.7,0,0,0,1.661-.995V12.375A1.675,1.675,0,0,0,24.4,11.38Q22.563,11.38,22.563,14.364Zm12.375,4.812a4.668,4.668,0,0,1-3.406-1.283,4.561,4.561,0,0,1-1.314-3.419v-.246a5.745,5.745,0,0,1,.554-2.562,4.064,4.064,0,0,1,1.569-1.74,4.4,4.4,0,0,1,2.316-.611,3.947,3.947,0,0,1,3.072,1.23,5,5,0,0,1,1.121,3.489v1.037H32.793a2.36,2.36,0,0,0,.743,1.494,2.245,2.245,0,0,0,1.569.563A2.742,2.742,0,0,0,37.4,16.064l1.248,1.4A3.813,3.813,0,0,1,37.1,18.723,5.075,5.075,0,0,1,34.938,19.176Zm-.29-7.813a1.587,1.587,0,0,0-1.226.512,2.651,2.651,0,0,0-.6,1.466h3.533v-.2a1.891,1.891,0,0,0-.457-1.311A1.638,1.638,0,0,0,34.648,11.362Zm10.986.51a6.9,6.9,0,0,0-.914-.07,1.86,1.86,0,0,0-1.89.976V19h-2.54V9.49h2.4l.07,1.134a2.354,2.354,0,0,1,2.118-1.31,2.662,2.662,0,0,1,.791.114Zm5.309,2.3a5.731,5.731,0,0,1,1-3.542,3.237,3.237,0,0,1,2.729-1.318,2.913,2.913,0,0,1,2.294,1.037V5.5h2.549V19H57.218L57.1,17.989a2.989,2.989,0,0,1-2.443,1.187,3.228,3.228,0,0,1-2.694-1.323A5.916,5.916,0,0,1,50.943,14.175Zm2.54.189a3.754,3.754,0,0,0,.466,2.051,1.517,1.517,0,0,0,1.354.713,1.7,1.7,0,0,0,1.661-.995V12.375a1.675,1.675,0,0,0-1.644-.995Q53.483,11.38,53.483,14.364Zm12.375,4.812a4.668,4.668,0,0,1-3.406-1.283,4.561,4.561,0,0,1-1.314-3.419v-.246a5.745,5.745,0,0,1,.554-2.562,4.064,4.064,0,0,1,1.569-1.74,4.4,4.4,0,0,1,2.316-.611,3.947,3.947,0,0,1,3.072,1.23,5,5,0,0,1,1.121,3.489v1.037H63.713a2.36,2.36,0,0,0,.743,1.494,2.245,2.245,0,0,0,1.569.563,2.742,2.742,0,0,0,2.294-1.063l1.248,1.4a3.813,3.813,0,0,1-1.547,1.261A5.075,5.075,0,0,1,65.858,19.176Zm-.29-7.813a1.587,1.587,0,0,0-1.226.512,2.651,2.651,0,0,0-.6,1.466h3.533v-.2a1.891,1.891,0,0,0-.457-1.311A1.638,1.638,0,0,0,65.568,11.362ZM15.4,37.128a1.666,1.666,0,0,0,1.143-.387A1.355,1.355,0,0,0,17,35.713h2.382a3.258,3.258,0,0,1-.527,1.771,3.48,3.48,0,0,1-1.419,1.248,4.442,4.442,0,0,1-1.991.444,4.129,4.129,0,0,1-3.217-1.3A5.13,5.13,0,0,1,11.045,34.3v-.167a5.071,5.071,0,0,1,1.169-3.507,4.08,4.08,0,0,1,3.208-1.31,4,4,0,0,1,2.861,1.015,3.594,3.594,0,0,1,1.094,2.7H17a1.745,1.745,0,0,0-.457-1.206,1.7,1.7,0,0,0-2.5.183,3.749,3.749,0,0,0-.453,2.1v.264a3.8,3.8,0,0,0,.448,2.113A1.549,1.549,0,0,0,15.4,37.128Zm5.036-2.971a5.64,5.64,0,0,1,.545-2.522,3.989,3.989,0,0,1,1.569-1.714,4.577,4.577,0,0,1,2.377-.606,4.33,4.33,0,0,1,3.142,1.178,4.727,4.727,0,0,1,1.358,3.2l.018.65a4.97,4.97,0,0,1-1.222,3.511,4.247,4.247,0,0,1-3.278,1.323,4.268,4.268,0,0,1-3.283-1.318,5.058,5.058,0,0,1-1.226-3.586Zm2.54.18a3.555,3.555,0,0,0,.51,2.073,1.831,1.831,0,0,0,2.9.009,3.89,3.89,0,0,0,.519-2.267,3.519,3.519,0,0,0-.519-2.06,1.686,1.686,0,0,0-1.459-.731,1.658,1.658,0,0,0-1.441.726A3.955,3.955,0,0,0,22.972,34.338Zm13.184,2.035a.818.818,0,0,0-.461-.734,5.241,5.241,0,0,0-1.481-.479q-3.393-.712-3.393-2.883a2.613,2.613,0,0,1,1.05-2.114,4.237,4.237,0,0,1,2.747-.848,4.56,4.56,0,0,1,2.9.853A2.687,2.687,0,0,1,38.6,32.382h-2.54a1.229,1.229,0,0,0-.352-.9,1.488,1.488,0,0,0-1.1-.356,1.52,1.52,0,0,0-.993.29.916.916,0,0,0-.352.738.783.783,0,0,0,.4.681,4.114,4.114,0,0,0,1.349.448,11.019,11.019,0,0,1,1.6.426,2.628,2.628,0,0,1,2.013,2.558,2.481,2.481,0,0,1-1.116,2.1,4.815,4.815,0,0,1-2.883.8A5.029,5.029,0,0,1,32.5,38.75a3.561,3.561,0,0,1-1.455-1.169,2.716,2.716,0,0,1-.527-1.6H32.93a1.326,1.326,0,0,0,.5,1.037,1.987,1.987,0,0,0,1.248.36,1.839,1.839,0,0,0,1.1-.277A.861.861,0,0,0,36.155,36.372Zm7.146-9.22V29.49h1.626v1.863H43.3V36.1a1.133,1.133,0,0,0,.2.756,1.015,1.015,0,0,0,.773.229,4.051,4.051,0,0,0,.747-.062v1.925a5.229,5.229,0,0,1-1.538.229,2.425,2.425,0,0,1-2.725-2.7V31.354H39.372V29.49h1.389V27.152Zm2.382,7a5.64,5.64,0,0,1,.545-2.522A3.989,3.989,0,0,1,47.8,29.921a4.577,4.577,0,0,1,2.377-.606,4.33,4.33,0,0,1,3.142,1.178,4.727,4.727,0,0,1,1.358,3.2l.018.65a4.97,4.97,0,0,1-1.222,3.511,4.735,4.735,0,0,1-6.561,0,5.058,5.058,0,0,1-1.226-3.586Zm2.54.18a3.555,3.555,0,0,0,.51,2.073,1.831,1.831,0,0,0,2.9.009,3.89,3.89,0,0,0,.519-2.267,3.519,3.519,0,0,0-.519-2.06,1.686,1.686,0,0,0-1.459-.731,1.658,1.658,0,0,0-1.441.726A3.955,3.955,0,0,0,48.223,34.338Zm13.184,2.035a.818.818,0,0,0-.461-.734,5.241,5.241,0,0,0-1.481-.479q-3.393-.712-3.393-2.883a2.613,2.613,0,0,1,1.05-2.114,4.237,4.237,0,0,1,2.747-.848,4.56,4.56,0,0,1,2.9.853,2.687,2.687,0,0,1,1.085,2.215H61.31a1.229,1.229,0,0,0-.352-.9,1.488,1.488,0,0,0-1.1-.356,1.52,1.52,0,0,0-.993.29.916.916,0,0,0-.352.738.783.783,0,0,0,.4.681,4.114,4.114,0,0,0,1.349.448,11.019,11.019,0,0,1,1.6.426,2.628,2.628,0,0,1,2.013,2.558,2.481,2.481,0,0,1-1.116,2.1,4.815,4.815,0,0,1-2.883.8,5.029,5.029,0,0,1-2.123-.426A3.561,3.561,0,0,1,56.3,37.581a2.716,2.716,0,0,1-.527-1.6h2.408a1.326,1.326,0,0,0,.5,1.037,1.987,1.987,0,0,0,1.248.36,1.839,1.839,0,0,0,1.1-.277A.861.861,0,0,0,61.406,36.372Z" transform="translate(880.619 4933.824)" fill="#12263f"/>
    <path id="Trazado_196425" data-name="Trazado 196425" d="M9.891,14.315h-2.1V19H5.154V6.2H9.909a5.375,5.375,0,0,1,3.5,1.011,3.488,3.488,0,0,1,1.23,2.856,3.937,3.937,0,0,1-.567,2.184,3.866,3.866,0,0,1-1.718,1.393l2.769,5.229V19h-2.83Zm-2.1-2.136H9.917a2.178,2.178,0,0,0,1.538-.505A1.806,1.806,0,0,0,12,10.281a1.933,1.933,0,0,0-.514-1.424,2.137,2.137,0,0,0-1.578-.519H7.791ZM21.985,19a2.821,2.821,0,0,1-.255-.853,3.073,3.073,0,0,1-2.4,1.028,3.376,3.376,0,0,1-2.316-.809,2.6,2.6,0,0,1-.918-2.039,2.687,2.687,0,0,1,1.121-2.32,5.529,5.529,0,0,1,3.239-.817h1.169v-.545a1.567,1.567,0,0,0-.338-1.055,1.331,1.331,0,0,0-1.068-.4,1.513,1.513,0,0,0-1.006.308,1.045,1.045,0,0,0-.365.844h-2.54a2.551,2.551,0,0,1,.51-1.529,3.37,3.37,0,0,1,1.441-1.1,5.253,5.253,0,0,1,2.092-.4,4.15,4.15,0,0,1,2.791.883,3.09,3.09,0,0,1,1.033,2.483V16.8a4.546,4.546,0,0,0,.378,2.048V19Zm-2.1-1.767a2.188,2.188,0,0,0,1.037-.25,1.645,1.645,0,0,0,.7-.672V14.676h-.949q-1.907,0-2.03,1.318l-.009.149a1.017,1.017,0,0,0,.334.782A1.3,1.3,0,0,0,19.884,17.233Zm10.2-.105a1.666,1.666,0,0,0,1.143-.387,1.355,1.355,0,0,0,.457-1.028h2.382a3.258,3.258,0,0,1-.527,1.771,3.48,3.48,0,0,1-1.419,1.248,4.442,4.442,0,0,1-1.991.444,4.129,4.129,0,0,1-3.217-1.3A5.13,5.13,0,0,1,25.729,14.3v-.167A5.071,5.071,0,0,1,26.9,10.624a4.08,4.08,0,0,1,3.208-1.31,4,4,0,0,1,2.861,1.015,3.594,3.594,0,0,1,1.094,2.7H31.679a1.745,1.745,0,0,0-.457-1.206,1.7,1.7,0,0,0-2.5.183,3.749,3.749,0,0,0-.453,2.1v.264a3.8,3.8,0,0,0,.448,2.113A1.549,1.549,0,0,0,30.08,17.128ZM38.192,19H35.643V9.49h2.549Zm-2.7-11.971a1.251,1.251,0,0,1,.382-.94,1.648,1.648,0,0,1,2.079,0,1.244,1.244,0,0,1,.387.94,1.247,1.247,0,0,1-.391.949,1.629,1.629,0,0,1-2.065,0A1.247,1.247,0,0,1,35.494,7.029Zm4.395,7.128a5.64,5.64,0,0,1,.545-2.522A3.989,3.989,0,0,1,42,9.921a4.577,4.577,0,0,1,2.377-.606,4.33,4.33,0,0,1,3.142,1.178,4.727,4.727,0,0,1,1.358,3.2l.018.65a4.97,4.97,0,0,1-1.222,3.511,4.735,4.735,0,0,1-6.561,0,5.058,5.058,0,0,1-1.226-3.586Zm2.54.18a3.555,3.555,0,0,0,.51,2.073,1.831,1.831,0,0,0,2.9.009,3.89,3.89,0,0,0,.519-2.267,3.519,3.519,0,0,0-.519-2.06,1.686,1.686,0,0,0-1.459-.731,1.658,1.658,0,0,0-1.441.726A3.955,3.955,0,0,0,42.428,14.338ZM52.8,9.49l.079,1.1a3.32,3.32,0,0,1,2.733-1.274,2.759,2.759,0,0,1,2.25.888,4.142,4.142,0,0,1,.756,2.654V19h-2.54V12.918a1.648,1.648,0,0,0-.352-1.173,1.574,1.574,0,0,0-1.169-.365,1.747,1.747,0,0,0-1.608.914V19h-2.54V9.49ZM66.053,19a2.821,2.821,0,0,1-.255-.853,3.073,3.073,0,0,1-2.4,1.028,3.376,3.376,0,0,1-2.316-.809,2.6,2.6,0,0,1-.918-2.039,2.687,2.687,0,0,1,1.121-2.32,5.529,5.529,0,0,1,3.239-.817h1.169v-.545a1.567,1.567,0,0,0-.338-1.055,1.331,1.331,0,0,0-1.068-.4,1.513,1.513,0,0,0-1.006.308,1.045,1.045,0,0,0-.365.844h-2.54a2.551,2.551,0,0,1,.51-1.529,3.37,3.37,0,0,1,1.441-1.1,5.253,5.253,0,0,1,2.092-.4,4.15,4.15,0,0,1,2.791.883,3.09,3.09,0,0,1,1.033,2.483V16.8a4.546,4.546,0,0,0,.378,2.048V19Zm-2.1-1.767a2.188,2.188,0,0,0,1.037-.25,1.645,1.645,0,0,0,.7-.672V14.676h-.949q-1.907,0-2.03,1.318l-.009.149a1.017,1.017,0,0,0,.334.782A1.3,1.3,0,0,0,63.953,17.233ZM72.874,19H70.325V5.5h2.549Zm4.772,0H75.1V9.49h2.549Zm-2.7-11.971a1.251,1.251,0,0,1,.382-.94,1.648,1.648,0,0,1,2.079,0,1.244,1.244,0,0,1,.387.94,1.247,1.247,0,0,1-.391.949,1.629,1.629,0,0,1-2.065,0A1.247,1.247,0,0,1,74.948,7.029Zm7.708,9.923h4.649V19H79.413V17.453l4.474-5.915H79.544V9.49h7.62v1.5ZM94.407,19a2.821,2.821,0,0,1-.255-.853,3.073,3.073,0,0,1-2.4,1.028,3.376,3.376,0,0,1-2.316-.809,2.6,2.6,0,0,1-.918-2.039,2.687,2.687,0,0,1,1.121-2.32,5.529,5.529,0,0,1,3.239-.817h1.169v-.545a1.567,1.567,0,0,0-.338-1.055,1.331,1.331,0,0,0-1.068-.4,1.513,1.513,0,0,0-1.006.308,1.045,1.045,0,0,0-.365.844h-2.54a2.551,2.551,0,0,1,.51-1.529,3.37,3.37,0,0,1,1.441-1.1,5.253,5.253,0,0,1,2.092-.4,4.15,4.15,0,0,1,2.791.883A3.09,3.09,0,0,1,96.6,12.681V16.8a4.546,4.546,0,0,0,.378,2.048V19Zm-2.1-1.767a2.188,2.188,0,0,0,1.037-.25,1.645,1.645,0,0,0,.7-.672V14.676H93.1q-1.907,0-2.03,1.318l-.009.149a1.017,1.017,0,0,0,.334.782A1.3,1.3,0,0,0,92.306,17.233Zm10.2-.105a1.666,1.666,0,0,0,1.143-.387,1.355,1.355,0,0,0,.457-1.028h2.382a3.258,3.258,0,0,1-.527,1.771,3.48,3.48,0,0,1-1.419,1.248,4.442,4.442,0,0,1-1.991.444,4.129,4.129,0,0,1-3.217-1.3A5.13,5.13,0,0,1,98.151,14.3v-.167a5.071,5.071,0,0,1,1.169-3.507,4.08,4.08,0,0,1,3.208-1.31,4,4,0,0,1,2.861,1.015,3.594,3.594,0,0,1,1.094,2.7H104.1a1.745,1.745,0,0,0-.457-1.206,1.7,1.7,0,0,0-2.5.183,3.749,3.749,0,0,0-.453,2.1v.264a3.8,3.8,0,0,0,.448,2.113A1.549,1.549,0,0,0,102.5,17.128ZM110.614,19h-2.549V9.49h2.549Zm-2.7-11.971a1.251,1.251,0,0,1,.382-.94,1.648,1.648,0,0,1,2.079,0,1.244,1.244,0,0,1,.387.94,1.247,1.247,0,0,1-.391.949,1.629,1.629,0,0,1-2.065,0A1.247,1.247,0,0,1,107.916,7.029Zm4.395,7.128a5.64,5.64,0,0,1,.545-2.522,3.989,3.989,0,0,1,1.569-1.714,4.577,4.577,0,0,1,2.377-.606,4.33,4.33,0,0,1,3.142,1.178,4.727,4.727,0,0,1,1.358,3.2l.018.65a4.97,4.97,0,0,1-1.222,3.511,4.735,4.735,0,0,1-6.561,0,5.058,5.058,0,0,1-1.226-3.586Zm2.54.18a3.555,3.555,0,0,0,.51,2.073,1.831,1.831,0,0,0,2.9.009,3.89,3.89,0,0,0,.519-2.267,3.519,3.519,0,0,0-.519-2.06,1.686,1.686,0,0,0-1.459-.731,1.658,1.658,0,0,0-1.441.726A3.955,3.955,0,0,0,114.85,14.338ZM117.3,5.5h2.769l-2.435,2.725h-2.065Zm7.919,3.99.079,1.1a3.32,3.32,0,0,1,2.733-1.274,2.759,2.759,0,0,1,2.25.888,4.142,4.142,0,0,1,.756,2.654V19H128.5V12.918a1.648,1.648,0,0,0-.352-1.173,1.574,1.574,0,0,0-1.169-.365,1.747,1.747,0,0,0-1.608.914V19h-2.54V9.49Z" transform="translate(608.665 4928.11)" fill="#fff"/>
    <g id="OUTLINE" transform="translate(737.836 4695.658)">
      <path id="Trazado_196322" data-name="Trazado 196322" d="M105.254,97.826V80.633A18.424,18.424,0,0,0,99.1,66.882V20.617A4.622,4.622,0,0,0,94.481,16H29.848a4.622,4.622,0,0,0-4.617,4.617V43.742l-.175-.616a4.617,4.617,0,0,0-8.882,2.524l9.057,31.874v26.193a4.622,4.622,0,0,0,4.617,4.617h76.944a1.539,1.539,0,0,0,1.539-1.539v-4.617a4.624,4.624,0,0,0-3.078-4.352Zm-3.078-17.192V97.561H97.559V80.633a10.788,10.788,0,0,0-9.233-10.661V65.321A15.411,15.411,0,0,1,102.176,80.633ZM87.3,79.478q-.564.564-1.091,1.155H80.631a1.541,1.541,0,0,1-1.539-1.539V76.968l8.042-4.021a7.7,7.7,0,0,1,7.347,7.687V97.561H82.231a24.775,24.775,0,0,1,7.25-15.906Zm-59-58.861a1.541,1.541,0,0,1,1.539-1.539H94.481a1.541,1.541,0,0,1,1.539,1.539V64.645a18.389,18.389,0,0,0-3.078-1.423V23.694A1.539,1.539,0,0,0,91.4,22.156H32.926a1.539,1.539,0,0,0-1.539,1.539V65.405L28.309,54.573ZM19.135,44.808a1.539,1.539,0,0,1,2.961-.841l.841,2.961-2.961.841Zm1.682,5.921,2.961-.841L36.69,95.329l-.849,2.641-2.111-1.8Zm55.2,54.526H29.848a1.541,1.541,0,0,1-1.539-1.539V88.355l2.587,9.1a1.538,1.538,0,0,0,.482.75l4.222,3.6a1.539,1.539,0,0,0,1,.368H76.015ZM77.194,99.1H38.711l1.052-3.272a1.538,1.538,0,0,0,.015-.892l-5.313-18.7v-51h55.4V62.424a18.511,18.511,0,0,0-3.078-.258,1.539,1.539,0,0,0-1.539,1.539v6.743L76.865,74.64a1.539,1.539,0,0,0-.851,1.376v3.078a4.622,4.622,0,0,0,4.617,4.617h3.187a27.787,27.787,0,0,0-4.687,14.1A4.629,4.629,0,0,0,77.194,99.1Zm28.06,6.156H79.093v-3.078a1.541,1.541,0,0,1,1.539-1.539h23.083a1.541,1.541,0,0,1,1.539,1.539Z" transform="translate(0)" fill="#6836bf"/>
      <path id="Trazado_196323" data-name="Trazado 196323" d="M284.615,201.236a4.589,4.589,0,0,0,1.989-.451l3.078,3.078a1.539,1.539,0,0,0,1.088.451h4.617v-3.078h-3.979l-2.627-2.627a4.616,4.616,0,1,0-4.165,2.627Zm0-6.156a1.539,1.539,0,1,1-1.539,1.539A1.539,1.539,0,0,1,284.615,195.081Z" transform="translate(-213.217 -142.148)" fill="#6836bf"/>
      <path id="Trazado_196324" data-name="Trazado 196324" d="M316.615,113.236a4.589,4.589,0,0,0,1.989-.451l2.627,2.627v11.674h3.078V114.775a1.539,1.539,0,0,0-.451-1.088l-3.078-3.078a4.616,4.616,0,1,0-4.165,2.627Zm0-6.156a1.539,1.539,0,1,1-1.539,1.539A1.539,1.539,0,0,1,316.615,107.081Z" transform="translate(-239.061 -71.075)" fill="#6836bf"/>
      <path id="Trazado_196325" data-name="Trazado 196325" d="M249.236,289.233a4.59,4.59,0,0,0-.451-1.989l4.166-4.166h8.6V280h-9.233a1.539,1.539,0,0,0-1.088.451l-4.617,4.617a4.616,4.616,0,1,0,2.627,4.165Zm-6.156,0a1.539,1.539,0,1,1,1.539,1.539A1.539,1.539,0,0,1,243.081,289.233Z" transform="translate(-180.916 -213.217)" fill="#6836bf"/>
      <path id="Trazado_196326" data-name="Trazado 196326" d="M151.308,319.612a7.7,7.7,0,1,0-3.454,6.416l5.444,5.444,2.176-2.176-5.444-5.444A7.648,7.648,0,0,0,151.308,319.612Zm-7.694,4.617a4.617,4.617,0,1,1,4.617-4.617A4.617,4.617,0,0,1,143.614,324.229Z" transform="translate(-96.838 -238.979)" fill="#6836bf"/>
      <path id="Trazado_196327" data-name="Trazado 196327" d="M137.539,204.005h6.156a1.539,1.539,0,0,0,1.539-1.539v-1.539h2.127l1.114,2.227a1.539,1.539,0,0,0,1.376.851h6.564a4.639,4.639,0,0,0,4.57-3.964l.66-4.617a4.617,4.617,0,0,0-4.57-5.27h-.636l.306-1.222A3.97,3.97,0,0,0,152.891,184h-1.5a1.539,1.539,0,0,0-1.376.851l-2.652,5.3h-2.127a1.539,1.539,0,0,0-1.539-1.539h-6.155A1.539,1.539,0,0,0,136,190.156v12.311a1.539,1.539,0,0,0,1.539,1.539Zm7.694-10.772h3.078a1.539,1.539,0,0,0,1.376-.851l2.652-5.3h.552a.892.892,0,0,1,.866,1.109l-.784,3.134a1.539,1.539,0,0,0,1.493,1.912h2.607a1.539,1.539,0,0,1,1.523,1.757l-.66,4.617a1.546,1.546,0,0,1-1.523,1.321H150.8l-1.114-2.227a1.539,1.539,0,0,0-1.376-.851h-3.078Zm-6.156-1.539h3.078v9.233h-3.078Z" transform="translate(-96.918 -135.683)" fill="#6836bf"/>
      <path id="Trazado_196328" data-name="Trazado 196328" d="M136.851,99.843a1.539,1.539,0,0,0,1.611-.145l5.745-4.309h11.8a4.622,4.622,0,0,0,4.617-4.617V81.539A1.539,1.539,0,0,0,159.083,80H140.617A4.622,4.622,0,0,0,136,84.617v13.85a1.539,1.539,0,0,0,.851,1.376Zm2.227-15.226a1.541,1.541,0,0,1,1.539-1.539h16.928v7.694a1.541,1.541,0,0,1-1.539,1.539H143.694a1.539,1.539,0,0,0-.923.308l-3.693,2.77Z" transform="translate(-96.918 -51.689)" fill="#6836bf"/>
      <rect id="Rectángulo_44264" data-name="Rectángulo 44264" width="12.436" height="2.618" transform="translate(45.147 34.677)" fill="#6836bf"/>
      <path id="Trazado_196329" data-name="Trazado 196329" d="M257.669,368.451l-3.078,3.078a4.618,4.618,0,1,0,2.176,2.176l2.627-2.627h3.979V368h-4.617a1.539,1.539,0,0,0-1.088.451Zm-5.067,8.783a1.539,1.539,0,1,1,1.539-1.539A1.539,1.539,0,0,1,252.6,377.233Z" transform="translate(-187.359 -284.289)" fill="#6836bf"/>
    </g>
    <g id="Layer_3" transform="translate(753.666 4488.455)">
      <g id="Grupo_139219" data-name="Grupo 139219" transform="translate(6.999 15.489)">
        <g id="ARC_424_" transform="translate(0 36.017)">
          <g id="Grupo_139200" data-name="Grupo 139200">
            <path id="Trazado_196330" data-name="Trazado 196330" d="M18.307,44.714a1.6,1.6,0,0,1-.227-.016A31.217,31.217,0,0,1,7.833,41.344a1.575,1.575,0,1,1,1.482-2.779,27.975,27.975,0,0,0,9.214,3.016,1.574,1.574,0,0,1-.222,3.133Z" transform="translate(-6.999 -38.381)" fill="#12263f"/>
          </g>
        </g>
        <g id="ARC_423_" transform="translate(65.791 36.018)">
          <g id="Grupo_139201" data-name="Grupo 139201">
            <path id="Trazado_196331" data-name="Trazado 196331" d="M50.387,44.713a1.573,1.573,0,0,1-.222-3.131,27.963,27.963,0,0,0,9.214-3.016,1.575,1.575,0,0,1,1.482,2.779A31.217,31.217,0,0,1,50.613,44.7,1.864,1.864,0,0,1,50.387,44.713Z" transform="translate(-48.815 -38.382)" fill="#12263f"/>
          </g>
        </g>
        <g id="ARC_422_" transform="translate(49.333 20.332)">
          <g id="Grupo_139202" data-name="Grupo 139202" transform="translate(0)">
            <path id="Trazado_196332" data-name="Trazado 196332" d="M39.927,36.305a1.573,1.573,0,0,1-1.317-2.432,11.992,11.992,0,0,1,10.077-5.461,1.573,1.573,0,0,1,0,3.147,8.848,8.848,0,0,0-7.44,4.032A1.569,1.569,0,0,1,39.927,36.305Z" transform="translate(-38.354 -28.412)" fill="#12263f"/>
          </g>
        </g>
        <g id="CIRCLE_38_" transform="translate(52.866 2.906)">
          <g id="Grupo_139203" data-name="Grupo 139203" transform="translate(0)">
            <path id="Trazado_196333" data-name="Trazado 196333" d="M50.888,37.909A10.287,10.287,0,1,1,61.175,27.623,10.425,10.425,0,0,1,50.888,37.909Zm0-17.426a7.14,7.14,0,1,0,7.14,7.14A7.237,7.237,0,0,0,50.888,20.483Z" transform="translate(-40.6 -17.336)" fill="#12263f"/>
          </g>
        </g>
        <g id="ARC_421_" transform="translate(65.066 20.334)">
          <g id="Grupo_139204" data-name="Grupo 139204">
            <path id="Trazado_196334" data-name="Trazado 196334" d="M60.384,42.016a1.572,1.572,0,0,1-1.573-1.573,8.894,8.894,0,0,0-8.883-8.883,1.573,1.573,0,0,1,0-3.147,12.045,12.045,0,0,1,12.03,12.03A1.573,1.573,0,0,1,60.384,42.016Z" transform="translate(-48.354 -28.413)" fill="#12263f"/>
          </g>
        </g>
        <g id="LINE_818_" transform="translate(58.094 20.332)">
          <g id="Grupo_139205" data-name="Grupo 139205">
            <path id="Trazado_196335" data-name="Trazado 196335" d="M52.468,31.559H45.5a1.573,1.573,0,0,1,0-3.147h6.972a1.573,1.573,0,1,1,0,3.147Z" transform="translate(-43.923 -28.412)" fill="#12263f"/>
          </g>
        </g>
        <g id="LINE_817_" transform="translate(75.522 30.79)">
          <g id="Grupo_139206" data-name="Grupo 139206">
            <path id="Trazado_196336" data-name="Trazado 196336" d="M56.573,43.434A1.572,1.572,0,0,1,55,41.861V36.632a1.573,1.573,0,0,1,3.147,0v5.228a1.572,1.572,0,0,1-1.573,1.573Z" transform="translate(-55 -35.059)" fill="#12263f"/>
          </g>
        </g>
        <g id="ARC_420_" transform="translate(19.172 23.238)">
          <g id="Grupo_139207" data-name="Grupo 139207">
            <path id="Trazado_196337" data-name="Trazado 196337" d="M20.758,47.347a1.572,1.572,0,0,1-1.573-1.573A15.532,15.532,0,0,1,34.7,30.259a1.573,1.573,0,0,1,0,3.147A12.381,12.381,0,0,0,22.332,45.774,1.573,1.573,0,0,1,20.758,47.347Z" transform="translate(-19.185 -30.259)" fill="#12263f"/>
          </g>
        </g>
        <g id="LINE_816_" transform="translate(33.114 23.238)">
          <g id="Grupo_139208" data-name="Grupo 139208" transform="translate(0)">
            <path id="Trazado_196338" data-name="Trazado 196338" d="M38.915,33.406h-9.3a1.573,1.573,0,0,1,0-3.147h9.3a1.573,1.573,0,0,1,0,3.147Z" transform="translate(-28.046 -30.259)" fill="#12263f"/>
          </g>
        </g>
        <g id="ARC_419_" transform="translate(17.431 20.332)">
          <g id="Grupo_139209" data-name="Grupo 139209">
            <path id="Trazado_196339" data-name="Trazado 196339" d="M28.412,36.305a1.573,1.573,0,0,1-1.32-.714,8.854,8.854,0,0,0-7.44-4.032,1.573,1.573,0,0,1,0-3.147,11.99,11.99,0,0,1,10.077,5.461,1.573,1.573,0,0,1-1.317,2.432Z" transform="translate(-18.078 -28.412)" fill="#12263f"/>
          </g>
        </g>
        <g id="LINE_815_" transform="translate(19.172 37.18)">
          <g id="Grupo_139210" data-name="Grupo 139210">
            <path id="Trazado_196340" data-name="Trazado 196340" d="M20.758,49.238a1.572,1.572,0,0,1-1.573-1.573V40.693a1.573,1.573,0,0,1,3.147,0v6.972A1.573,1.573,0,0,1,20.758,49.238Z" transform="translate(-19.185 -39.12)" fill="#12263f"/>
          </g>
        </g>
        <g id="CIRCLE_37_" transform="translate(26.142)">
          <g id="Grupo_139211" data-name="Grupo 139211">
            <path id="Trazado_196341" data-name="Trazado 196341" d="M36.808,41.874A13.37,13.37,0,0,1,23.615,28.682a13.193,13.193,0,0,1,26.385,0A13.37,13.37,0,0,1,36.808,41.874Zm0-23.238A10.046,10.046,0,1,0,46.853,28.682,10.18,10.18,0,0,0,36.808,18.636Z" transform="translate(-23.615 -15.489)" fill="#12263f"/>
          </g>
        </g>
        <g id="ARC_418_" transform="translate(42.409 23.238)">
          <g id="Grupo_139212" data-name="Grupo 139212">
            <path id="Trazado_196342" data-name="Trazado 196342" d="M49.469,47.347A1.572,1.572,0,0,1,47.9,45.774,12.381,12.381,0,0,0,35.527,33.406a1.573,1.573,0,1,1,0-3.147A15.532,15.532,0,0,1,51.042,45.774,1.572,1.572,0,0,1,49.469,47.347Z" transform="translate(-33.954 -30.259)" fill="#12263f"/>
          </g>
        </g>
        <g id="LINE_814_" transform="translate(56.351 37.18)">
          <g id="Grupo_139213" data-name="Grupo 139213">
            <path id="Trazado_196343" data-name="Trazado 196343" d="M44.388,49.238a1.572,1.572,0,0,1-1.573-1.573V40.693a1.573,1.573,0,1,1,3.147,0v6.972A1.572,1.572,0,0,1,44.388,49.238Z" transform="translate(-42.815 -39.12)" fill="#12263f"/>
          </g>
        </g>
        <g id="ARC_417_" transform="translate(19.171 44.151)">
          <g id="Grupo_139214" data-name="Grupo 139214">
            <path id="Trazado_196344" data-name="Trazado 196344" d="M39.348,51.355a41.054,41.054,0,0,1-19.33-4.841A1.575,1.575,0,1,1,21.5,43.735a37.863,37.863,0,0,0,35.7,0,1.575,1.575,0,1,1,1.482,2.779,41.084,41.084,0,0,1-19.332,4.841Z" transform="translate(-19.184 -43.551)" fill="#12263f"/>
          </g>
        </g>
        <g id="CIRCLE_36_" transform="translate(5.229 2.906)">
          <g id="Grupo_139215" data-name="Grupo 139215">
            <path id="Trazado_196345" data-name="Trazado 196345" d="M20.61,37.909a10.287,10.287,0,0,1,0-20.573,10.287,10.287,0,1,1,0,20.573Zm0-17.426a7.14,7.14,0,1,0,7.14,7.14A7.235,7.235,0,0,0,20.61,20.483Z" transform="translate(-10.323 -17.336)" fill="#12263f"/>
          </g>
        </g>
        <g id="ARC_416_" transform="translate(0.001 20.334)">
          <g id="Grupo_139216" data-name="Grupo 139216">
            <path id="Trazado_196346" data-name="Trazado 196346" d="M8.573,42.016A1.572,1.572,0,0,1,7,40.443a12.045,12.045,0,0,1,12.03-12.03,1.573,1.573,0,0,1,0,3.147,8.892,8.892,0,0,0-8.883,8.883A1.573,1.573,0,0,1,8.573,42.016Z" transform="translate(-7 -28.413)" fill="#12263f"/>
          </g>
        </g>
        <g id="LINE_813_" transform="translate(10.458 20.332)">
          <g id="Grupo_139217" data-name="Grupo 139217">
            <path id="Trazado_196347" data-name="Trazado 196347" d="M22.191,31.559H15.219a1.573,1.573,0,0,1,0-3.147h6.972a1.573,1.573,0,1,1,0,3.147Z" transform="translate(-13.646 -28.412)" fill="#12263f"/>
          </g>
        </g>
        <g id="LINE_812_" transform="translate(0.001 30.79)">
          <g id="Grupo_139218" data-name="Grupo 139218">
            <path id="Trazado_196348" data-name="Trazado 196348" d="M8.573,43.434A1.572,1.572,0,0,1,7,41.861V36.632a1.573,1.573,0,0,1,3.147,0v5.228a1.572,1.572,0,0,1-1.573,1.573Z" transform="translate(-7 -35.059)" fill="#12263f"/>
          </g>
        </g>
      </g>
    </g>
    <g id="g1806" transform="translate(968.167 4634.989)">
      <g id="g1808" transform="translate(0)">
        <g id="g1810" clip-path="url(#clip-path)">
          <g id="g1816" transform="translate(0.874 55.027)">
            <path id="path1818" d="M-141.148-39.339h44.4v-3.768h-57.921v3.768h9.44" transform="translate(154.666 43.107)" fill="rgba(0,0,0,0)" stroke="#fff" stroke-linecap="round" stroke-linejoin="round" stroke-miterlimit="10" stroke-width="2"/>
          </g>
        </g>
      </g>
      <path id="path1820" d="M61.181-203.057H70.6v-14.363H61.181Z" transform="translate(-55.834 258.085)" fill="rgba(0,0,0,0)" stroke="#fff" stroke-linecap="round" stroke-linejoin="round" stroke-miterlimit="10" stroke-width="2"/>
      <path id="path1822" d="M212.031-262.057h9.418V-282.07h-9.418Z" transform="translate(-193.499 317.084)" fill="rgba(0,0,0,0)" stroke="#fff" stroke-linecap="round" stroke-linejoin="round" stroke-miterlimit="10" stroke-width="2"/>
      <path id="path1824" d="M362.883-335.8H372.3v-27.077h-9.418Z" transform="translate(-331.165 390.833)" fill="rgba(0,0,0,0)" stroke="#fff" stroke-linecap="round" stroke-linejoin="round" stroke-miterlimit="10" stroke-width="2"/>
      <g id="g1826" transform="translate(44.903 23.242)">
        <path id="path1828" d="M-98.329-180.365v14.511h-9.418V-197.64h9.418v13.2" transform="translate(107.746 197.64)" fill="rgba(0,0,0,0)" stroke="#fff" stroke-linecap="round" stroke-linejoin="round" stroke-miterlimit="10" stroke-width="2"/>
      </g>
      <g id="g1830" transform="translate(0)">
        <g id="g1832" clip-path="url(#clip-path)">
          <g id="g1838" transform="translate(5.23 0.874)">
            <path id="path1840" d="M-101.054-275.335h2.795l11.1-12.1a1.882,1.882,0,0,1,1.388-.611h7.814l9.889-9.888h-4.87v-3.768h9.418a1.883,1.883,0,0,1,1.883,1.883v9.419h-3.767v-4.871L-75.85-284.834a1.883,1.883,0,0,1-1.332.551h-7.765l-11.095,12.1a1.885,1.885,0,0,1-1.389.611h-13.3v-3.767h5.6" transform="translate(110.733 301.706)" fill="rgba(0,0,0,0)" stroke="#fff" stroke-linecap="round" stroke-linejoin="round" stroke-miterlimit="10" stroke-width="2"/>
          </g>
        </g>
      </g>
    </g>
    <g id="bombilla-de-idea" transform="translate(559.785 4636.87)">
      <g id="Grupo_139220" data-name="Grupo 139220" transform="translate(6.213 1)">
        <path id="Trazado_196349" data-name="Trazado 196349" d="M55.252,28.219a20.253,20.253,0,0,0-24.2-17.878,1.039,1.039,0,0,0,.414,2.035A18.178,18.178,0,0,1,53.185,28.414a18.045,18.045,0,0,1-6.048,15.368,10.407,10.407,0,0,0-3.526,6.911H38.637V41.574a1.038,1.038,0,0,0-2.077,0v9.118H33.648V34.523H36.56v3.493a1.038,1.038,0,0,0,2.077,0V34.523h1.583a3.6,3.6,0,0,0,2.543-6.144,3.691,3.691,0,0,0-5.09.013,3.605,3.605,0,0,0-1.043,2.542v1.513H33.582V30.934a3.617,3.617,0,0,0-1.055-2.555,3.692,3.692,0,0,0-5.089.012,3.6,3.6,0,0,0,2.555,6.133h1.578V50.692H26.6a10.472,10.472,0,0,0-3.546-6.929A18.168,18.168,0,0,1,27.783,13.55a1.039,1.039,0,0,0-.84-1.9,20.246,20.246,0,0,0-5.267,33.668,8.311,8.311,0,0,1,2.881,6.168v.245A1.038,1.038,0,0,0,25.6,52.769h.431v2.409H24.874a1.038,1.038,0,0,0,0,2.077h1.152v2.2H24.874a1.038,1.038,0,0,0,0,2.077h1.152v.138a3.681,3.681,0,0,0,3.639,3.675,5.767,5.767,0,0,0,10.88,0,3.682,3.682,0,0,0,3.639-3.675v-.138h1.152a1.038,1.038,0,0,0,0-2.077H44.184v-2.2h1.152a1.038,1.038,0,1,0,0-2.077H44.184V52.769h.433a1.038,1.038,0,0,0,1.038-1.038v-.247a8.258,8.258,0,0,1,2.859-6.146,20.1,20.1,0,0,0,6.738-17.118ZM38.707,30.934a1.514,1.514,0,0,1,.434-1.074,1.583,1.583,0,0,1,2.153-.013,1.522,1.522,0,0,1-1.074,2.6H38.707Zm-7.2,1.513H29.993a1.521,1.521,0,0,1-1.085-2.588,1.516,1.516,0,0,1,2.6,1.075Zm3.6,34.673a3.711,3.711,0,0,1-3.161-1.77h6.321a3.711,3.711,0,0,1-3.16,1.77Zm5.4-3.847H29.7a1.6,1.6,0,0,1-1.6-1.6v-.138h14A1.612,1.612,0,0,1,40.5,63.272Zm1.6-3.817h-14v-2.2h14Zm0-4.277h-14V52.769h14Z" transform="translate(-5.88 -0.656)" fill="#fff"/>
        <path id="Trazado_196350" data-name="Trazado 196350" d="M10.192,16.817l3.634,2.1a1.039,1.039,0,1,0,1.038-1.8l-3.634-2.1a1.039,1.039,0,0,0-1.038,1.8Z" transform="translate(-6.08 -0.466)" fill="#fff"/>
        <path id="Trazado_196351" data-name="Trazado 196351" d="M12.487,29.536A1.038,1.038,0,0,0,11.448,28.5h-4.2a1.038,1.038,0,1,0,0,2.077h4.2A1.038,1.038,0,0,0,12.487,29.536Z" transform="translate(-6.213 0.058)" fill="#fff"/>
        <path id="Trazado_196352" data-name="Trazado 196352" d="M14.182,40.14l-3.635,2.1a1.039,1.039,0,1,0,1.038,1.8l3.635-2.1a1.039,1.039,0,1,0-1.038-1.8Z" transform="translate(-6.067 0.501)" fill="#fff"/>
        <path id="Trazado_196353" data-name="Trazado 196353" d="M21.718,10.02a1.032,1.032,0,0,0,1.827-.955,39.3,39.3,0,0,0-2.226-4.083,1.032,1.032,0,0,0-1.827.955,39.327,39.327,0,0,0,2.226,4.083Z" transform="translate(-5.706 -0.867)" fill="#fff"/>
        <path id="Trazado_196354" data-name="Trazado 196354" d="M34.039,7.277a1.038,1.038,0,0,0,1.038-1.038v-4.2a1.038,1.038,0,1,0-2.077,0v4.2A1.038,1.038,0,0,0,34.039,7.277Z" transform="translate(-5.182 -1)" fill="#fff"/>
        <path id="Trazado_196355" data-name="Trazado 196355" d="M45.022,10.4a1.04,1.04,0,0,0,1.419-.38,38.214,38.214,0,0,0,2.225-4.09,1.032,1.032,0,0,0-1.827-.956,38.215,38.215,0,0,0-2.225,4.09A1.03,1.03,0,0,0,45.022,10.4Z" transform="translate(-4.739 -0.867)" fill="#fff"/>
        <path id="Trazado_196356" data-name="Trazado 196356" d="M54.386,18.919l3.635-2.1a1.039,1.039,0,0,0-1.038-1.8l-3.635,2.1a1.039,1.039,0,1,0,1.038,1.8Z" transform="translate(-4.419 -0.466)" fill="#fff"/>
        <path id="Trazado_196357" data-name="Trazado 196357" d="M60.981,28.5h-4.2a1.038,1.038,0,1,0,0,2.077h4.2a1.038,1.038,0,1,0,0-2.077Z" transform="translate(-4.307 0.059)" fill="#fff"/>
        <path id="Trazado_196358" data-name="Trazado 196358" d="M57.665,42.242l-3.634-2.1a1.039,1.039,0,1,0-1.038,1.8l3.634,2.1a1.039,1.039,0,1,0,1.038-1.8Z" transform="translate(-4.433 0.501)" fill="#fff"/>
      </g>
    </g>
    <g id="g948" transform="translate(887 5548.536)">
      <g id="g950" transform="translate(0 -682.665)">
        <g id="g952" clip-path="url(#clip-path-3)">
          <g id="g958" transform="translate(26.489 15.384)">
            <path id="path960" d="M-88.5-20.621a3.716,3.716,0,0,0-3.321-2.069h-1.852a3.715,3.715,0,0,0-3.7,3.7,3.715,3.715,0,0,0,3.7,3.7h1.852a3.715,3.715,0,0,1,3.7,3.7,3.715,3.715,0,0,1-3.7,3.7h-1.852A3.716,3.716,0,0,1-96.994-9.94" transform="translate(97.377 22.689)" fill="rgba(0,0,0,0)" stroke="#12263f" stroke-miterlimit="22.926" stroke-width="2"/>
          </g>
          <g id="g962" transform="translate(31.12 12.649)">
            <path id="path964" d="M0-202.239v-20.288" transform="translate(0 222.527)" fill="rgba(0,0,0,0)" stroke="#12263f" stroke-miterlimit="22.926" stroke-width="2"/>
          </g>
          <g id="g966" transform="translate(9.239 0.912)">
            <path id="path968" d="M-106.428-98.605a16.351,16.351,0,0,1,11.2-4.422A16.411,16.411,0,0,1-78.813-86.616,16.411,16.411,0,0,1-95.224-70.205a16.411,16.411,0,0,1-16.411-16.411A16.345,16.345,0,0,1-107.7-97.279m12.474,32.544A21.883,21.883,0,0,0-73.343-86.616,21.884,21.884,0,0,0-95.224-108.5a21.883,21.883,0,0,0-21.881,21.881A21.883,21.883,0,0,0-95.224-64.735Z" transform="translate(117.105 108.497)" fill="rgba(0,0,0,0)" stroke="#12263f" stroke-miterlimit="22.926" stroke-width="2"/>
          </g>
          <g id="g970" transform="translate(10.9 2.573)">
            <path id="path972" d="M-264.164-352.7l2.1,5.059m6.786-26.5,5.059-2.1m-35.382,14.656-5.059,2.1m35.382-2.1,5.059,2.1m-13.94-23.537,2.1-5.059M-276.725-352.7l-2.1,5.059m-6.786-26.5-5.059-2.1m13.94-6.786-2.1-5.059" transform="translate(290.665 388.08)" fill="rgba(0,0,0,0)" stroke="#12263f" stroke-miterlimit="22.926" stroke-width="2"/>
          </g>
          <g id="g974" transform="translate(9.239 44.674)">
            <path id="path976" d="M-18.177-83.006A1.829,1.829,0,0,1-20-84.83v-4.68a1.829,1.829,0,0,1,1.823-1.823H21.93a1.829,1.829,0,0,1,1.823,1.823v4.68a1.829,1.829,0,0,1-1.823,1.823" transform="translate(20 91.333)" fill="rgba(0,0,0,0)" stroke="#12263f" stroke-miterlimit="22.926" stroke-width="2"/>
          </g>
          <g id="g978" transform="translate(9.239 53.001)">
            <path id="path980" d="M-245.372-83.006h-22.792a1.829,1.829,0,0,1-1.823-1.823v-4.68a1.829,1.829,0,0,1,1.823-1.823h40.106a1.829,1.829,0,0,1,1.823,1.823v4.68a1.829,1.829,0,0,1-1.823,1.823H-239.9m-1.823,0h-1.823" transform="translate(269.987 91.333)" fill="rgba(0,0,0,0)" stroke="#12263f" stroke-miterlimit="22.926" stroke-width="2"/>
          </g>
          <g id="g982" transform="translate(20.177 44.674)">
            <path id="path984" d="M0,0V16.654M21.885,0V16.654M10.943,0l0,16.654" fill="rgba(0,0,0,0)" stroke="#12263f" stroke-miterlimit="22.926" stroke-width="2"/>
          </g>
          <g id="g986" transform="translate(34.749 11.19)">
            <path id="path988" d="M0,0H1.824M3.647,1.823H5.47" fill="rgba(0,0,0,0)" stroke="#12263f" stroke-miterlimit="2.613" stroke-width="2"/>
          </g>
        </g>
      </g>
    </g>
    <g id="apreton-de-manos" transform="translate(639.446 4811.178)">
      <path id="Trazado_196359" data-name="Trazado 196359" d="M58.353,66.07c-2.985-3.908-5.537-5.55-9.756-2.337l-3.037,2.313c-.731.554-3.408.739-6,.919-.2.013-.4.03-.605.043l-.8-.34c-3.136-1.335-4.562-1.942-8.184-1.645-.731.064-1.551.151-2.414.241a59.649,59.649,0,0,1-7.965.516.994.994,0,0,0-.163-.189L17.141,63.8c-4.172-3.27-6.75-1.663-9.791,2.208L2.6,72.066C1.12,73.955-.216,75.984.029,78.028a5.377,5.377,0,0,0,1.911,3.39l3.266,2.557a5.315,5.315,0,0,1,1.457,1.708l-1.41,1.488a4.037,4.037,0,0,0-.79,4.18A5.011,5.011,0,0,0,7.7,94.427a4.568,4.568,0,0,0,1.272.185,4.647,4.647,0,0,0,.6-.055,4.414,4.414,0,0,0,.232,1.869A5.034,5.034,0,0,0,13.046,99.5a4.539,4.539,0,0,0,1.276.185,4.588,4.588,0,0,0,.6-.055,4.452,4.452,0,0,0,.232,1.873,5.022,5.022,0,0,0,3.244,3.067,4.48,4.48,0,0,0,1.272.185,4.064,4.064,0,0,0,.765-.072,3.926,3.926,0,0,0,.215.9,4.6,4.6,0,0,0,2.93,2.781,4.081,4.081,0,0,0,1.208.186,3.451,3.451,0,0,0,2.534-1.053h0v0l.378-.4,2.6,2.028a3.349,3.349,0,0,0,1.812.477,3.985,3.985,0,0,0,1.714-.4,4.628,4.628,0,0,0,2.5-3.178,4.326,4.326,0,0,0,.064-.473,4,4,0,0,0,.85.1,4.424,4.424,0,0,0,1.856-.417,4.986,4.986,0,0,0,2.749-3.51,4.618,4.618,0,0,0,.078-.992,3.964,3.964,0,0,0,1.229.193,4.454,4.454,0,0,0,1.86-.417,5.013,5.013,0,0,0,2.749-3.511,4.38,4.38,0,0,0,.078-.781,3.943,3.943,0,0,0,1.8.432,4.408,4.408,0,0,0,1.856-.417,5.008,5.008,0,0,0,2.754-3.509,4.135,4.135,0,0,0-.9-3.546,17.787,17.787,0,0,0,7.2-5.318l2.148-1.64c1.731-1.32,2.63-2.595,2.823-4.017.258-1.929-.807-3.793-2.492-6Zm-49.654,1c2.973-3.789,4.493-4.184,7.385-1.921l1.585,1.241L5.443,81.98,3.187,80.218a3.914,3.914,0,0,1-1.453-2.4c-.142-1.152.5-2.513,2.217-4.7Zm-2.621,23.7A2.343,2.343,0,0,1,6.5,88.35l2.87-3.024a2.442,2.442,0,0,1,2.131-.242,3.246,3.246,0,0,1,2.105,2,2.345,2.345,0,0,1-.412,2.423v0L10.311,92.54a2.432,2.432,0,0,1-2.122.241,3.253,3.253,0,0,1-2.111-2.007Zm5.345,5.078a2.377,2.377,0,0,1,.417-2.436L14.43,90.7a2.357,2.357,0,0,1,2.41-.536,3.25,3.25,0,0,1,2.11,2,2.362,2.362,0,0,1-.417,2.431l-2.587,2.72a2.376,2.376,0,0,1-2.414.541A3.283,3.283,0,0,1,11.423,95.852Zm5.344,5.07a2.369,2.369,0,0,1,.421-2.432l2.587-2.72v-.006a2.367,2.367,0,0,1,2.414-.535,3.262,3.262,0,0,1,2.106,2,2.361,2.361,0,0,1-.412,2.43l-2.6,2.725a2.371,2.371,0,0,1-2.4.537,3.287,3.287,0,0,1-2.115-2Zm5.491,4.064a2.181,2.181,0,0,1-.12-1.01l.392-.412s0,0,0,0v0l2.385-2.5a2.239,2.239,0,0,1,1.018.064,2.9,2.9,0,0,1,1.826,1.731,1.958,1.958,0,0,1-.309,2.015L26.078,106.3a1.922,1.922,0,0,1-2,.412,2.868,2.868,0,0,1-1.826-1.731h0ZM50.771,94.661a2.408,2.408,0,0,1-2.136.074l-6.642-5.194A.859.859,0,0,0,40.937,90.9l4.369,3.42a2.356,2.356,0,0,1,.774,2.337,3.282,3.282,0,0,1-1.792,2.29,2.367,2.367,0,0,1-2.465-.185l-4.374-3.42a.857.857,0,0,0-1.057,1.349L39.4,99.045a2.36,2.36,0,0,1,.765,2.337,3.262,3.262,0,0,1-1.792,2.286,2.365,2.365,0,0,1-2.465-.186h0l-2.994-2.35a.858.858,0,1,0-1.061,1.349l2.767,2.165a2.237,2.237,0,0,1,.03,1.016,2.891,2.891,0,0,1-1.552,1.981,1.947,1.947,0,0,1-2.041-.116l-2.178-1.7a3.683,3.683,0,0,0,.5-3.566,4.651,4.651,0,0,0-2.931-2.781,4.742,4.742,0,0,0-.464-.106,4.253,4.253,0,0,0-.068-2.72,5.013,5.013,0,0,0-3.231-3.068,4.4,4.4,0,0,0-1.877-.142,4.4,4.4,0,0,0-.237-1.856,4.976,4.976,0,0,0-3.239-3.072,4.364,4.364,0,0,0-1.873-.142,4.294,4.294,0,0,0-.237-1.856,4.968,4.968,0,0,0-3.235-3.072,4.072,4.072,0,0,0-4.085.945,6.652,6.652,0,0,0-1.129-1.323L19.043,67.415c1.336.245,3.957.048,8.692-.447.855-.086,1.67-.172,2.385-.24a10.337,10.337,0,0,1,5.348.683,11.279,11.279,0,0,0-1.646.421l-7.754,2.805c-.339.052-.652.094-.936.133-1.933.267-3.1.426-3.712,1.972a3.624,3.624,0,0,0,.864,3.622c1.611,1.861,4.386,2.548,7.334,1.856l4.378-.559c1.787-.235,3.325,1.006,4.812,2.2L51.793,90.037a2.354,2.354,0,0,1,.774,2.337,3.257,3.257,0,0,1-1.8,2.287Zm1.118-6.737,0,0-12-9.4c-1.6-1.289-3.6-2.88-6.1-2.565l-4.459.576c-3.561.829-5.292-.782-5.739-1.293a1.977,1.977,0,0,1-.558-1.873c.219-.554.438-.636,2.346-.9.318-.043.661-.09,1.044-.146a1.046,1.046,0,0,0,.163-.044l7.836-2.831a21.277,21.277,0,0,1,5.272-.774c2.513-.172,5.1-.358,6.952-1.375L58.836,83.2a17.036,17.036,0,0,1-6.948,4.722m9.764-7.083-1.56,1.189L48.03,66.317l1.6-1.217c2.926-2.23,4.442-1.812,7.354,2.015l4.67,6.113c1.688,2.213,2.311,3.583,2.156,4.73-.129.945-.816,1.86-2.161,2.884Z" transform="translate(6)" fill="#fff"/>
    </g>
  </g>
</svg>
