<svg xmlns="http://www.w3.org/2000/svg" xmlns:xlink="http://www.w3.org/1999/xlink" width="190" height="112" viewBox="0 0 190 112">
  <defs>
    <linearGradient id="linear-gradient" x1="0.5" x2="0.5" y2="1" gradientUnits="objectBoundingBox">
      <stop offset="0" stop-color="#f7ca2e" stop-opacity="0"/>
      <stop offset="0.091" stop-color="#f7ca2e" stop-opacity="0.129"/>
      <stop offset="0.283" stop-color="#f7ca2e" stop-opacity="0.388"/>
      <stop offset="0.465" stop-color="#f7ca2e" stop-opacity="0.612"/>
      <stop offset="0.633" stop-color="#f7ca2e" stop-opacity="0.78"/>
      <stop offset="0.784" stop-color="#f7ca2e" stop-opacity="0.902"/>
      <stop offset="0.911" stop-color="#f7ca2e" stop-opacity="0.969"/>
      <stop offset="1" stop-color="#f7ca2e"/>
    </linearGradient>
    <linearGradient id="linear-gradient-2" x1="0.5" x2="0.5" y2="1" gradientUnits="objectBoundingBox">
      <stop offset="0" stop-color="#b13e8d" stop-opacity="0"/>
      <stop offset="0.091" stop-color="#b13e8d" stop-opacity="0.129"/>
      <stop offset="0.283" stop-color="#b13e8d" stop-opacity="0.388"/>
      <stop offset="0.465" stop-color="#b13e8d" stop-opacity="0.612"/>
      <stop offset="0.633" stop-color="#b13e8d" stop-opacity="0.78"/>
      <stop offset="0.784" stop-color="#b13e8d"/>
      <stop offset="0.911" stop-color="#b13e8d" stop-opacity="0.969"/>
      <stop offset="1" stop-color="#b13e8d"/>
    </linearGradient>
    <filter id="Rectángulo_40720" x="41" y="4" width="108" height="108" filterUnits="userSpaceOnUse">
      <feOffset dy="3" input="SourceAlpha"/>
      <feGaussianBlur stdDeviation="3" result="blur"/>
      <feFlood flood-opacity="0.161"/>
      <feComposite operator="in" in2="blur"/>
      <feComposite in="SourceGraphic"/>
    </filter>
  </defs>
  <g id="Grupo_136878" data-name="Grupo 136878" transform="translate(-180 -1627)">
    <g id="Grupo_128321" data-name="Grupo 128321" transform="translate(0 1228)">
      <rect id="Rectángulo_40586" data-name="Rectángulo 40586" width="190" height="20" transform="translate(180 444)" fill="none"/>
      <g id="Grupo_108405" data-name="Grupo 108405" transform="translate(209.5 463)">
        <path id="Rectángulo_5242" data-name="Rectángulo 5242" d="M0,0H12a0,0,0,0,1,0,0V43.333a3,3,0,0,1-3,3H3a3,3,0,0,1-3-3V0A0,0,0,0,1,0,0Z" transform="translate(0 0)" fill="url(#linear-gradient)"/>
      </g>
      <g id="Grupo_108406" data-name="Grupo 108406" transform="translate(340 451) rotate(180)">
        <path id="Rectángulo_5242-2" data-name="Rectángulo 5242" d="M0,0H12a0,0,0,0,1,0,0V49a3,3,0,0,1-3,3H3a3,3,0,0,1-3-3V0A0,0,0,0,1,0,0Z" transform="translate(0 0)" fill="url(#linear-gradient-2)"/>
      </g>
      <g transform="matrix(1, 0, 0, 1, 180, 399)" filter="url(#Rectángulo_40720)">
        <path id="Rectángulo_40720-2" data-name="Rectángulo 40720" d="M10,0H80A10,10,0,0,1,90,10V90a0,0,0,0,1,0,0H10A10,10,0,0,1,0,80V10A10,10,0,0,1,10,0Z" transform="translate(50 10)" fill="#f6f6f6"/>
      </g>
    </g>
    <g id="Human_Resource" data-name="Human Resource" transform="translate(240.753 1646.026)">
      <path id="Trazado_195753" data-name="Trazado 195753" d="M32.384,13.559a4.745,4.745,0,1,1,4.745-4.745,4.745,4.745,0,0,1-4.745,4.745Zm0-7.314a2.569,2.569,0,1,0,2.569,2.569,2.569,2.569,0,0,0-2.569-2.569Z" transform="translate(1.863 0)" fill="#6836bf"/>
      <path id="Trazado_195754" data-name="Trazado 195754" d="M42.333,15.381a4.117,4.117,0,1,1,4.117-4.117,4.117,4.117,0,0,1-4.117,4.117Zm0-6.058a1.941,1.941,0,1,0,1.941,1.941,1.941,1.941,0,0,0-1.941-1.941Z" transform="translate(2.793 0.271)" fill="#6836bf"/>
      <path id="Trazado_195755" data-name="Trazado 195755" d="M22.333,15.381a4.117,4.117,0,1,1,4.117-4.117,4.117,4.117,0,0,1-4.117,4.117Zm0-6.058a1.941,1.941,0,1,0,1.941,1.941,1.941,1.941,0,0,0-1.941-1.941Z" transform="translate(1.034 0.271)" fill="#6836bf"/>
      <path id="Trazado_195756" data-name="Trazado 195756" d="M47.582,15.964H40.914a2.6,2.6,0,0,0-.7.1,3.051,3.051,0,0,0-2.824-1.984H29.344a3.051,3.051,0,0,0-2.824,1.983,2.6,2.6,0,0,0-.7-.1H19.155a2.76,2.76,0,0,0-2.711,2.8v6.947c0,.96.7,1.486,1.416,2.238v9.221a1.879,1.879,0,0,0,1.855,1.9h5.547a1.879,1.879,0,0,0,1.855-1.9V27.95l.308-.325.581.613V39.46a2.043,2.043,0,0,0,2.014,2.066h6.7a2.043,2.043,0,0,0,2.014-2.066V28.239l.581-.613.308.325v9.221a1.879,1.879,0,0,0,1.855,1.9h5.547a1.879,1.879,0,0,0,1.855-1.9V27.95c.713-.753,1.416-1.278,1.416-2.238V18.765a2.76,2.76,0,0,0-2.711-2.8ZM24.942,27.826v9.067H20.036V27.826c0-.962-.705-1.488-1.416-2.239V18.765a.586.586,0,0,1,.535-.625h6.668a.536.536,0,0,1,.474.354v7.133l0,.023C25.614,26.373,24.942,26.869,24.942,27.826Zm11.613.353V39.35H30.182V28.18c0-1.107-.891-1.749-1.71-2.612V17.241a.932.932,0,0,1,.871-.98h8.049a.932.932,0,0,1,.871.98v8.327C37.446,26.431,36.555,27.074,36.555,28.18Zm11.562-2.592c-.711.751-1.416,1.276-1.416,2.239v9.067H41.8V27.826c0-.958-.673-1.453-1.357-2.176l0-.023V18.495a.536.536,0,0,1,.474-.354h6.668a.586.586,0,0,1,.535.625Z" transform="translate(0.878 0.881)" fill="#6836bf"/>
      <path id="Trazado_195757" data-name="Trazado 195757" d="M58.587,25.394a1.808,1.808,0,0,0-2.578-1.274A7.444,7.444,0,0,0,52.1,33.364a1.41,1.41,0,0,1-.023,1l-.929,2.2a3.69,3.69,0,0,0-2.005.946l-3.907,3.634a.708.708,0,0,1-.451.19,9.1,9.1,0,0,0-8.2,6.145,4.278,4.278,0,0,0-.277,1.5l-.031,5.86H35.55a1.088,1.088,0,0,0-1.088,1.088V62.01A1.088,1.088,0,0,0,35.55,63.1H50.268a1.088,1.088,0,0,0,1.088-1.088V55.927a1.088,1.088,0,0,0-1.088-1.088H49.242a1.379,1.379,0,0,1,.407-.859l7.934-7.635a5.031,5.031,0,0,0,1.5-2.955,57.067,57.067,0,0,0-.492-18ZM49.18,60.922H36.638V57.015H49.18Zm7.741-17.816a2.845,2.845,0,0,1-.847,1.671L48.14,52.412a3.546,3.546,0,0,0-1.092,2.427h-8.6V48.753a6.993,6.993,0,0,1,6.436-5.243,2.89,2.89,0,0,0,1.834-.77l3.907-3.634a1.544,1.544,0,0,1,1.667-.277c.616.259.389,1.209-.055,1.7l-4.875,5.4a1.088,1.088,0,1,0,1.615,1.459l4.875-5.4c1.331-1.474,1.467-4-.5-5.052l.728-1.723a3.586,3.586,0,0,0,.078-2.55A5.235,5.235,0,0,1,56.542,26.3a54.9,54.9,0,0,1,.38,16.8Z" transform="translate(2.463 1.747)" fill="#6836bf"/>
      <path id="Trazado_195758" data-name="Trazado 195758" d="M6.951,43.389a5.031,5.031,0,0,0,1.5,2.955l7.934,7.635a1.379,1.379,0,0,1,.407.859H15.762a1.088,1.088,0,0,0-1.088,1.088v6.082A1.088,1.088,0,0,0,15.762,63.1H30.48a1.088,1.088,0,0,0,1.088-1.088V55.927a1.088,1.088,0,0,0-1.088-1.088h-.723l-.031-5.86a4.279,4.279,0,0,0-.277-1.5,9.1,9.1,0,0,0-8.2-6.145.708.708,0,0,1-.451-.19L16.89,37.513a3.69,3.69,0,0,0-2.005-.946l-.929-2.2a1.41,1.41,0,0,1-.023-1,7.444,7.444,0,0,0-3.911-9.245,1.808,1.808,0,0,0-2.578,1.274,57.062,57.062,0,0,0-.492,18Zm9.9,13.626H29.392v3.906H16.85ZM9.489,26.3a5.235,5.235,0,0,1,2.384,6.362,3.586,3.586,0,0,0,.078,2.55l.728,1.723c-1.964,1.048-1.828,3.578-.5,5.052l4.875,5.4a1.088,1.088,0,1,0,1.615-1.459l-4.875-5.4c-.444-.492-.671-1.442-.055-1.7a1.544,1.544,0,0,1,1.667.277c4.116,3.828,4.372,4.342,5.742,4.4a7,7,0,0,1,6.436,5.243v6.086h-8.6a3.546,3.546,0,0,0-1.092-2.427L9.955,44.776a2.845,2.845,0,0,1-.847-1.671,54.9,54.9,0,0,1,.38-16.8Z" transform="translate(0 1.747)" fill="#6836bf"/>
    </g>
  </g>
</svg>
