<svg xmlns="http://www.w3.org/2000/svg" width="120" height="120" viewBox="0 0 120 120">
  <g id="Grupo_137076" data-name="Grupo 137076" transform="translate(-268 -1687)">
    <circle id="Elipse_5419" data-name="Elipse 5419" cx="60" cy="60" r="60" transform="translate(268 1687)" fill="#b13e8d"/>
    <g id="mesa-redonda" transform="translate(287.999 1707.001)">
      <path id="Trazado_195759" data-name="Trazado 195759" d="M79.431,259.683a11.761,11.761,0,0,0-1.293-15.1l-5.229-5.229a32.391,32.391,0,0,0,.939-12.133,1.172,1.172,0,1,0-2.329.259,30.056,30.056,0,0,1-.544,9.938L69.3,235.743a4.556,4.556,0,1,0-6.444,6.444l4.4,4.4A30.177,30.177,0,0,1,35,260.23l1.68-1.68a4.556,4.556,0,0,0-6.444-6.443l-4.409,4.408a30.358,30.358,0,0,1-10.135-10.254c-.012-.025-.021-.051-.036-.075-.5-.841-.949-1.7-1.348-2.559a29.763,29.763,0,0,1-1.482-3.823,1.2,1.2,0,0,0-.068-.168,30.089,30.089,0,0,1-1.19-11.544,1.172,1.172,0,0,0-2.334-.211,32.4,32.4,0,0,0,1.136,11.949l-5.047,5.047A11.757,11.757,0,0,0,3.975,259.9l-.117.117a4.664,4.664,0,0,0,0,6.6l2.173,2.173a4.668,4.668,0,0,0,6.6,0l.1-.1a11.682,11.682,0,0,0,6.765,2.154,11.921,11.921,0,0,0,2.168-.2,1.172,1.172,0,1,0-.426-2.3A9.381,9.381,0,0,1,14.422,267l2.468-2.468a4.634,4.634,0,0,0,1.226-2.158,4.449,4.449,0,0,0,5.674-.508l3.036-3.035.006-.006,5.055-5.055a2.218,2.218,0,0,1,3.131,0,2.213,2.213,0,0,1,0,3.127l-3.125,3.125-.013.013-5.7,5.7a9.583,9.583,0,0,1-.989.862,1.172,1.172,0,1,0,1.414,1.869,11.817,11.817,0,0,0,1.233-1.074l5.227-5.226a32.454,32.454,0,0,0,17.494-.135l5.068,5.07a11.727,11.727,0,0,0,7.843,3.435q.239.01.477.01a11.713,11.713,0,0,0,6.709-2.1l.118.118a4.67,4.67,0,0,0,6.6,0l2.173-2.173a4.663,4.663,0,0,0,0-6.6ZM4.223,252.812a9.39,9.39,0,0,1,2.752-6.279l4.216-4.215a32.269,32.269,0,0,0,1.983,4.275l-2.327,2.326a4.446,4.446,0,0,0-.553,5.611,4.638,4.638,0,0,0-2.172,1.226l-2.456,2.456A9.382,9.382,0,0,1,4.223,252.812Zm11.01,10.057-3.407,3.406h0l-.856.856a2.324,2.324,0,0,1-3.282,0l-2.173-2.173a2.32,2.32,0,0,1,0-3.282l.838-.838.009-.009,3.417-3.416a2.322,2.322,0,0,1,3.275-.006l2.076,2.075.1.1a2.322,2.322,0,0,1,0,3.282Zm6.9-2.666a2.1,2.1,0,0,1-2.968,0L16.9,257.941l-.012-.012-1.012-1.012-1.161-1.16-.008-.007L12.5,253.545a2.1,2.1,0,0,1,0-2.968l1.923-1.923a32.661,32.661,0,0,0,3.628,4.56l-.6.6a1.172,1.172,0,0,0,1.658,1.657l.622-.622a32.537,32.537,0,0,0,4.392,3.363Zm42.379-22.8a2.216,2.216,0,0,1,3.129,0l8.841,8.841a9.467,9.467,0,0,1,1.261,11.752l-2.468-2.468a4.641,4.641,0,0,0-2.158-1.223,4.442,4.442,0,0,0-.507-5.677l-8.1-8.1A2.216,2.216,0,0,1,64.512,237.4Zm-.56,16.955.61.61a1.172,1.172,0,1,0,1.657-1.658l-.631-.631a32.616,32.616,0,0,0,3.366-4.389l2,2a2.1,2.1,0,0,1,0,2.968l-2.269,2.269-.006.005L66.5,257.7l-.006.006-2.207,2.208a2.1,2.1,0,0,1-2.969,0l-1.937-1.937A32.472,32.472,0,0,0,63.952,254.355Zm-.394,13.839a9.391,9.391,0,0,1-6.279-2.751l-4.228-4.229c.785-.3,1.56-.621,2.317-.976.658-.307,1.316-.643,1.964-1l2.334,2.333a4.45,4.45,0,0,0,5.609.553A4.638,4.638,0,0,0,66.5,264.3l2.455,2.454A9.4,9.4,0,0,1,63.558,268.193Zm14.322-3.465L75.706,266.9a2.323,2.323,0,0,1-3.281,0l-4.263-4.263a2.319,2.319,0,0,1,0-3.278l2.179-2.179a2.323,2.323,0,0,1,3.278,0l3.427,3.427h0l.836.835a2.32,2.32,0,0,1,0,3.282Zm0,0" transform="translate(-1.579 -190.84)" fill="#fff"/>
      <path id="Trazado_195760" data-name="Trazado 195760" d="M12.288,35.085a4.556,4.556,0,1,0,6.443-6.444l-4.423-4.422a30.211,30.211,0,0,1,4.039-5.191,1.264,1.264,0,0,0,.1-.086,1.173,1.173,0,0,0,.1-.123l.139-.14a30.249,30.249,0,0,1,5.794-4.531,1.186,1.186,0,0,0,.175-.085c.834-.493,1.693-.946,2.556-1.348a29.989,29.989,0,0,1,3.825-1.481,1.152,1.152,0,0,0,.2-.083,30.107,30.107,0,0,1,15.384-.563l-1.7,1.7a4.555,4.555,0,1,0,6.442,6.442l4.417-4.417A30.37,30.37,0,0,1,66.123,24.964a43.957,43.957,0,0,1,2.614,5.941,1.152,1.152,0,0,0,.079.252.016.016,0,0,1,0,0c.236.778.7.7,1.07.7h0a1.171,1.171,0,0,0,.828-.343l5.556-5.554a11.759,11.759,0,0,0,1.342-15.027l.117-.117a4.665,4.665,0,0,0,0-6.6L75.56,2.046a4.67,4.67,0,0,0-6.6,0l-.1.1a11.766,11.766,0,0,0-15.1,1.294L48.549,8.653A32.449,32.449,0,0,0,31,8.773L25.962,3.73A11.761,11.761,0,0,0,10.934,2.388l-.117-.118a4.671,4.671,0,0,0-6.6,0L2.048,4.443a4.663,4.663,0,0,0,0,6.6l.106.106a11.761,11.761,0,0,0,1.292,15.1ZM64.652,12.856l.048.049,4.387,4.385a2.1,2.1,0,0,1,0,2.968L67.16,22.185a32.677,32.677,0,0,0-3.623-4.564l.6-.6a1.172,1.172,0,1,0-1.657-1.657l-.62.62a32.509,32.509,0,0,0-4.387-3.368l1.983-1.983a2.1,2.1,0,0,1,2.97,0Zm12.716,5.167A9.385,9.385,0,0,1,74.617,24.3L70.37,28.547a42,42,0,0,0-1.964-4.292l2.338-2.338A4.445,4.445,0,0,0,71.3,16.3a4.636,4.636,0,0,0,2.173-1.227l2.456-2.456A9.379,9.379,0,0,1,77.368,18.023Zm-5.106-15A2.313,2.313,0,0,1,73.9,3.7l2.174,2.173a2.322,2.322,0,0,1,0,3.282l-.853.853-.007.007-3.4,3.4a2.323,2.323,0,0,1-3.281,0l-2.173-2.173a2.323,2.323,0,0,1,0-3.282L70.621,3.7A2.31,2.31,0,0,1,72.262,3.024ZM55.415,5.1A9.469,9.469,0,0,1,67.17,3.84L64.7,6.309a4.633,4.633,0,0,0-1.223,2.159,4.451,4.451,0,0,0-5.677.506l-8.1,8.1a2.215,2.215,0,0,1-3.129,0,2.21,2.21,0,0,1,0-3.128ZM10.633,20.545a2.1,2.1,0,0,1,0-2.968l6.662-6.66a2.1,2.1,0,0,1,2.968,0l1.914,1.914a32.684,32.684,0,0,0-4.564,3.625l-.591-.591a1.172,1.172,0,1,0-1.657,1.658l.609.609a32.481,32.481,0,0,0-3.364,4.391ZM18.026,2.636a9.387,9.387,0,0,1,6.28,2.751L28.516,9.6a32.4,32.4,0,0,0-4.276,1.98L21.92,9.259a4.449,4.449,0,0,0-5.609-.552A4.633,4.633,0,0,0,15.08,6.533L12.625,4.078A9.384,9.384,0,0,1,18.026,2.636ZM3.705,6.1,5.878,3.928a2.325,2.325,0,0,1,3.282,0l.849.85.013.012,3.4,3.4a2.322,2.322,0,0,1,0,3.282L11.25,13.645a2.323,2.323,0,0,1-3.282,0L3.705,9.383a2.32,2.32,0,0,1,0-3.282Zm.138,6.734L6.311,15.3a4.639,4.639,0,0,0,2.158,1.223A4.441,4.441,0,0,0,8.976,22.2l8.1,8.1a2.212,2.212,0,0,1-3.128,3.129L5.1,24.587A9.464,9.464,0,0,1,3.843,12.835Zm0,0" transform="translate(0)" fill="#fff"/>
      <path id="Trazado_195761" data-name="Trazado 195761" d="M119.906,279.418l-5.752,5.1a2.2,2.2,0,0,0-.187,3.105l3.169,3.575.01.012.009.008,3.04,3.429a2.2,2.2,0,0,0,3.1.187l5.752-5.1a2.2,2.2,0,0,0,.187-3.105l-6.227-7.024A2.2,2.2,0,0,0,119.906,279.418Zm1.447,1.849,2.26,2.548-5.5,4.948-2.3-2.589Zm.5,11.715-2.185-2.465,5.5-4.947,2.221,2.505Zm0,0" transform="translate(-95.692 -235.291)" fill="#fff"/>
      <path id="Trazado_195762" data-name="Trazado 195762" d="M289.313,130.3l-8.251,7.312a2.379,2.379,0,0,0-.2,3.358l5.989,6.756a2.364,2.364,0,0,0,1.637.8c.049,0,.1,0,.146,0a2.361,2.361,0,0,0,1.575-.6l8.251-7.313a2.379,2.379,0,0,0,.2-3.358l-5.988-6.755A2.382,2.382,0,0,0,289.313,130.3Zm7.6,8.537a.028.028,0,0,1-.012.024h0l-8.251,7.312a.026.026,0,0,1-.025.009.032.032,0,0,1-.024-.012l-5.988-6.756a.031.031,0,0,1-.009-.025.035.035,0,0,1,.012-.024l8.251-7.312a.035.035,0,0,1,.023-.009.033.033,0,0,1,.026.012l5.989,6.756A.029.029,0,0,1,296.914,138.842Zm0,0" transform="translate(-236.468 -109.44)" fill="#fff"/>
    </g>
  </g>
</svg>
