<svg xmlns="http://www.w3.org/2000/svg" width="120" height="120" viewBox="0 0 120 120">
  <g id="Grupo_137077" data-name="Grupo 137077" transform="translate(-583 -1687)">
    <circle id="Elipse_6073" data-name="Elipse 6073" cx="60" cy="60" r="60" transform="translate(583 1687)" fill="#b13e8d"/>
    <g id="marca" transform="translate(598.435 1705)">
      <path id="Trazado_195763" data-name="Trazado 195763" d="M197.007,146.5v-1.243a1.172,1.172,0,0,0-2.344,0V146.5a1.172,1.172,0,0,0,2.344,0Z" transform="translate(-158.644 -121.576)" fill="#fff"/>
      <path id="Trazado_195764" data-name="Trazado 195764" d="M263.868,147.676a1.172,1.172,0,0,0,1.172-1.172v-1.243a1.172,1.172,0,1,0-2.344,0V146.5A1.172,1.172,0,0,0,263.868,147.676Z" transform="translate(-216.047 -121.576)" fill="#fff"/>
      <path id="Trazado_195765" data-name="Trazado 195765" d="M202.348,192.571a7.817,7.817,0,0,0,9.831,0,1.172,1.172,0,1,0-1.465-1.829,5.487,5.487,0,0,1-6.9,0,1.172,1.172,0,0,0-1.465,1.829Z" transform="translate(-164.758 -160.721)" fill="#fff"/>
      <path id="Trazado_195766" data-name="Trazado 195766" d="M83.393,63.933a1.172,1.172,0,0,0,1.172-1.172V43.009a2.041,2.041,0,0,0-2.037-2.039H54.448a2.041,2.041,0,0,0-2.039,2.039V44.15H48.993V39.594h.068a7.463,7.463,0,0,0,7.454-7.456v-.032h3.257a3.637,3.637,0,0,0,3.633-3.633V26a3.637,3.637,0,0,0-2.112-3.3l1.57-11.07A4.682,4.682,0,0,0,58.231,6.3H56.842L56.3,5.257A9.709,9.709,0,0,0,47.657,0H31.726a9.79,9.79,0,0,0-7.832,3.943,9.688,9.688,0,0,0-1.82,7.174l.309,2.187a1.172,1.172,0,0,0,2.321-.328l-.31-2.188a7.359,7.359,0,0,1,1.383-5.45,7.436,7.436,0,0,1,5.949-2.995H47.657a7.372,7.372,0,0,1,6.566,3.992l.866,1.672a1.172,1.172,0,0,0,1.041.633h2.1a2.338,2.338,0,0,1,2.313,2.665L58.974,22.37H56.515V17.162a4.677,4.677,0,0,0-4.671-4.672H50.113a1.624,1.624,0,0,0-1.622,1.622V14.5a3.067,3.067,0,0,1-3.065,3.063H29.667A1.172,1.172,0,0,0,28.5,18.735V22.37H26.037l-.574-4.045a1.172,1.172,0,0,0-2.32.33l.575,4.05A3.637,3.637,0,0,0,21.6,26v2.47a3.638,3.638,0,0,0,3.634,3.633H28.5v.032a7.463,7.463,0,0,0,7.454,7.456h.069V44.15H30.534a7.848,7.848,0,0,0-6.167,3.035l-6.008,7.8V50.237a5.51,5.51,0,0,0,4.614-5.429V40.856a5.508,5.508,0,0,0-5.5-5.5H14.384V31.4a3.872,3.872,0,0,0-7.744,0V65.389a7.9,7.9,0,0,0,2.639,5.955A7.766,7.766,0,0,0,20.09,70.8l6.274-6.462c0,2.49,0,13.024,0,13.707A1.955,1.955,0,0,0,28.317,80H56.695a1.955,1.955,0,0,0,1.953-1.953v-2.2h2.824v1.933A2.226,2.226,0,0,0,63.7,80h9.584A2.226,2.226,0,0,0,75.5,77.776V75.844h7.025A2.041,2.041,0,0,0,84.565,73.8V68.229a1.172,1.172,0,0,0-2.344,0V73.5H75.09a3.859,3.859,0,0,0-3.442-2.122h-6.32A3.859,3.859,0,0,0,61.885,73.5H54.752V43.314H82.221V62.761A1.172,1.172,0,0,0,83.393,63.933ZM52.409,46.681,48.22,50.555a.34.34,0,0,1-.5-.038l-2.263-2.842a12.638,12.638,0,0,0,2.682-1.182h4.267ZM36.87,46.494a12.636,12.636,0,0,0,2.682,1.182c-2.286,2.767-2.205,2.947-2.5,2.969a.336.336,0,0,1-.257-.091L32.4,46.494Zm4.166,3.081,1.163-1.46c.1,0,.2.006.307.006s.2,0,.307-.006l1.163,1.46,2.035,17.6-3.505,3.252L39,67.176Zm18.737-24.86A1.291,1.291,0,0,1,61.062,26v2.47a1.291,1.291,0,0,1-1.289,1.289H56.516V24.714ZM25.238,29.762a1.291,1.291,0,0,1-1.291-1.289V26a1.291,1.291,0,0,1,1.291-1.289H28.5v5.049H25.238Zm5.6,2.375V19.907H45.426a5.415,5.415,0,0,0,5.4-5.073h1.021a2.33,2.33,0,0,1,2.327,2.329V32.138a5.117,5.117,0,0,1-5.11,5.112H35.949a5.117,5.117,0,0,1-5.11-5.112Zm15.81,7.456v5.05a8.191,8.191,0,0,1-8.287,0v-5.05ZM8.984,31.4a1.529,1.529,0,0,1,3.057,0v4.559A1.743,1.743,0,0,0,13.781,37.7H17.47a3.163,3.163,0,0,1,2.914,1.942H14.806a1.172,1.172,0,0,0,0,2.344h5.823v1.852H14.806a1.172,1.172,0,0,0,0,2.344h5.506a3.159,3.159,0,0,1-2.841,1.788H8.984ZM65.327,73.721h6.32a1.514,1.514,0,0,1,1.512,1.512v2.423H63.815V75.233A1.514,1.514,0,0,1,65.327,73.721ZM56.3,75.844v1.813h-27.6V58.8a1.172,1.172,0,0,0-2.344,0v2.179L18.381,69.2a5.4,5.4,0,0,1-7.556.385,5.554,5.554,0,0,1-1.842-4.194V50.309h7.031V58.42s0,.006,0,.009v3.636a1.172,1.172,0,1,0,2.344,0V58.818l7.864-10.2a5.475,5.475,0,0,1,2.923-1.937L35.2,52.273a2.675,2.675,0,0,0,3.123.377L36.649,67.107a1.965,1.965,0,0,0,.613,1.654l3.916,3.633a1.963,1.963,0,0,0,2.656,0l3.917-3.635a1.964,1.964,0,0,0,.611-1.655L46.69,52.651a2.678,2.678,0,0,0,3.122-.376l2.6-2.4V73.8a2.041,2.041,0,0,0,2.039,2.039H56.3Z" fill="#fff"/>
      <path id="Trazado_195767" data-name="Trazado 195767" d="M362.653,324.409c-.549-1.69-2.589-2.62-5.064-2.363-.521-2.434-2.035-4.086-3.812-4.086s-3.291,1.652-3.812,4.086c-2.475-.257-4.515.673-5.064,2.363s.555,3.641,2.708,4.888c-1.009,2.275-.755,4.5.682,5.546a3.025,3.025,0,0,0,1.809.561,5.717,5.717,0,0,0,3.677-1.626c1.852,1.663,4.048,2.11,5.486,1.065s1.691-3.271.682-5.546C362.1,328.049,363.2,326.1,362.653,324.409Zm-4.26,3.061a1.754,1.754,0,0,0-.778,2.393c.751,1.417.746,2.738.27,3.084s-1.735-.058-2.85-1.21a1.754,1.754,0,0,0-2.516,0c-1.115,1.152-2.373,1.556-2.85,1.21s-.481-1.668.27-3.084a1.754,1.754,0,0,0-.778-2.393c-1.44-.7-2.213-1.777-2.031-2.337s1.437-.973,3.016-.7a1.754,1.754,0,0,0,2.036-1.479c.225-1.587,1.006-2.654,1.595-2.654s1.37,1.066,1.595,2.654a1.754,1.754,0,0,0,2.036,1.479c1.579-.277,2.835.137,3.017.7S359.833,326.765,358.392,327.47Z" transform="translate(-285.29 -268.279)" fill="#fff"/>
    </g>
  </g>
</svg>
