<svg xmlns="http://www.w3.org/2000/svg" width="120" height="120" viewBox="0 0 120 120">
  <g id="Grupo_137079" data-name="Grupo 137079" transform="translate(-1213 -1687)">
    <circle id="Elipse_6075" data-name="Elipse 6075" cx="60" cy="60" r="60" transform="translate(1213 1687)" fill="#b13e8d"/>
    <g id="amigos" transform="translate(1228 1673.822)">
      <path id="Trazado_195794" data-name="Trazado 195794" d="M87.056,75.669V53.359a19.181,19.181,0,0,0-37.69-5.035,29.962,29.962,0,0,0-9.916.2,1.307,1.307,0,0,0,.489,2.567,27.34,27.34,0,0,1,8.914-.2,19.3,19.3,0,0,0-.158,2.469v8.182c-.126-.005-7.008-.01-7.008-.01a8.866,8.866,0,0,0-8.678,7.105,18.5,18.5,0,0,0-1.958-.712V66.107a12.746,12.746,0,0,0,2.76-5.031,8.114,8.114,0,0,0,3.343-3.689c1.076-2.217.723-4.462-1.481-5.518a3.826,3.826,0,0,0-1.381-.369V45.964a8.862,8.862,0,0,0-8.852-8.852H18.811a8.862,8.862,0,0,0-8.852,8.852V51.5a3.819,3.819,0,0,0-1.381.369c-2.2,1.057-2.557,3.3-1.481,5.518a8.111,8.111,0,0,0,3.343,3.689,12.747,12.747,0,0,0,2.76,5.032v1.818A18.553,18.553,0,0,0,0,85.69a1.884,1.884,0,0,0,1.882,1.882H17.273a29.449,29.449,0,0,0,8.7,12.461,18.521,18.521,0,0,0-3.093,10.249,1.884,1.884,0,0,0,1.882,1.881H65.244a1.884,1.884,0,0,0,1.882-1.882,18.554,18.554,0,0,0-13.2-17.765v-1.99A12.717,12.717,0,0,0,55.9,87.571H69.934a26.747,26.747,0,0,1-4.067,6.879A1.307,1.307,0,1,0,67.894,96.1a29.326,29.326,0,0,0,4.836-8.528H88.118A1.884,1.884,0,0,0,90,85.69a18.515,18.515,0,0,0-2.944-10.021ZM51.308,53.359a16.567,16.567,0,1,1,33.134,0v19.1A18.458,18.458,0,0,0,76.8,67.926v-2.49a12.793,12.793,0,0,0,3.241-8.519V50.71a5.331,5.331,0,0,0-5.325-5.325H60.972a5.331,5.331,0,0,0-5.325,5.325v6.206a12.794,12.794,0,0,0,3.3,8.59v2.417a18.487,18.487,0,0,0-1.958.713,8.883,8.883,0,0,0-5.684-6.583v-8.7ZM72.916,65.383,69.752,67.51a3.407,3.407,0,0,1-3.816,0l-3.165-2.127a10.186,10.186,0,0,1-4.511-8.467V50.71A2.714,2.714,0,0,1,60.972,48H74.716a2.714,2.714,0,0,1,2.711,2.711v6.206a10.186,10.186,0,0,1-4.511,8.467ZM61.564,67.721l2.914,1.959a6.011,6.011,0,0,0,6.731,0l2.977-2v2.059a6.311,6.311,0,0,1-12.622,0V67.721ZM55.333,83.236a1.642,1.642,0,0,0-1.066,1.175,10.143,10.143,0,0,1-4.211,6.05L46.9,92.582a3.394,3.394,0,0,1-3.8,0l-3.156-2.121a10.145,10.145,0,0,1-4.211-6.051,1.641,1.641,0,0,0-1.066-1.174,5.072,5.072,0,0,1-2.331-2.544c-.718-1.588.5-2.438,1.1-2.046a1.307,1.307,0,0,0,2.008-1.1V74.251A3.053,3.053,0,0,1,38.5,71.2H51.5a3.053,3.053,0,0,1,3.049,3.049v3.292a1.307,1.307,0,0,0,2.008,1.1c.793-.333,2.04.147,1.1,2.046a5.2,5.2,0,0,1-2.33,2.544Zm-16.644,9.53,2.953,1.985a6,6,0,0,0,6.716,0l2.953-1.985v1.561a6.311,6.311,0,0,1-12.622,0Zm3-28.622h6.628a6.248,6.248,0,0,1,6.166,5.292,5.628,5.628,0,0,0-2.978-.849H38.5a5.627,5.627,0,0,0-2.978.849A6.248,6.248,0,0,1,41.686,64.145Zm-25.872,4.2,2.953,1.985a6,6,0,0,0,6.716,0l2.953-1.985v1.562a6.311,6.311,0,0,1-12.622,0Zm3-28.622h6.628a6.248,6.248,0,0,1,6.166,5.292,5.627,5.627,0,0,0-2.978-.849H15.622a5.627,5.627,0,0,0-2.978.849,6.248,6.248,0,0,1,6.166-5.292ZM11.793,58.817a5.2,5.2,0,0,1-2.331-2.544,2.363,2.363,0,0,1-.3-1.509.9.9,0,0,1,1.407-.538,1.178,1.178,0,0,0,1.33.043,1.307,1.307,0,0,0,.678-1.146V49.832a3.053,3.053,0,0,1,3.049-3.049H28.628a3.053,3.053,0,0,1,3.049,3.049v3.292a1.307,1.307,0,0,0,.678,1.146,1.132,1.132,0,0,0,1.33-.043c.456-.476,1.291.014,1.407.538a2.527,2.527,0,0,1-.3,1.509,5.2,5.2,0,0,1-2.33,2.544,1.641,1.641,0,0,0-1.067,1.175,10.144,10.144,0,0,1-4.211,6.05l-3.156,2.121a3.393,3.393,0,0,1-3.8,0l-3.156-2.121a10.146,10.146,0,0,1-4.211-6.05,1.64,1.64,0,0,0-1.066-1.175Zm1.442,11.843a8.922,8.922,0,0,0,17.782,0,15.853,15.853,0,0,1,1.818.775v4.482a3.818,3.818,0,0,0-1.381.369c-1.614.76-2.851,2.609-1.481,5.518a8.728,8.728,0,0,0,2.5,3.152H2.63a15.942,15.942,0,0,1,10.6-14.3Zm6.837,16.911H34.1a12.716,12.716,0,0,0,1.974,2.955v1.991a18.48,18.48,0,0,0-8.513,5.443,26.853,26.853,0,0,1-7.491-10.388ZM64.5,109.549H25.505a15.953,15.953,0,0,1,10.617-14.3,8.925,8.925,0,0,0,17.755,0A15.943,15.943,0,0,1,64.5,109.549ZM57.53,84.958a8.727,8.727,0,0,0,2.5-3.152c1.37-2.909.133-4.758-1.481-5.518a3.827,3.827,0,0,0-1.381-.369V71.436A15.863,15.863,0,0,1,59,70.657a8.925,8.925,0,0,0,17.755,0,15.96,15.96,0,0,1,10.617,14.3Z" fill="#fff"/>
      <circle id="Elipse_6089" data-name="Elipse 6089" cx="1.519" cy="1.519" r="1.519" transform="translate(16.13 52.584)" fill="#fff"/>
      <circle id="Elipse_6090" data-name="Elipse 6090" cx="1.519" cy="1.519" r="1.519" transform="translate(24.94 52.584)" fill="#fff"/>
      <path id="Trazado_195795" data-name="Trazado 195795" d="M104.653,180.23a5.184,5.184,0,0,0,6.825,0,1.307,1.307,0,0,0-1.846-1.851,2.626,2.626,0,0,1-3.134,0,1.307,1.307,0,0,0-1.845,1.851Z" transform="translate(-85.94 -118.539)" fill="#fff"/>
      <circle id="Elipse_6091" data-name="Elipse 6091" cx="1.519" cy="1.519" r="1.519" transform="translate(39.005 77.004)" fill="#fff"/>
      <circle id="Elipse_6092" data-name="Elipse 6092" cx="1.519" cy="1.519" r="1.519" transform="translate(47.815 77.004)" fill="#fff"/>
      <path id="Trazado_195796" data-name="Trazado 195796" d="M239.765,317.3a2.626,2.626,0,0,1-3.134,0,1.307,1.307,0,0,0-1.845,1.851,5.185,5.185,0,0,0,6.825,0,1.307,1.307,0,0,0-1.845-1.851Z" transform="translate(-193.198 -233.038)" fill="#fff"/>
      <circle id="Elipse_6093" data-name="Elipse 6093" cx="1.519" cy="1.519" r="1.519" transform="translate(61.88 52.413)" fill="#fff"/>
      <circle id="Elipse_6094" data-name="Elipse 6094" cx="1.519" cy="1.519" r="1.519" transform="translate(70.69 52.413)" fill="#fff"/>
      <path id="Trazado_195797" data-name="Trazado 195797" d="M369.9,177.4a2.626,2.626,0,0,1-3.134,0,1.307,1.307,0,1,0-1.845,1.851,5.184,5.184,0,0,0,6.825,0A1.307,1.307,0,1,0,369.9,177.4Z" transform="translate(-300.455 -117.733)" fill="#fff"/>
    </g>
  </g>
</svg>
