<svg xmlns="http://www.w3.org/2000/svg" xmlns:xlink="http://www.w3.org/1999/xlink" width="400" height="288.756" viewBox="0 0 400 288.756">
  <defs>
    <clipPath id="clip-path">
      <circle id="Elipse_6098" data-name="Elipse 6098" cx="23.054" cy="23.054" r="23.054" fill="#fff"/>
    </clipPath>
  </defs>
  <g id="Grupo_137147" data-name="Grupo 137147" transform="translate(-165 -415.693)">
    <g id="Grupo_137097" data-name="Grupo 137097" transform="translate(177.368 446.268)">
      <path id="Trazado_195810" data-name="Trazado 195810" d="M1410.539,826.86l-.51-.313c29.016-47.189,44.137-89.825,44.943-126.723.833-38.159-13.963-61.492-26.522-74.346a85.9,85.9,0,0,0-44.463-24.181c-15.573-3.044-30.814-1.11-41.814,5.306l-.3-.517c11.125-6.489,26.519-8.45,42.231-5.377a86.513,86.513,0,0,1,44.777,24.35c12.639,12.936,27.53,36.41,26.693,74.778C1454.763,736.843,1439.612,779.579,1410.539,826.86Z" transform="translate(-1072.353 -585.887)" fill="#e5e5ff"/>
      <path id="Trazado_195811" data-name="Trazado 195811" d="M606.959,617.1c-13.55-29.356-39.873-52.3-72.616-56.289-26.123-3.182-52.394-3.608-78.631-5.209-27.69-1.69-54.8-6.828-82.164-11.33-17.565-2.89-32.953,1.378-49.983,7.557-23.263,8.439-45.744,35.686-55.888,57.485-24.44,52.519-10.941,118.58,10.6,169.758,1.055,2.507,8.329,22.458,10.509,22.458H573.638c17.185-25.2,31.269-52.921,39.088-81.542C622.018,685.974,621.919,649.506,606.959,617.1Z" transform="translate(-245.515 -543.344)" fill="#f7ca18" opacity="0.203"/>
      <path id="Trazado_195812" data-name="Trazado 195812" d="M231.53,748.543c-11.185-34.877-16.109-65.2-14.637-90.141,1.224-20.74,6.871-37.966,16.782-51.2,22.709-30.319,60.64-29.72,61.022-29.71l-.015.6c-.368-.011-38.013-.6-60.532,29.476-9.838,13.138-15.443,30.254-16.659,50.875-1.467,24.861,3.449,55.113,14.61,89.917Z" transform="translate(-216.638 -569.312)" fill="#e5e5ff"/>
    </g>
    <g id="Grupo_137109" data-name="Grupo 137109" transform="translate(253.922 415.693)">
      <g id="Grupo_137098" data-name="Grupo 137098" transform="translate(0 0)">
        <path id="Trazado_195910" data-name="Trazado 195910" d="M30.8,0H188.357a30.8,30.8,0,0,1,30.8,30.8V182.778a30.8,30.8,0,0,1-30.8,30.8H30.8A30.8,30.8,0,0,1,0,182.778V30.8A30.8,30.8,0,0,1,30.8,0Z" transform="translate(0.299 0.299)" fill="#e5e5ff"/>
        <path id="Trazado_195813" data-name="Trazado 195813" d="M748.332,629.875h-204.4a7.687,7.687,0,0,1-7.678-7.678V423.371a7.687,7.687,0,0,1,7.678-7.678h204.4a7.687,7.687,0,0,1,7.678,7.678V622.2A7.687,7.687,0,0,1,748.332,629.875Zm-204.4-213.583a7.087,7.087,0,0,0-7.079,7.079V622.2a7.087,7.087,0,0,0,7.079,7.079h204.4a7.087,7.087,0,0,0,7.079-7.079V423.371a7.087,7.087,0,0,0-7.079-7.079Z" transform="translate(-536.25 -415.693)" fill="#cbcbff"/>
      </g>
      <g id="Grupo_137099" data-name="Grupo 137099" transform="translate(132.934 25.183)">
        <rect id="Rectángulo_44188" data-name="Rectángulo 44188" width="46.707" height="3.408" transform="translate(14.671)" fill="#9192ff"/>
        <rect id="Rectángulo_44189" data-name="Rectángulo 44189" width="74.418" height="3.408" transform="translate(0 14.671)" fill="#b7b7ff"/>
        <rect id="Rectángulo_44190" data-name="Rectángulo 44190" width="67.026" height="3.408" transform="translate(0 24.751)" fill="#b7b7ff"/>
        <rect id="Rectángulo_44191" data-name="Rectángulo 44191" width="59.328" height="3.408" transform="translate(0 34.83)" fill="#cbcbff"/>
        <rect id="Rectángulo_44192" data-name="Rectángulo 44192" width="74.418" height="3.408" transform="translate(0 44.91)" fill="#cbcbff"/>
        <rect id="Rectángulo_44193" data-name="Rectángulo 44193" width="54.932" height="3.408" transform="translate(0 54.99)" fill="#cbcbff"/>
      </g>
      <g id="Grupo_137100" data-name="Grupo 137100" transform="translate(16.098 135.463)">
        <rect id="Rectángulo_44194" data-name="Rectángulo 44194" width="71.423" height="3.408" fill="#b7b7ff"/>
        <rect id="Rectángulo_44195" data-name="Rectángulo 44195" width="184.672" height="3.408" transform="translate(0.205 9.281)" fill="#cbcbff"/>
      </g>
      <g id="Grupo_137103" data-name="Grupo 137103" transform="translate(16.21 25.183)">
        <rect id="Rectángulo_44196" data-name="Rectángulo 44196" width="86.009" height="91.024" fill="#fff"/>
        <g id="Grupo_137101" data-name="Grupo 137101" transform="translate(7.778 19.561)">
          <rect id="Rectángulo_44197" data-name="Rectángulo 44197" width="5.98" height="20.934" transform="translate(0 40.568)" fill="#b7b7ff"/>
          <rect id="Rectángulo_44198" data-name="Rectángulo 44198" width="5.98" height="17.983" transform="translate(10.746 43.519)" fill="#e0e0ff"/>
          <rect id="Rectángulo_44199" data-name="Rectángulo 44199" width="5.98" height="29.388" transform="translate(21.491 32.114)" fill="#b7b7ff"/>
          <rect id="Rectángulo_44200" data-name="Rectángulo 44200" width="5.98" height="27.283" transform="translate(32.237 34.219)" fill="#e0e0ff"/>
          <rect id="Rectángulo_44201" data-name="Rectángulo 44201" width="5.98" height="36.701" transform="translate(42.982 24.801)" fill="#b7b7ff"/>
          <rect id="Rectángulo_44202" data-name="Rectángulo 44202" width="5.98" height="41.789" transform="translate(53.728 19.713)" fill="#e0e0ff"/>
          <rect id="Rectángulo_44203" data-name="Rectángulo 44203" width="5.98" height="46.326" transform="translate(64.474 15.176)" fill="#b7b7ff"/>
          <path id="Trazado_195814" data-name="Trazado 195814" d="M653.528,631.59l-11.293-4.517.216-.539,10.973,4.389L664.6,621.67l10.429.243L706.471,602.5l.305.494-31.584,19.5-10.384-.242Z" transform="translate(-640.837 -602.5)" fill="#b7b7ff"/>
        </g>
        <g id="Grupo_137102" data-name="Grupo 137102" transform="translate(6.689 18.034)">
          <rect id="Rectángulo_44204" data-name="Rectángulo 44204" width="12.269" height="5.101" fill="#b7b7ff"/>
          <rect id="Rectángulo_44205" data-name="Rectángulo 44205" width="11.477" height="0.599" transform="translate(16.323 2.925)" fill="#b7b7ff"/>
        </g>
      </g>
      <g id="Grupo_137105" data-name="Grupo 137105" transform="translate(134.751 95.641)">
        <circle id="Elipse_6095" data-name="Elipse 6095" cx="13.394" cy="13.394" r="13.394" transform="translate(38.167 0.001)" fill="#fff"/>
        <g id="Grupo_137104" data-name="Grupo 137104">
          <path id="Trazado_195815" data-name="Trazado 195815" d="M1112.228,841.785a13.4,13.4,0,0,1-2.073-26.634,13.687,13.687,0,0,1,2.073-.157,13.4,13.4,0,0,1,0,26.791Z" transform="translate(-1098.835 -814.994)" fill="#fff"/>
          <path id="Trazado_195816" data-name="Trazado 195816" d="M1148.171,828.392l-2.073-13.241a13.69,13.69,0,0,1,2.073-.157,13.337,13.337,0,0,1,9.969,4.459Z" transform="translate(-1134.778 -814.994)" fill="#b7b7ff"/>
        </g>
      </g>
      <g id="Grupo_137108" data-name="Grupo 137108" transform="translate(17.669 160.908)">
        <g id="Grupo_137106" data-name="Grupo 137106">
          <rect id="Rectángulo_44206" data-name="Rectángulo 44206" width="183.804" height="35.329" fill="#fff"/>
        </g>
        <g id="Grupo_137107" data-name="Grupo 137107" transform="translate(0.089 0.079)">
          <path id="Trazado_195817" data-name="Trazado 195817" d="M794.64,1123.591H610.392v-35.779H794.64Zm-183.8-.449h183.35v-34.88H610.841Z" transform="translate(-610.392 -1087.813)" fill="#b7b7ff"/>
          <rect id="Rectángulo_44207" data-name="Rectángulo 44207" width="183.799" height="0.449" transform="translate(0.224 28.263)" fill="#b7b7ff"/>
          <rect id="Rectángulo_44208" data-name="Rectángulo 44208" width="183.799" height="0.449" transform="translate(0.224 21.198)" fill="#b7b7ff"/>
          <rect id="Rectángulo_44209" data-name="Rectángulo 44209" width="183.799" height="0.449" transform="translate(0.224 14.131)" fill="#b7b7ff"/>
          <rect id="Rectángulo_44210" data-name="Rectángulo 44210" width="183.799" height="0.449" transform="translate(0.224 7.066)" fill="#b7b7ff"/>
          <rect id="Rectángulo_44211" data-name="Rectángulo 44211" width="0.449" height="35.329" transform="translate(153.166 0.224)" fill="#b7b7ff"/>
          <rect id="Rectángulo_44212" data-name="Rectángulo 44212" width="0.449" height="35.329" transform="translate(122.533 0.224)" fill="#b7b7ff"/>
          <rect id="Rectángulo_44213" data-name="Rectángulo 44213" width="0.449" height="35.329" transform="translate(91.9 0.224)" fill="#b7b7ff"/>
          <rect id="Rectángulo_44214" data-name="Rectángulo 44214" width="0.449" height="35.329" transform="translate(61.266 0.224)" fill="#b7b7ff"/>
          <rect id="Rectángulo_44215" data-name="Rectángulo 44215" width="0.449" height="35.329" transform="translate(30.633 0.224)" fill="#b7b7ff"/>
        </g>
        <path id="Trazado_195818" data-name="Trazado 195818" d="M630.587,1135.938c2.672-3.723,3.25-8.516,5.636-12.436a10.772,10.772,0,0,1,4.839-4.664c3.677-1.474,4.615,3.271,4.693,5.906.115,3.876-.528,8.083,2.674,10.993a4.242,4.242,0,0,0,3.926,1.166c1.73-.459,2.806-2.044,3.662-3.5,2.451-4.167,4.008-8.944,5.711-13.451.86-2.277,1.953-5.193,4.206-6.469,3.211-1.818,3.562,2.205,3.554,4.325-.008,2.324.016,4.647.036,6.971.01,1.117-.22,3.447,1.093,4.069.772.366,1.385-.333,1.818-.9.377-.489.639-1.06,1.015-1.546a1.665,1.665,0,0,1,1.307-.788c.587-.049.867-.055,1.266.485a3.238,3.238,0,0,1,.419,1.078c.462,1.743-.012,3.718.975,5.328a3.175,3.175,0,0,0,2.844,1.615c2.243-.354,2.814-4.011,3.083-5.768a57.622,57.622,0,0,1,1.345-6.985c.652-2.312,1.5-5.072,3.255-6.8a3.4,3.4,0,0,1,2.58-1.2c1.446.162,1.9,1.794,2.252,2.964a28.3,28.3,0,0,1,1.273,8.166c0,1.908-.556,4.295.715,5.946a2.909,2.909,0,0,0,2.948,1.118c1.618-.4,2.01-1.975,2.338-3.4a6.012,6.012,0,0,1,.222-.848c.315-.8.441-.9,1.307-.932.954-.039.991.184,1.145.975a22.6,22.6,0,0,0,.314,2.389c.3,1,1,1.913,2.156,1.569a3.578,3.578,0,0,0,1.985-2.417c1.011-2.765.917-5.826,1.067-8.719a14.219,14.219,0,0,1,1.139-5.715c.576-1.132,2.277-2.965,3.592-1.771,1.711,1.554,1.544,5.342,1.583,7.432.084,4.486-.669,8.99-.042,13.461.234,1.672.709,4.168,2.564,4.8,2.57.876,4.462-1.922,5.145-3.968.543-1.627.667-3.33,1.053-4.991.2-.873.514-2.469,1.706-1.97,1.028.43,1.452,1.884,2.355,2.541,2.919,2.123,4.706-2.018,5.049-4.26.5-3.276-.015-6.885,1.211-10.02a4.433,4.433,0,0,1,1.525-2.113c1.783-1.174,3.539.45,4.076,2.111a13.859,13.859,0,0,1,.355,3.98c.026,1.419.064,2.838.09,4.257.044,2.344-.167,4.737-.016,7.073a4.934,4.934,0,0,0,2.122,4.019c3.521,2.3,7.639-1.289,9.886-3.807a30.281,30.281,0,0,0,5.592-9.832,26.9,26.9,0,0,1,2.381-5.276c.573-.893,2.168-3.035,3.476-2.444.852.385,1.135,1.927,1.319,2.721a28.451,28.451,0,0,1,.569,4.084c.212,2.6.227,5.216.275,7.828.04,2.211.228,5.546,2.685,6.441,3.838,1.4,5.668-4.1,6.731-6.636.88-2.1,1.952-4.955,4-6.2,1.74-1.063,2.951.576,3.595,2.035a11.556,11.556,0,0,1,.954,4.478c.014,1.065-.07,2.4,1.1,2.914,2.547,1.122,4.866-3.09,5.856-4.75.9-1.513,1.588-3.1,2.344-4.688.95-1.995,4.062-5.808,5.356-1.986a11.6,11.6,0,0,1,.221,4.491c-.109,1.691-.23,3.386-.177,5.082.062,1.958.416,6.231,3.371,5.777,1.791-.275,3.635-2.247,4.976-3.365a65.377,65.377,0,0,0,5.58-5.257c.265-.28-.158-.7-.424-.424a65.3,65.3,0,0,1-5.58,5.257,40.557,40.557,0,0,1-3.261,2.534,2.164,2.164,0,0,1-3.517-.981c-1.159-3-.453-6.7-.3-9.818.092-1.854-.14-6.1-2.98-5.581-1.7.308-2.876,2.143-3.587,3.558-.806,1.6-1.466,3.256-2.373,4.812a13.451,13.451,0,0,1-3.435,4.416c-1.13.781-2.454.412-2.581-1.107-.058-.693.017-1.383-.065-2.079-.236-2.01-1-5.331-3.177-6.145-3.02-1.129-5.22,3.953-6.08,5.942-.88,2.036-1.562,4.645-3.189,6.234-1.147,1.12-3.008,1.509-4.181.213a6.439,6.439,0,0,1-1.194-3.66c-.466-4.733.239-9.623-1.111-14.264-.39-1.338-1.131-2.991-2.787-2.405-2.777.983-4.041,4.59-4.987,7.075-1.512,3.973-3.188,7.776-6.135,10.935-1.7,1.822-4.164,4.075-6.825,4.021-3.493-.071-3.928-3.555-3.827-6.226.1-2.612,0-5.231-.062-7.842-.046-2.1.237-4.613-.8-6.537a3.521,3.521,0,0,0-3.514-1.947,4.062,4.062,0,0,0-2.641,2.442c-1.336,2.866-.983,6.323-1.284,9.39-.172,1.751-.484,4.757-2.534,5.366-2.579.767-2.661-3.109-4.83-3.183-2.3-.078-2.319,5.446-2.717,6.9-.491,1.793-1.424,3.933-3.466,4.322a2.335,2.335,0,0,1-2.6-1.64c-1.115-2.469-.978-5.582-.909-8.228.052-1.976.228-3.947.263-5.924.037-2.131.461-11.284-3.6-10.3-2.812.679-3.532,4.311-3.782,6.716-.333,3.206-.051,6.49-.966,9.621a4.538,4.538,0,0,1-1.235,2.307c-.71.577-1.556.084-1.906-.658a4.976,4.976,0,0,1-.272-1.674c-.079-.911-.194-2.268-1.209-2.65-1.174-.442-2.137.758-2.49,1.721-.438,1.195-.295,2.765-1.508,3.556a2.279,2.279,0,0,1-3.233-1.13c-.612-1.225-.391-2.715-.332-4.033a25.026,25.026,0,0,0-.151-4,23.925,23.925,0,0,0-1.609-6.815c-1.279-2.879-4.127-2.114-5.823-.045-2.878,3.511-3.6,8.85-4.226,13.182a13.794,13.794,0,0,1-1.086,4.1c-.319.651-.776,1.422-1.551,1.553-1.3.219-2.37-1.276-2.654-2.338-.463-1.728-.026-7.857-3.624-5.975-1.117.584-1.224,1.978-2.176,2.679-1.489,1.1-1.581-1.327-1.591-2.264-.016-1.407-.024-2.814-.036-4.221a51.222,51.222,0,0,0-.1-5.731c-.147-1.2-.513-2.6-1.752-3.093-3.353-1.339-5.855,4.073-6.755,6.342-1.908,4.812-3.437,9.954-6.121,14.406-1.474,2.444-3.987,4.275-6.512,1.988a8.637,8.637,0,0,1-2.515-6.389c-.062-3.058.854-9.239-2.811-10.828-3.194-1.385-6.579,3.021-7.93,5.286-2.308,3.871-2.9,8.6-5.527,12.252-.225.314.294.613.517.3Z" transform="translate(-625.225 -1105.9)" fill="#9192ff"/>
      </g>
    </g>
    <g id="Grupo_137111" data-name="Grupo 137111" transform="translate(407.122 660.437)">
      <g id="Grupo_137110" data-name="Grupo 137110" transform="translate(0 0)">
        <rect id="Rectángulo_44216" data-name="Rectángulo 44216" width="51.532" height="36.077" rx="13.123" transform="translate(0 7.935)" fill="#e0e0ff"/>
        <rect id="Rectángulo_44217" data-name="Rectángulo 44217" width="49.26" height="0.571" transform="translate(1.136 23.566)" fill="#b7b7ff"/>
        <path id="Trazado_195819" data-name="Trazado 195819" d="M1270.3,1541.12a4.141,4.141,0,0,1-4.137-4.137v-1.094h8.273v1.094A4.141,4.141,0,0,1,1270.3,1541.12Zm-3.566-4.66v.523a3.566,3.566,0,0,0,7.132,0v-.523Z" transform="translate(-1244.533 -1512.323)" fill="#b7b7ff"/>
        <path id="Trazado_195820" data-name="Trazado 195820" d="M1262.234,1447.278h-.571v-7.4a1.81,1.81,0,0,0-1.808-1.807h-14.739a1.809,1.809,0,0,0-1.807,1.807v7.4h-.571v-7.4a2.381,2.381,0,0,1,2.378-2.378h14.739a2.381,2.381,0,0,1,2.378,2.378Z" transform="translate(-1226.72 -1437.5)" fill="#b7b7ff"/>
        <rect id="Rectángulo_44218" data-name="Rectángulo 44218" width="2.782" height="2.995" transform="translate(14.928 7.935)" fill="#b7b7ff"/>
      </g>
      <rect id="Rectángulo_44219" data-name="Rectángulo 44219" width="2.782" height="2.995" transform="translate(33.829 7.935)" fill="#b7b7ff"/>
    </g>
    <g id="Grupo_137112" data-name="Grupo 137112" transform="translate(272.672 671.665)">
      <rect id="Rectángulo_44220" data-name="Rectángulo 44220" width="36.731" height="30.617" transform="translate(2.705 2.168)" fill="#e0e0ff"/>
      <rect id="Rectángulo_44221" data-name="Rectángulo 44221" width="42.141" height="6.43" transform="translate(0 0)" fill="#b7b7ff"/>
      <path id="Trazado_195821" data-name="Trazado 195821" d="M662.555,1537.274h-36.73v-26.449S640.7,1533.184,662.555,1537.274Z" transform="translate(-623.12 -1504.49)" fill="#b7b7ff" opacity="0.6"/>
    </g>
    <g id="Grupo_137120" data-name="Grupo 137120" transform="translate(492.983 442.496)">
      <g id="Grupo_137113" data-name="Grupo 137113">
        <path id="Trazado_195822" data-name="Trazado 195822" d="M1558.352,528.847a22.775,22.775,0,0,0-12.777,41.627l-.874,10.492,8.548-7.153a22.773,22.773,0,1,0,5.1-44.966Z" transform="translate(-1535.279 -528.547)" fill="#fff"/>
        <path id="Trazado_195823" data-name="Trazado 195823" d="M1543.393,580.7l.919-11.033a23.131,23.131,0,1,1,8.065,3.515Zm14.009-52.51a22.475,22.475,0,0,0-12.608,41.08l.145.1-.829,9.951,8.112-6.788.145.033a22.474,22.474,0,1,0,5.036-44.375Z" transform="translate(-1534.329 -527.596)" fill="#5254cf"/>
      </g>
      <g id="Grupo_137119" data-name="Grupo 137119" transform="translate(12.644 7.667)">
        <g id="Grupo_137117" data-name="Grupo 137117" transform="translate(5.125 9.548)">
          <g id="Grupo_137114" data-name="Grupo 137114" transform="translate(2.108 10.35)">
            <rect id="Rectángulo_44222" data-name="Rectángulo 44222" width="6.772" height="7.027" transform="translate(0.299 0.299)" fill="#fff"/>
            <path id="Trazado_195824" data-name="Trazado 195824" d="M1624.689,650.307h-7.37v-7.626h7.37Zm-6.772-.6h6.173V643.28h-6.173Z" transform="translate(-1617.319 -642.681)" fill="#5254cf"/>
          </g>
          <g id="Grupo_137115" data-name="Grupo 137115">
            <path id="Trazado_195825" data-name="Trazado 195825" d="M1620.755,606.215a5.494,5.494,0,1,0-10.258,2.733,9.7,9.7,0,0,1,1.378,4.834v1.249h6.772v-1.3a9.5,9.5,0,0,1,1.368-4.766A5.449,5.449,0,0,0,1620.755,606.215Z" transform="translate(-1609.468 -600.422)" fill="#fff"/>
            <path id="Trazado_195826" data-name="Trazado 195826" d="M1618,614.38h-7.371v-1.548a9.33,9.33,0,0,0-1.338-4.684,5.778,5.778,0,0,1-.77-2.955,5.867,5.867,0,0,1,5.52-5.715,5.791,5.791,0,0,1,5.285,8.689,9.136,9.136,0,0,0-1.327,4.616Zm-6.772-.6h6.173v-1a9.721,9.721,0,0,1,1.408-4.917,5.193,5.193,0,0,0-4.74-7.789,5.259,5.259,0,0,0-4.949,5.124,5.184,5.184,0,0,0,.689,2.649,9.916,9.916,0,0,1,1.418,4.984Z" transform="translate(-1608.516 -599.471)" fill="#5254cf"/>
          </g>
          <g id="Grupo_137116" data-name="Grupo 137116" transform="translate(2.29 3.031)">
            <path id="Trazado_195827" data-name="Trazado 195827" d="M1621.276,615.19a1.048,1.048,0,1,1-.053-1.676A1.21,1.21,0,0,1,1621.276,615.19Z" transform="translate(-1619.026 -613.072)" fill="#fff"/>
            <path id="Trazado_195828" data-name="Trazado 195828" d="M1619.2,615.206a1.1,1.1,0,0,1-.641-.2,1.185,1.185,0,0,1-.484-.966,1.973,1.973,0,0,1,1.3-1.847,1.138,1.138,0,0,1,1.557,1.093,1.884,1.884,0,0,1-.358,1.127h0a1.884,1.884,0,0,1-.938.72A1.391,1.391,0,0,1,1619.2,615.206Zm.6-2.484a.779.779,0,0,0-.243.042,1.377,1.377,0,0,0-.884,1.259.545.545,0,0,0,.773.542,1.285,1.285,0,0,0,.634-.495h0a1.3,1.3,0,0,0,.25-.764.6.6,0,0,0-.23-.495A.515.515,0,0,0,1619.8,612.722Z" transform="translate(-1618.075 -612.124)" fill="#5254cf"/>
          </g>
        </g>
        <g id="Grupo_137118" data-name="Grupo 137118" transform="translate(0 0)">
          <rect id="Rectángulo_44223" data-name="Rectángulo 44223" width="0.599" height="4.355" transform="translate(0 6.185) rotate(-51.551)" fill="#5254cf"/>
          <rect id="Rectángulo_44224" data-name="Rectángulo 44224" width="0.599" height="5.847" transform="translate(10.108 0.019) rotate(-1.834)" fill="#5254cf"/>
          <rect id="Rectángulo_44225" data-name="Rectángulo 44225" width="4.929" height="0.599" transform="matrix(0.717, -0.697, 0.697, 0.717, 17.24, 7.976)" fill="#5254cf"/>
        </g>
      </g>
    </g>
    <g id="Grupo_137122" data-name="Grupo 137122" transform="translate(189.95 451.24)">
      <g id="Grupo_137121" data-name="Grupo 137121" transform="translate(0)">
        <path id="Trazado_195829" data-name="Trazado 195829" d="M310.462,585.374A20.022,20.022,0,1,0,295.688,604.7l6.951,5.816-.728-8.733A20,20,0,0,0,310.462,585.374Z" transform="translate(-270.117 -565.051)" fill="#fff"/>
        <path id="Trazado_195830" data-name="Trazado 195830" d="M302.046,610.251l-7.381-6.177a20.341,20.341,0,1,1,6.608-3.1Zm-7.236-6.836,6.52,5.456-.682-8.189.141-.1a19.681,19.681,0,1,0-6.129,2.873Z" transform="translate(-269.166 -564.1)" fill="#5254cf"/>
      </g>
      <path id="Trazado_195831" data-name="Trazado 195831" d="M334.885,629.316l-5.677-5.677.423-.423,5.058,5.058,5.862-13.354.548.241Z" transform="translate(-314.827 -602.747)" fill="#5254cf"/>
    </g>
    <g id="Grupo_137128" data-name="Grupo 137128" transform="translate(251.749 452.551)">
      <g id="Grupo_137123" data-name="Grupo 137123" transform="translate(0 38.091)">
        <path id="Trazado_195832" data-name="Trazado 195832" d="M594.6,735.769l-5.37,3.144-57.093,33.455c-1.757,1.03-3.813.787-4.628-.548l0,0c-.815-1.335-.091-3.275,1.627-4.367l55.729-35.435,5.362-3.409Z" transform="translate(-527.177 -728.605)" fill="#6836bf"/>
        <path id="Trazado_195833" data-name="Trazado 195833" d="M777.773,735.769l-5.37,3.144a16.955,16.955,0,0,1-2.746-3.417,17.2,17.2,0,0,1-1.622-3.483l5.362-3.409Z" transform="translate(-710.345 -728.605)" fill="#1b1b43" opacity="0.6"/>
      </g>
      <path id="Trazado_195834" data-name="Trazado 195834" d="M768.518,755.432a1.8,1.8,0,1,1,.6-2.469A1.8,1.8,0,0,1,768.518,755.432Z" transform="translate(-708.634 -708.384)" fill="#fff"/>
      <path id="Trazado_195909" data-name="Trazado 195909" d="M28.422,0A28.422,28.422,0,1,1,0,28.422,28.422,28.422,0,0,1,28.422,0Z" transform="translate(58.521 0)" fill="#6836bf"/>
      <g id="Grupo_137127" data-name="Grupo 137127" transform="translate(63.889 5.368)">
        <circle id="Elipse_6097" data-name="Elipse 6097" cx="23.054" cy="23.054" r="23.054" fill="#fff"/>
        <g id="Grupo_137126" data-name="Grupo 137126" clip-path="url(#clip-path)">
          <g id="Grupo_137124" data-name="Grupo 137124" transform="translate(6.455 18.716)">
            <rect id="Rectángulo_44226" data-name="Rectángulo 44226" width="7.226" height="44.351" transform="translate(0 12.13)" fill="#b7b7ff"/>
            <rect id="Rectángulo_44227" data-name="Rectángulo 44227" width="7.226" height="50.5" transform="translate(12.986 6.281)" fill="#e0e0ff"/>
            <rect id="Rectángulo_44228" data-name="Rectángulo 44228" width="7.226" height="55.982" transform="translate(25.971)" fill="#b7b7ff"/>
          </g>
          <g id="Grupo_137125" data-name="Grupo 137125" transform="translate(-1.532 9.017)">
            <rect id="Rectángulo_44229" data-name="Rectángulo 44229" width="34.764" height="0.898" transform="translate(0 11.822) rotate(-17.738)" fill="#b7b7ff"/>
            <path id="Trazado_195835" data-name="Trazado 195835" d="M911.726,635.146l-.731-.521,2.181-3.062-3.158-1.081.291-.85,3.487,1.194a.616.616,0,0,1,.409.416.628.628,0,0,1-.123.594Zm1.774-3.471.029.01Zm-.126-.39a.1.1,0,0,0-.013.019Z" transform="translate(-880.675 -629.633)" fill="#b7b7ff"/>
          </g>
        </g>
      </g>
    </g>
    <g id="Grupo_137135" data-name="Grupo 137135" transform="translate(211.151 478.451)">
      <g id="Grupo_137131" data-name="Grupo 137131" transform="translate(0 75.1)">
        <g id="Grupo_137129" data-name="Grupo 137129" transform="translate(58.469 127.844)">
          <path id="Trazado_195836" data-name="Trazado 195836" d="M614.131,1536.144c-3.617.054-8.8.137-12.156.186.036-1.623.1-3.24.168-4.719.162-3.689.371-6.539.371-6.539l10.365-.072s-.048,1.03,0,2.575A33.03,33.03,0,0,0,614.131,1536.144Z" transform="translate(-601.931 -1525)" fill="#ffbc96"/>
          <path id="Trazado_195837" data-name="Trazado 195837" d="M618.005,1576.589c-1.989-.615-3.233-2.646-4.012-5.07l-12.16.188a62.354,62.354,0,0,0,.31,9.82,1.939,1.939,0,0,0,1.91,1.622h17.813a2.505,2.505,0,0,0,2.554-2.658C624.24,1578.762,622.2,1577.888,618.005,1576.589Z" transform="translate(-601.79 -1560.377)" fill="#1b1b43"/>
          <path id="Trazado_195838" data-name="Trazado 195838" d="M613.412,1527.575l-10.737,4.036c.162-3.689.371-6.539.371-6.539l10.365-.072S613.364,1526.03,613.412,1527.575Z" transform="translate(-602.463 -1525)" fill="#d28572"/>
          <path id="Trazado_195839" data-name="Trazado 195839" d="M607.632,1603.925a5.4,5.4,0,0,0-2.246-3.73,4.263,4.263,0,0,0-3.068-.435l-.165-.576a4.79,4.79,0,0,1,3.535.494,5.951,5.951,0,0,1,2.53,4.124Z" transform="translate(-602.066 -1581.308)" fill="#656590"/>
        </g>
        <g id="Grupo_137130" data-name="Grupo 137130" transform="translate(0 122.299)">
          <path id="Trazado_195840" data-name="Trazado 195840" d="M385.341,1505.455a43.934,43.934,0,0,0-1.976,5.958,26.1,26.1,0,0,0-.8,4.9c-3.407-1.228-8.281-2.988-11.443-4.132,1.467-3.6,3.036-7.138,3.88-8.994l.024-.048c.365-.814.587-1.293.587-1.293Z" transform="translate(-367.905 -1501.85)" fill="#ffbc96"/>
          <path id="Trazado_195841" data-name="Trazado 195841" d="M374.3,1555.3c-1.642-1.28-2.087-3.62-1.958-6.162l-11.44-4.129a62.379,62.379,0,0,0-3.186,9.294,1.939,1.939,0,0,0,1.213,2.193l16.66,6.3a2.5,2.5,0,0,0,3.329-1.582C379.364,1559.542,377.768,1558,374.3,1555.3Z" transform="translate(-357.682 -1534.674)" fill="#1b1b43"/>
          <path id="Trazado_195842" data-name="Trazado 195842" d="M396.615,1505.455a43.939,43.939,0,0,0-1.976,5.958l-8.689-7.311.329-.91.024-.048c.365-.814.587-1.293.587-1.293Z" transform="translate(-379.179 -1501.85)" fill="#d28572"/>
          <path id="Trazado_195843" data-name="Trazado 195843" d="M366.4,1573.682l-.531-.277a4.592,4.592,0,0,0-1.869-6.482l.277-.531C364.329,1566.417,368.909,1568.881,366.4,1573.682Z" transform="translate(-362.49 -1550.933)" fill="#656590"/>
        </g>
        <path id="Trazado_195844" data-name="Trazado 195844" d="M544.221,1121.19l-19.06,1.5-3.994-68.066-5.9-22.377-7.724-29.263-.4-1.527-1.862-7.054L505,993.346l3.647-.329,19.707-1.767,1.192,5.389v.006l11.8,53.371a29.112,29.112,0,0,1,.671,5.288Z" transform="translate(-469.714 -991.25)" fill="#6836bf"/>
        <path id="Trazado_195845" data-name="Trazado 195845" d="M416.966,1023.755l-1.515,15.144L413,1063.413a34.359,34.359,0,0,1-1.874,8.27l-20.305,56.162-17.066-6.587,15.868-57.485c4.09-23.665,3.413-41.827,4.467-53.347.066-.719.138-1.407.216-2.072a23.527,23.527,0,0,1,2.2-8.353l8.958,1.054,6.311.743,1.371,5.8.276,1.174Z" transform="translate(-369.901 -997.904)" fill="#6836bf"/>
        <path id="Trazado_195846" data-name="Trazado 195846" d="M494.3,996.639l.206,2.3s-26.746,7.186-35.852,4.836c.066-.719.138-1.407.216-2.072a23.527,23.527,0,0,1,2.2-8.353l8.958,1.054-.275-1.054,3.647-.329,19.707-1.767Z" transform="translate(-434.466 -991.25)" fill="#1b1b43" opacity="0.6"/>
        <path id="Trazado_195847" data-name="Trazado 195847" d="M519.637,1135.792l-8.941-35.318-7.327-2.344.182-.571,7.643,2.446.041.161,8.982,35.479Z" transform="translate(-468.474 -1072.095)" fill="#1b1b43"/>
        <path id="Trazado_195848" data-name="Trazado 195848" d="M627.9,1251.049l-.211-.56a41.907,41.907,0,0,0,7.278-3.415l.325.5A41.62,41.62,0,0,1,627.9,1251.049Z" transform="translate(-563.013 -1185.799)" fill="#1b1b43"/>
        <path id="Trazado_195849" data-name="Trazado 195849" d="M504.332,1281.65a65.424,65.424,0,0,1-9.029-1.655l.154-.579a64.92,64.92,0,0,0,8.935,1.639Z" transform="translate(-462.34 -1210.394)" fill="#1b1b43"/>
        <rect id="Rectángulo_44230" data-name="Rectángulo 44230" width="0.599" height="18.503" transform="translate(5.242 118.744) rotate(-69.805)" fill="#1b1b43"/>
        <rect id="Rectángulo_44231" data-name="Rectángulo 44231" width="19.06" height="0.599" transform="translate(55.175 126.194) rotate(-4.03)" fill="#1b1b43"/>
      </g>
      <path id="Trazado_195850" data-name="Trazado 195850" d="M433.513,819.167l-8.1,3.26a9.526,9.526,0,0,0-5.219,5.131l-6.8,16.271a8.106,8.106,0,0,0,2.242,9.312h0a8.107,8.107,0,0,0,8.035,1.422l5.748-2.113Z" transform="translate(-399.575 -785.284)" fill="#f7ca18"/>
      <g id="Grupo_137132" data-name="Grupo 137132" transform="translate(79.921 18.941)">
        <path id="Trazado_195851" data-name="Trazado 195851" d="M724.546,756.944c-1.514.748-3.26,3.933-2.6,5.078.543.939,1.807-.332,2.224-.767.766-.8,2.743-2.938,1.652-4.153A.991.991,0,0,0,724.546,756.944Z" transform="translate(-714.511 -756.786)" fill="#ffbc96"/>
        <path id="Trazado_195852" data-name="Trazado 195852" d="M713.052,761.148c-1.257,1.128-2.081,4.665-1.134,5.59.776.758,1.651-.806,1.935-1.338.522-.977,1.851-3.568.473-4.445A.991.991,0,0,0,713.052,761.148Z" transform="translate(-706.681 -759.838)" fill="#ffbc96"/>
        <path id="Trazado_195853" data-name="Trazado 195853" d="M702.65,768.577c-1.27,1.089-2.163,4.436-1.245,5.286.752.7,1.653-.794,1.947-1.3.539-.931,1.911-3.4.565-4.193A1.036,1.036,0,0,0,702.65,768.577Z" transform="translate(-698.711 -765.491)" fill="#ffbc96"/>
        <path id="Trazado_195854" data-name="Trazado 195854" d="M692.975,772.034c-1.269,1.089-2.163,4.436-1.245,5.285.752.7,1.653-.794,1.946-1.3.539-.931,1.912-3.4.565-4.193A1.035,1.035,0,0,0,692.975,772.034Z" transform="translate(-691.353 -768.12)" fill="#ffbc96"/>
      </g>
      <path id="Trazado_195855" data-name="Trazado 195855" d="M462.8,813.558l-8.433,14.5s2.2,23.953.6,26.894-5.19,5.253-2.994,6.934,19.561,4.622,38.323.21c5.189-1.471,1.6-4.2.4-5.463s-2.794-32.987-2.794-32.987l-10.79-9.832-7.972-2.144Z" transform="translate(-428.861 -779.581)" fill="#f7ca18"/>
      <path id="Trazado_195856" data-name="Trazado 195856" d="M510.726,816.11c-1.5,2.62-19.117,5.313-14.147-.349l5.09-1.073Z" transform="translate(-462.64 -781.878)" fill="#1b1b43" opacity="0.2"/>
      <g id="Grupo_137133" data-name="Grupo 137133" transform="translate(48.26 25.597)">
        <path id="Trazado_195857" data-name="Trazado 195857" d="M581.822,837.691l-6.953-10.312a11.085,11.085,0,0,0-7.258-5.058l-8.444-1.7,4.99,18.713s7.784,10.928,14.82,13.473c6.314,2.284,14.69-1.467,19.308-26.148l-10.47-1.428Z" transform="translate(-559.167 -811.99)" fill="#f7ca18"/>
        <path id="Trazado_195858" data-name="Trazado 195858" d="M694.985,784.575c-1.058-.135-4.691,5.339-4.691,5.339l-5.87,2a8.468,8.468,0,0,0-4.9,4.344l-.75,1.56,10.47,1.427c.172-.921.341-1.863.5-2.844C693.338,793.158,697.33,784.875,694.985,784.575Z" transform="translate(-650.125 -784.573)" fill="#f7ca18"/>
      </g>
      <g id="Grupo_137134" data-name="Grupo 137134" transform="translate(29.371)">
        <path id="Trazado_195859" data-name="Trazado 195859" d="M558.153,724.039l2.123,2.937a.922.922,0,0,1-.466,1.41l-2.266.874-1.6-3.551Z" transform="translate(-537.827 -712.942)" fill="#d28572"/>
        <path id="Trazado_195860" data-name="Trazado 195860" d="M507.85,757.064a89.649,89.649,0,0,0,.317-10.814l9.677.7a28.919,28.919,0,0,0-.054,3.311,44.42,44.42,0,0,0,.539,5.287c.15.952.323,1.886.509,2.784Z" transform="translate(-501.252 -729.833)" fill="#ffbc96"/>
        <path id="Trazado_195861" data-name="Trazado 195861" d="M533.6,768.059a11.227,11.227,0,0,1-5.671-5.359l5.132.072A44.4,44.4,0,0,0,533.6,768.059Z" transform="translate(-516.519 -742.342)" fill="#d28572"/>
        <path id="Trazado_195862" data-name="Trazado 195862" d="M501.4,791.388l-2.028,6.654a35.453,35.453,0,0,0,14.321.349l-1.3-5.732Z" transform="translate(-494.807 -764.159)" fill="#fff5e8"/>
        <path id="Trazado_195863" data-name="Trazado 195863" d="M517.588,698.58l1,13.389a1.846,1.846,0,0,1-.755,1.559,4.367,4.367,0,0,1-3.172,1.105l-6.856-.285-4.89-5.489,3.792-11.677,6.886-.1Z" transform="translate(-497.501 -692.442)" fill="#ffbc96"/>
        <path id="Trazado_195864" data-name="Trazado 195864" d="M489.139,691.8s1.8,5.614-2.021,8.458c-4.117-1.347-11.751-13.847-2.246-17.814,0,0,2.62-6.662,9.731-4.192,6.276,2.18,7.934,5.988,7.934,5.988a8.881,8.881,0,0,1-9.581.225S493.48,691.13,489.139,691.8Z" transform="translate(-480.304 -677.707)" fill="#1b1b43"/>
        <path id="Trazado_195865" data-name="Trazado 195865" d="M510.9,722.95a2.933,2.933,0,1,1-4.295-.673A3.081,3.081,0,0,1,510.9,722.95Z" transform="translate(-499.528 -711.146)" fill="#ffbc96"/>
        <path id="Trazado_195866" data-name="Trazado 195866" d="M514.627,732.448c-.025-.1-.622-2.38-2.23-2.031l-.095-.439c1.626-.352,2.518,1.391,2.76,2.361Z" transform="translate(-504.638 -717.422)" fill="#1b1b43"/>
        <circle id="Elipse_6099" data-name="Elipse 6099" cx="1.996" cy="1.996" r="1.996" transform="matrix(0.23, -0.973, 0.973, 0.23, 14.193, 16.005)" fill="#fe5b52" opacity="0.4"/>
      </g>
      <path id="Trazado_195867" data-name="Trazado 195867" d="M453,915.047c-1.817-.433-2.844-1.107-3.142-2.061-.484-1.555,1.121-3.336,2.538-4.907.221-.245.435-.482.63-.708a3.477,3.477,0,0,0,.78-1.552c1.314-6.225-.863-25.607-.885-25.8l.595-.067c.091.8,2.21,19.675.876,25.993a4.074,4.074,0,0,1-.914,1.821c-.2.229-.415.469-.638.717-1.245,1.381-2.794,3.1-2.411,4.328.226.726,1.137,1.283,2.708,1.657Z" transform="translate(-427.712 -831.508)" fill="#1b1b43"/>
      <path id="Trazado_195868" data-name="Trazado 195868" d="M605.34,936.426l-.027-.6c2.046-.091,3.3-.58,3.618-1.412s-.267-2.091-1.62-3.433a2.59,2.59,0,0,1-.7-1.282c-1.076-4.839-2.223-20.836-2.234-21l.6-.043c.011.161,1.155,16.114,2.222,20.91a1.989,1.989,0,0,0,.535.987c1.552,1.54,2.177,2.986,1.757,4.073S607.674,936.322,605.34,936.426Z" transform="translate(-545.29 -853.343)" fill="#1b1b43"/>
      <path id="Trazado_195869" data-name="Trazado 195869" d="M647.54,853.968,647,853.7l7.436-15.2,10.684,1.457-.081.594-10.256-1.4Z" transform="translate(-577.704 -799.994)" fill="#1b1b43"/>
    </g>
    <g id="Grupo_137146" data-name="Grupo 137146" transform="translate(405.434 483.959)">
      <path id="Trazado_195870" data-name="Trazado 195870" d="M1391.3,711.813c-3.543-2.146-4.341-8.283-1.048-10.13s5.389-.2,5.389-.2,11.047-4.029,15.22,6.238c3.144,7.735.648,11.777,3.393,15.669,3.127,4.435,8.134,8.433,1.6,16.218l-15.269-3.743-3.992-18.812Z" transform="translate(-1335.626 -700.705)" fill="#1b1b43"/>
      <g id="Grupo_137138" data-name="Grupo 137138" transform="translate(40.375 75.478)">
        <g id="Grupo_137136" data-name="Grupo 137136" transform="translate(56.034 108.063)">
          <path id="Trazado_195871" data-name="Trazado 195871" d="M1586.227,1466.987l-11.228,4.94s1.613,4.168,2.993,9.018l11.546-3.688Z" transform="translate(-1574.119 -1466.987)" fill="#ffbc96"/>
          <path id="Trazado_195872" data-name="Trazado 195872" d="M1586.741,1509.863l-11.545,3.688c1.581,5.554,2.857,12,1.054,14.106-2.346,2.736-4.393,5-4.883,6.9a1.337,1.337,0,0,0,1.89,1.541l14.917-7.523a5.211,5.211,0,0,0,2.426-6.744Z" transform="translate(-1571.321 -1499.593)" fill="#1b1b43"/>
          <rect id="Rectángulo_44232" data-name="Rectángulo 44232" width="12.342" height="0.599" transform="translate(4.882 17.797) rotate(-17.375)" fill="#656590"/>
          <path id="Trazado_195873" data-name="Trazado 195873" d="M1582.365,1566.826l-.124-.586c2.859-.606,4.522-1.657,4.945-3.121.695-2.408-2.169-5.226-2.2-5.254l.417-.429c.129.125,3.15,3.1,2.356,5.849C1587.273,1564.979,1585.457,1566.17,1582.365,1566.826Z" transform="translate(-1579.625 -1535.771)" fill="#656590"/>
        </g>
        <g id="Grupo_137137" data-name="Grupo 137137" transform="translate(0 118.964)">
          <path id="Trazado_195874" data-name="Trazado 195874" d="M1399.445,1512.5l-12.974,1.2a66.466,66.466,0,0,1-.062,9.228l12.48-.184Z" transform="translate(-1374.665 -1512.5)" fill="#ffbc96"/>
          <path id="Trazado_195875" data-name="Trazado 195875" d="M1349.123,1555.445c-.353,4.092-1.282,8.2-3.531,9.135-4.791,2-8.583,3.393-8.184,6.187h18.417a5.211,5.211,0,0,0,5.2-4.929l.574-10.577Z" transform="translate(-1337.379 -1545.019)" fill="#1b1b43"/>
          <rect id="Rectángulo_44233" data-name="Rectángulo 44233" width="0.599" height="11.978" transform="translate(11.801 13.872) rotate(-89.046)" fill="#656590"/>
          <path id="Trazado_195876" data-name="Trazado 195876" d="M1361.568,1587.161a13.01,13.01,0,0,1-2.78-.353l.131-.585c2.625.587,4.41.406,5.156-.521.994-1.234-.019-3.454-.029-3.476l.543-.252c.049.105,1.178,2.583-.047,4.1A3.619,3.619,0,0,1,1361.568,1587.161Z" transform="translate(-1353.661 -1565.333)" fill="#656590"/>
        </g>
        <path id="Trazado_195877" data-name="Trazado 195877" d="M1375.027,1137.861a3.909,3.909,0,0,1-.431.12c-2.593.6-11.174,0-11.174,0a8.9,8.9,0,0,1-1.114-.317c-8.024-2.922-7.479-16.952-6.275-29.221,1.108-11.251-3.593-68.665-.347-88.174l20.311-4.443.12,3.419.245,6.982.431,12.353s.767,11.952,1.814,26.928c1.569,22.455,3.772,51.719,4.97,57.707C1385.488,1132.741,1378.272,1136.915,1375.027,1137.861Z" transform="translate(-1350.417 -1015.825)" fill="#7fc733"/>
        <path id="Trazado_195878" data-name="Trazado 195878" d="M1460.316,1134.778a9.491,9.491,0,0,1-1.479,1.383c-2.731,2.1-6.413,2.874-9.647,3.749a12.1,12.1,0,0,1-1.767.341c-3.012.371-6.3-.317-7.707-2.874-7.209-13.138-15.335-39.216-21.772-62.515-4.707-17.012-8.509-32.551-10.4-40.473-.832-3.5-1.293-5.515-1.293-5.515l9.2-.276,15.647-.473c.425,2.108.91,4.329,1.455,6.635,5.341,22.8,15.862,54.138,19.982,66.126,2.473,7.179,6.216,13.587,7.862,21.108C1461.274,1125.975,1463.31,1131.323,1460.316,1134.778Z" transform="translate(-1389.754 -1025.179)" fill="#7fc733"/>
        <path id="Trazado_195879" data-name="Trazado 195879" d="M1396.908,1025.406a70.958,70.958,0,0,1-16.856.82,57,57,0,0,1-8.156-1.192c-8.2-1.808-12.521-4.766-12.521-4.766l20.311-4.443.12,3.419,15.647-.473C1395.878,1020.879,1396.363,1023.1,1396.908,1025.406Z" transform="translate(-1354.106 -1015.825)" fill="#1b1b43" opacity="0.6"/>
        <path id="Trazado_195880" data-name="Trazado 195880" d="M1413.529,1143.919l-6.263-22.187-6.443-2.343.2-.562,6.731,2.448.042.148,6.306,22.335Z" transform="translate(-1385.627 -1094.155)" fill="#1b1b43"/>
        <path id="Trazado_195881" data-name="Trazado 195881" d="M1515.059,1138.789l-.519-.3c3.022-5.248-3.036-21.419-10.706-41.893-7.448-19.88-16.716-44.622-20.069-66.7l.592-.09c3.343,22.012,12.6,46.722,20.038,66.576C1512.12,1117.009,1518.221,1133.3,1515.059,1138.789Z" transform="translate(-1448.703 -1026.462)" fill="#1b1b43"/>
      </g>
      <g id="Grupo_137142" data-name="Grupo 137142" transform="translate(0 27.622)">
        <path id="Trazado_195882" data-name="Trazado 195882" d="M1334.26,929.965c-.725,5.06-1.808,11.671-1.808,11.671h-11.826l2.88-15.826.712-3.934s10.18,2.4,10.629,2.4C1335.02,924.27,1334.709,926.821,1334.26,929.965Z" transform="translate(-1284.263 -896.522)" fill="#ffbc96"/>
        <path id="Trazado_195883" data-name="Trazado 195883" d="M1343.4,929.965l-.539,1.192-10.216-5.347.713-3.934s10.18,2.4,10.629,2.4C1344.165,924.27,1343.854,926.821,1343.4,929.965Z" transform="translate(-1293.408 -896.522)" fill="#d28572"/>
        <path id="Trazado_195884" data-name="Trazado 195884" d="M1353.092,884.54s1.946,11.377-1.8,22.455c0,0,18.563,5.689,36.078-1.5l-4.042-25.6,1.347-13.024-26.8.3-9.132,2.994Z" transform="translate(-1305.651 -854.696)" fill="#b13e8d"/>
        <path id="Trazado_195885" data-name="Trazado 195885" d="M1370.385,833.656a11.205,11.205,0,0,0-7.337-7.026l-5.032-1.52c-2.026,2.95-5.642,6.71-10.92,6.71a14.953,14.953,0,0,1-12.242-6.473l-3.477.848a10.159,10.159,0,0,0-7.494,7.589L1320,850.633l11.228,2.146.3-12.874,29.192-1.347.748,9.581s8.433-3.693,14.022.1Z" transform="translate(-1283.788 -822.934)" fill="#b13e8d"/>
        <path id="Trazado_195886" data-name="Trazado 195886" d="M1512.659,825.66c-1.617,3.162-3.791,16.868-4.791,27.545a17.452,17.452,0,0,1-2.712,8.293c-2.036,2.982-4.922,4.335-7.725,4.036a7.625,7.625,0,0,1-3.138-1.054c-4.821-2.856-4.2-15.06-3.665-20.551.168-1.653.323-2.7.323-2.7,2.845-1.569,7.335-1.8,7.335-1.8.06-.617.132-1.24.2-1.88.611-5.515,1.539-11.773,2.341-15.934.9-4.641,2.695-2.916,2.695-2.916.9-1.653,2.245-.228,2.245-.228,1.2-2.623,2.695-.15,2.695-.15,1.868-2.695,2.892,1.347,2.892,1.347s5.8-4.778,6.791-3.4C1518.647,816.978,1514.953,821.169,1512.659,825.66Z" transform="translate(-1413.273 -816.026)" fill="#ffbc96"/>
        <g id="Grupo_137139" data-name="Grupo 137139" transform="translate(0 19.787)">
          <rect id="Rectángulo_44234" data-name="Rectángulo 44234" width="25.15" height="3.02" transform="translate(28.278 22.306)" fill="#fff"/>
          <path id="Trazado_195887" data-name="Trazado 195887" d="M1207.862,923.991H1181.92a3.2,3.2,0,0,1-2.9-1.859l-10.1-21.933a1.1,1.1,0,0,1,1-1.561h24.331A3.028,3.028,0,0,1,1197,900.4Z" transform="translate(-1168.813 -898.638)" fill="#5254cf"/>
        </g>
        <path id="Trazado_195888" data-name="Trazado 195888" d="M1278.732,993.711a12.7,12.7,0,0,1-1.317,3.228,8.967,8.967,0,0,1-7.048,4.389,17.37,17.37,0,0,1-3.958.018c-11.886-1.18-15.324-7.683-15.324-7.683s-1.323-2.76,1.485-2.126c0,0,.527-1.755,2.695.078,0,0-.258-2.174,1.874-.186,0,0-.3-2.21,2.018-.3a10.207,10.207,0,0,0,6.928,2.581C1268.888,993.825,1278.732,993.711,1278.732,993.711Z" transform="translate(-1231.143 -948.598)" fill="#ffbc96"/>
        <g id="Grupo_137140" data-name="Grupo 137140" transform="translate(46.393 9.677)">
          <rect id="Rectángulo_44235" data-name="Rectángulo 44235" width="0.599" height="12.896" transform="translate(0 7.31) rotate(-3.327)" fill="#12263f"/>
          <path id="Trazado_195889" data-name="Trazado 195889" d="M1397.8,860.278a16.863,16.863,0,0,1-3.713-.407,14.507,14.507,0,0,1-5.714-2.557l.382-.461c.081.067,8.172,6.561,19.815-.425l.308.514A21.391,21.391,0,0,1,1397.8,860.278Z" transform="translate(-1382.173 -856.428)" fill="#12263f"/>
          <rect id="Rectángulo_44236" data-name="Rectángulo 44236" width="0.599" height="5.905" transform="translate(30.539 9.661) rotate(-4.362)" fill="#12263f"/>
          <path id="Trazado_195890" data-name="Trazado 195890" d="M1440.753,907.649a3.755,3.755,0,0,1-3.744-3.347l-.481-4.268,8.234-.542-.245,4.588a3.78,3.78,0,0,1-3.7,3.568Zm-3.559-7.058.41,3.644a3.17,3.17,0,0,0,6.316-.186l.208-3.914Z" transform="translate(-1418.797 -889.178)" fill="#12263f"/>
        </g>
        <rect id="Rectángulo_44237" data-name="Rectángulo 44237" width="15.197" height="0.599" transform="translate(82.52 38.434) rotate(-81.862)" fill="#d28572"/>
        <g id="Grupo_137141" data-name="Grupo 137141" transform="translate(90.033 1.971)">
          <rect id="Rectángulo_44238" data-name="Rectángulo 44238" width="0.449" height="2.511" transform="translate(4.94 0.368) rotate(-10.305)" fill="#d28572"/>
          <rect id="Rectángulo_44239" data-name="Rectángulo 44239" width="0.449" height="2.511" transform="translate(2.246 0.443) rotate(-10.305)" fill="#d28572"/>
          <rect id="Rectángulo_44240" data-name="Rectángulo 44240" width="0.449" height="2.511" transform="translate(0 0.593) rotate(-10.305)" fill="#d28572"/>
          <rect id="Rectángulo_44241" data-name="Rectángulo 44241" width="0.449" height="3.995" transform="matrix(0.937, -0.35, 0.35, 0.937, 7.221, 0.157)" fill="#d28572"/>
        </g>
        <path id="Trazado_195891" data-name="Trazado 195891" d="M1499.3,913.735l-7.688,4.479c.167-1.653.323-2.7.323-2.7C1494.783,913.945,1499.3,913.735,1499.3,913.735Z" transform="translate(-1414.298 -890.332)" fill="#d28572"/>
        <path id="Trazado_195892" data-name="Trazado 195892" d="M1527.766,1002.035c-2.036,2.982-4.922,4.335-7.725,4.036a4.071,4.071,0,0,1-.042-.6,4.641,4.641,0,0,1,7.766-3.431Z" transform="translate(-1435.883 -956.562)" fill="#fe5b52" opacity="0.4"/>
        <path id="Trazado_195893" data-name="Trazado 195893" d="M1339.566,1015.682a8.967,8.967,0,0,1-7.048,4.389q-.018-.216-.018-.431a4.642,4.642,0,0,1,7.066-3.958Z" transform="translate(-1293.293 -967.341)" fill="#fe5b52" opacity="0.4"/>
        <path id="Trazado_195894" data-name="Trazado 195894" d="M1279.68,997.648c-1.184-.231-2.664-2.063-3.161-3.023l.4-.206c.511.988,1.907,2.6,2.848,2.788Z" transform="translate(-1250.721 -951.69)" fill="#d28572"/>
        <path id="Trazado_195895" data-name="Trazado 195895" d="M1270.664,998.484a12.182,12.182,0,0,1-2.3-3.2l.414-.175a11.69,11.69,0,0,0,2.21,3.061Z" transform="translate(-1244.518 -952.216)" fill="#d28572"/>
        <path id="Trazado_195896" data-name="Trazado 195896" d="M1259.1,998.171a12.178,12.178,0,0,1-2.3-3.2l.414-.175a11.689,11.689,0,0,0,2.21,3.061Z" transform="translate(-1235.724 -951.977)" fill="#d28572"/>
      </g>
      <g id="Grupo_137145" data-name="Grupo 137145" transform="translate(51.069 3.174)">
        <path id="Trazado_195897" data-name="Trazado 195897" d="M1405.187,770.212c-2.03,2.952-5.647,6.713-10.922,6.713a14.947,14.947,0,0,1-12.24-6.473l6.4-1.563c.156-1.15.287-2.269.4-3.329.084-.832.156-1.629.221-2.383.108-1.24.18-2.359.24-3.318.078-1.311.114-2.305.132-2.856.012-.317.012-.485.012-.485l8.982-3.593s-.3,11.677,2.4,15.964Z" transform="translate(-1382.025 -743.592)" fill="#ffbc96"/>
        <path id="Trazado_195898" data-name="Trazado 195898" d="M1418.139,782.873a19.03,19.03,0,0,1-7.739,4.7c.084-.832.156-1.629.221-2.383.108-1.24.18-2.359.24-3.318Z" transform="translate(-1403.604 -765.607)" fill="#d28572"/>
        <path id="Trazado_195899" data-name="Trazado 195899" d="M1395.021,720.282s-4.591,12.475-1.3,14.771c2.929,2.042,6.786,2.3,10.579,1.3l2.495-8.483-1.5-8.284Z" transform="translate(-1390.017 -718.236)" fill="#ffbc96"/>
        <path id="Trazado_195900" data-name="Trazado 195900" d="M1413.4,723.688s-3.242,1.243-4.591-3.293c-1.1-3.693-5.888-4.391-5.888-4.391l1.946-1.8,9.231-.25,3.393,4.142-1.148,5.389Z" transform="translate(-1397.913 -713.958)" fill="#1b1b43"/>
        <ellipse id="Elipse_6100" data-name="Elipse 6100" cx="3.792" cy="2.994" rx="3.792" ry="2.994" transform="translate(12.591 12.616) rotate(-60)" fill="#ffbc96"/>
        <path id="Trazado_195901" data-name="Trazado 195901" d="M1447.48,755.964l-.449,0a3.209,3.209,0,0,1,2.831-3.14l.051.446A2.723,2.723,0,0,0,1447.48,755.964Z" transform="translate(-1431.461 -743.511)" fill="#1b1b43"/>
        <g id="Grupo_137144" data-name="Grupo 137144" transform="translate(3.594 6.151)">
          <circle id="Elipse_6101" data-name="Elipse 6101" cx="0.511" cy="0.511" r="0.511" transform="translate(0.287 1.434)" fill="#1b1b43"/>
          <path id="Trazado_195902" data-name="Trazado 195902" d="M1413.139,748.757a.619.619,0,1,1-.619-.619A.619.619,0,0,1,1413.139,748.757Z" transform="translate(-1408.339 -746.102)" fill="#1b1b43"/>
          <path id="Trazado_195903" data-name="Trazado 195903" d="M1398.95,740.418h-1.528a.39.39,0,0,1-.39-.39h0a.39.39,0,0,1,.39-.39h1.528a.39.39,0,0,1,.39.39h0A.39.39,0,0,1,1398.95,740.418Z" transform="translate(-1397.032 -739.638)" fill="#1b1b43"/>
          <path id="Trazado_195904" data-name="Trazado 195904" d="M1414.941,742.724l-1.69-.714a.39.39,0,0,1-.208-.511h0a.39.39,0,0,1,.511-.207l1.69.714a.39.39,0,0,1,.208.511h0A.39.39,0,0,1,1414.941,742.724Z" transform="translate(-1409.185 -740.872)" fill="#1b1b43"/>
          <path id="Trazado_195905" data-name="Trazado 195905" d="M1397.983,752.933a.224.224,0,0,1-.208-.139,1.669,1.669,0,0,1-.024-1.663,1.364,1.364,0,0,1,1.09-.449l.571-1.108a.224.224,0,1,1,.4.206l-.706,1.372-.154-.017c-.007,0-.6-.06-.841.268-.178.237-.149.658.082,1.22a.224.224,0,0,1-.122.293A.222.222,0,0,1,1397.983,752.933Z" transform="translate(-1397.422 -747.102)" fill="#1b1b43"/>
          <g id="Grupo_137143" data-name="Grupo 137143" transform="translate(0.217 6.902)">
            <path id="Trazado_195906" data-name="Trazado 195906" d="M1399.818,772.127c.869,1.226,1.97.7,2.72.074A15.838,15.838,0,0,1,1399.818,772.127Z" transform="translate(-1399.368 -771.247)" fill="#1b1b43"/>
            <path id="Trazado_195907" data-name="Trazado 195907" d="M1401.108,769.407a5.892,5.892,0,0,0,.837-.871c.01-.013,0-.029-.02-.028a24.04,24.04,0,0,1-3.969-.055c-.015,0-.022.015-.017.03a4.069,4.069,0,0,0,.449.85A15.853,15.853,0,0,0,1401.108,769.407Z" transform="translate(-1397.937 -768.452)" fill="#fff"/>
          </g>
          <path id="Trazado_195908" data-name="Trazado 195908" d="M1423.262,757.243a1.565,1.565,0,1,1-1.565-1.565A1.565,1.565,0,0,1,1423.262,757.243Z" transform="translate(-1414.598 -751.836)" fill="#fe5b52" opacity="0.4"/>
        </g>
      </g>
    </g>
    <rect id="Rectángulo_44242" data-name="Rectángulo 44242" width="400" height="0.599" transform="translate(165 703.85)" fill="#1b1b43"/>
  </g>
</svg>
