<svg xmlns="http://www.w3.org/2000/svg" width="150" height="150" viewBox="0 0 150 150">
  <g id="Grupo_137080" data-name="Grupo 137080" transform="translate(-462.784 -1040)">
    <circle id="Elipse_6082" data-name="Elipse 6082" cx="75" cy="75" r="75" transform="translate(462.784 1040)" fill="#fff"/>
    <g id="nacion" transform="translate(488.996 1062.997)">
      <path id="Trazado_195798" data-name="Trazado 195798" d="M47,84.5c21.816,0,45-4.731,45-13.5,0-3.228-3.051-6.024-9-8.331V58.431l2.171-1.086A1.5,1.5,0,0,0,86,56V48.5a7.493,7.493,0,0,0-4.334-6.774A5.941,5.941,0,0,0,83,38a6,6,0,0,0-4.635-5.829,7.5,7.5,0,0,0-4.2-5.445A5.934,5.934,0,0,0,75.5,23a6,6,0,1,0-10.667,3.726A7.512,7.512,0,0,0,62,29.047a7.524,7.524,0,0,0-2.834-2.321A5.941,5.941,0,0,0,60.5,23a6,6,0,1,0-10.667,3.726A7.512,7.512,0,0,0,47,29.047a7.524,7.524,0,0,0-2.834-2.321A5.941,5.941,0,0,0,45.5,23a6,6,0,1,0-10.667,3.726A7.512,7.512,0,0,0,32,29.047a7.524,7.524,0,0,0-2.834-2.321A5.941,5.941,0,0,0,30.5,23a6,6,0,1,0-10.667,3.726,7.5,7.5,0,0,0-4.2,5.445,5.949,5.949,0,0,0-3.3,9.555A7.493,7.493,0,0,0,8,48.5V56a1.5,1.5,0,0,0,.83,1.343L11,58.429V62.67C5.051,64.978,2,67.775,2,71,2,79.772,25.187,84.5,47,84.5Zm36-36v6.573l-2.171,1.086A1.5,1.5,0,0,0,80,57.5V68H74V57.5a1.5,1.5,0,0,0-.83-1.343L71,55.075V48.5A4.506,4.506,0,0,1,75.5,44h3A4.506,4.506,0,0,1,83,48.5ZM80,38a3,3,0,1,1-3-3A3,3,0,0,1,80,38ZM69.5,20a3,3,0,1,1-3,3A3,3,0,0,1,69.5,20ZM68,29h3a4.492,4.492,0,0,1,4.308,3.273,5.933,5.933,0,0,0-2.975,9.453A7.512,7.512,0,0,0,69.5,44.048a7.524,7.524,0,0,0-2.834-2.321A5.933,5.933,0,0,0,63.7,32.274,4.492,4.492,0,0,1,68,29Zm0,26.074-2.171,1.086A1.5,1.5,0,0,0,65,57.5V68H59V57.5a1.5,1.5,0,0,0-.83-1.343L56,55.075V48.5A4.506,4.506,0,0,1,60.5,44h3A4.506,4.506,0,0,1,68,48.5ZM62,35a3,3,0,1,1-3,3A3,3,0,0,1,62,35ZM54.5,20a3,3,0,1,1-3,3A3,3,0,0,1,54.5,20ZM53,29h3a4.492,4.492,0,0,1,4.308,3.273,5.933,5.933,0,0,0-2.975,9.453A7.512,7.512,0,0,0,54.5,44.048a7.524,7.524,0,0,0-2.834-2.321,5.933,5.933,0,0,0-2.975-9.453A4.492,4.492,0,0,1,53,29Zm0,26.074-2.171,1.086A1.5,1.5,0,0,0,50,57.5V68H44V57.5a1.5,1.5,0,0,0-.83-1.343L41,55.075V48.5A4.506,4.506,0,0,1,45.5,44h3A4.506,4.506,0,0,1,53,48.5ZM47,35a3,3,0,1,1-3,3A3,3,0,0,1,47,35ZM39.5,20a3,3,0,1,1-3,3A3,3,0,0,1,39.5,20ZM38,29h3a4.492,4.492,0,0,1,4.308,3.273,5.933,5.933,0,0,0-2.975,9.453A7.512,7.512,0,0,0,39.5,44.048a7.524,7.524,0,0,0-2.834-2.321,5.933,5.933,0,0,0-2.975-9.453A4.492,4.492,0,0,1,38,29Zm0,26.074-2.171,1.086A1.5,1.5,0,0,0,35,57.5V68H29V57.5a1.5,1.5,0,0,0-.83-1.343L26,55.075V48.5A4.506,4.506,0,0,1,30.5,44h3A4.506,4.506,0,0,1,38,48.5ZM32,35a3,3,0,1,1-3,3A3,3,0,0,1,32,35ZM24.5,20a3,3,0,1,1-3,3A3,3,0,0,1,24.5,20ZM23,29h3a4.492,4.492,0,0,1,4.308,3.273,5.933,5.933,0,0,0-2.975,9.453A7.512,7.512,0,0,0,24.5,44.048a7.524,7.524,0,0,0-2.834-2.321,5.933,5.933,0,0,0-2.975-9.453A4.492,4.492,0,0,1,23,29Zm-6,6a3,3,0,1,1-3,3A3,3,0,0,1,17,35ZM11,48.5A4.506,4.506,0,0,1,15.5,44h3A4.506,4.506,0,0,1,23,48.5v6.573L20.83,56.161A1.5,1.5,0,0,0,20,57.5V68H14V57.5a1.5,1.5,0,0,0-.83-1.343L11,55.075Zm0,17.4v3.6A1.5,1.5,0,0,0,12.5,71h9A1.5,1.5,0,0,0,23,69.5V58.429l1.5-.75,1.5.75V69.5A1.5,1.5,0,0,0,27.5,71h9A1.5,1.5,0,0,0,38,69.5V58.429l1.5-.75,1.5.75V69.5A1.5,1.5,0,0,0,42.5,71h9A1.5,1.5,0,0,0,53,69.5V58.429l1.5-.75,1.5.75V69.5A1.5,1.5,0,0,0,57.5,71h9A1.5,1.5,0,0,0,68,69.5V58.429l1.5-.75,1.5.75V69.5A1.5,1.5,0,0,0,72.5,71h9A1.5,1.5,0,0,0,83,69.5V65.9c3.788,1.629,6,3.48,6,5.1,0,4.385-15.979,10.5-42,10.5S5,75.387,5,71C5,69.378,7.213,67.527,11,65.9Z" transform="translate(0 7.5)" fill="#6836bf"/>
      <path id="Trazado_195799" data-name="Trazado 195799" d="M34,17.218l2.487-1.244a4.524,4.524,0,0,1,4.026,0l1.149.575a7.455,7.455,0,0,0,5.6.447l2.187-.687a1.5,1.5,0,0,0,1.05-1.431V4.291a1.5,1.5,0,0,0-1.974-1.424l-2.142.714a4.487,4.487,0,0,1-3.437-.243l-1.094-.548a7.54,7.54,0,0,0-6.71,0L31.828,4.448A1.5,1.5,0,0,0,31,5.791V24.5h3Zm0-10.5,2.487-1.244a4.52,4.52,0,0,1,4.026,0l1.094.548a7.466,7.466,0,0,0,5.727.407l.167-.056v7.4l-1.137.357A4.467,4.467,0,0,1,43,13.866l-1.149-.575a7.537,7.537,0,0,0-6.708,0L34,13.864Z" transform="translate(14.502 0)" fill="#6836bf"/>
    </g>
  </g>
</svg>
