<svg xmlns="http://www.w3.org/2000/svg" xmlns:xlink="http://www.w3.org/1999/xlink" width="88" height="88" viewBox="0 0 88 88">
  <defs>
    <filter id="Rect치ngulo_40821" x="0" y="0" width="88" height="88" filterUnits="userSpaceOnUse">
      <feOffset dy="3" input="SourceAlpha"/>
      <feGaussianBlur stdDeviation="3" result="blur"/>
      <feFlood flood-opacity="0.161"/>
      <feComposite operator="in" in2="blur"/>
      <feComposite in="SourceGraphic"/>
    </filter>
  </defs>
  <g id="Grupo_128460" data-name="Grupo 128460" transform="translate(-906.333 -236)">
    <g id="Grupo_135807" data-name="Grupo 135807">
      <g transform="matrix(1, 0, 0, 1, 906.33, 236)" filter="url(#Rect치ngulo_40821)">
        <path id="Rect치ngulo_40821-2" data-name="Rect치ngulo 40821" d="M10,0H60A10,10,0,0,1,70,10V70a0,0,0,0,1,0,0H10A10,10,0,0,1,0,60V10A10,10,0,0,1,10,0Z" transform="translate(9 6)" fill="#7fc733"/>
      </g>
      <g id="estrategia-de-planificacion" transform="translate(924.132 248.956)">
        <path id="Trazado_195634" data-name="Trazado 195634" d="M49.734,8.678H32.888V7.844a5.844,5.844,0,1,0-11.687,0v.835H4.354A2.362,2.362,0,0,0,2,11.033v38.7a2.362,2.362,0,0,0,2.354,2.354h45.38a2.362,2.362,0,0,0,2.354-2.354v-38.7A2.362,2.362,0,0,0,49.734,8.678ZM22.87,7.844a4.174,4.174,0,1,1,8.348,0v.835H22.87Zm5.009,2.5V25.374h-1.67V10.348ZM24.54,25.374H22.87V10.348h1.67Zm5.844,1.67-3.339,4.449L23.7,27.044Zm.835-1.67h-1.67V10.348h1.67Zm19.2,24.359a.685.685,0,0,1-.685.685H4.354a.685.685,0,0,1-.685-.685v-38.7a.685.685,0,0,1,.685-.685H17.861v5.393l-1.21.835a2.5,2.5,0,1,0,.326,1.786l2.179-1.453a.835.835,0,0,0,.376-.718V10.348H21.2V26.209h0a.668.668,0,0,0,.058.284v.05a.468.468,0,0,0,.075.142l5.009,6.678a.835.835,0,0,0,1.336,0l5.009-6.678a.468.468,0,0,0,.075-.142v-.05a.668.668,0,0,0,.125-.284h0V10.348h1.67v5.844a.835.835,0,0,0,.376.693l2.179,1.453a2.5,2.5,0,1,0,.326-1.786l-1.21-.835V10.348H49.734a.685.685,0,0,1,.685.685ZM15.357,17.861a.835.835,0,1,1-.835-.835A.835.835,0,0,1,15.357,17.861Zm23.374,0a.835.835,0,1,1,.835.835A.835.835,0,0,1,38.731,17.861Z" transform="translate(0 0)" fill="#12263f"/>
        <path id="Trazado_195635" data-name="Trazado 195635" d="M23.531,39.7H22.262a7.645,7.645,0,0,0-.3-.726l.893-.9a.835.835,0,0,0,0-1.177l-2.362-2.362a.835.835,0,0,0-1.177,0l-.9.893a7.644,7.644,0,0,0-.726-.3V33.86a.835.835,0,0,0-.835-.835h-.835V29.686a.835.835,0,0,0-.459-.743L9.339,25.829V22.857a2.5,2.5,0,1,0-1.67,0v3.489a.835.835,0,0,0,.459.743L14.348,30.2v2.822h-.835a.835.835,0,0,0-.835.835v1.269a7.644,7.644,0,0,0-.726.3l-.9-.893a.835.835,0,0,0-1.177,0L7.511,36.9a.835.835,0,0,0,0,1.177l.893.9a7.645,7.645,0,0,0-.3.726H6.835A.835.835,0,0,0,6,40.538v3.339a.835.835,0,0,0,.835.835H8.1q.142.376.3.726l-.893.943a.835.835,0,0,0,0,1.177l2.362,2.362a.835.835,0,0,0,1.177,0l.9-.893a7.643,7.643,0,0,0,.726.3v1.227a.835.835,0,0,0,.835.835h3.339a.835.835,0,0,0,.835-.835V49.287a7.644,7.644,0,0,0,.726-.3l.943.893a.835.835,0,0,0,1.177,0L22.9,47.517a.835.835,0,0,0,0-1.177l-.893-.9q.159-.351.3-.726h1.227a.835.835,0,0,0,.835-.835V40.538A.835.835,0,0,0,23.531,39.7ZM8.5,19.668a.835.835,0,1,1-.835.835A.835.835,0,0,1,8.5,19.668ZM22.7,43.043H21.644a.835.835,0,0,0-.835.626,5.51,5.51,0,0,1-.626,1.5.835.835,0,0,0,.134,1.01l.743.751L19.883,48.11l-.751-.743a.835.835,0,0,0-.985-.15,5.51,5.51,0,0,1-1.5.626.835.835,0,0,0-.626.835v1.043h-1.67V48.669a.835.835,0,0,0-.626-.835,5.51,5.51,0,0,1-1.5-.626.835.835,0,0,0-1.01.134l-.751.743L9.281,46.933l.743-.751a.835.835,0,0,0,.15-1.01,5.51,5.51,0,0,1-.626-1.5.835.835,0,0,0-.835-.626H7.67v-1.67H8.721a.835.835,0,0,0,.835-.626,5.51,5.51,0,0,1,.626-1.5.835.835,0,0,0-.134-1.01l-.743-.751,1.177-1.177.751.743a.835.835,0,0,0,1.01.134,5.51,5.51,0,0,1,1.5-.626.835.835,0,0,0,.626-.835V34.695h1.67v1.052a.835.835,0,0,0,.626.835,5.51,5.51,0,0,1,1.5.626.835.835,0,0,0,1.01-.134l.751-.743,1.177,1.177-.743.751a.835.835,0,0,0-.175.985,5.51,5.51,0,0,1,.626,1.5.835.835,0,0,0,.835.626H22.7Z" transform="translate(-0.661 -2.642)" fill="#12263f"/>
        <path id="Trazado_195636" data-name="Trazado 195636" d="M16.174,42a4.174,4.174,0,1,0,4.174,4.174A4.174,4.174,0,0,0,16.174,42Zm0,6.678a2.5,2.5,0,1,1,2.5-2.5,2.5,2.5,0,0,1-2.5,2.5Z" transform="translate(-1.652 -6.608)" fill="#12263f"/>
        <path id="Trazado_195637" data-name="Trazado 195637" d="M42,46.174A4.174,4.174,0,1,0,46.174,42,4.174,4.174,0,0,0,42,46.174Zm6.678,0a2.5,2.5,0,1,1-2.5-2.5,2.5,2.5,0,0,1,2.5,2.5Z" transform="translate(-6.608 -6.608)" fill="#12263f"/>
        <path id="Trazado_195638" data-name="Trazado 195638" d="M52.237,27.09a.835.835,0,0,0,.459-.743V22.857a2.5,2.5,0,1,0-1.67,0v2.972l-6.219,3.114a.835.835,0,0,0-.459.743v3.339h-.835a.835.835,0,0,0-.835.835v1.269a7.643,7.643,0,0,0-.726.3l-.9-.893a.835.835,0,0,0-1.177,0L37.511,36.9a.835.835,0,0,0,0,1.177l.893.9a7.644,7.644,0,0,0-.3.726H36.835a.835.835,0,0,0-.835.835v3.339a.835.835,0,0,0,.835.835H38.1a7.643,7.643,0,0,0,.3.726l-.893.943a.835.835,0,0,0,0,1.177l2.362,2.362a.835.835,0,0,0,1.177,0l.9-.893a7.643,7.643,0,0,0,.726.3v1.227a.835.835,0,0,0,.835.835h3.339a.835.835,0,0,0,.835-.835V49.287a7.644,7.644,0,0,0,.726-.3l.943.893a.835.835,0,0,0,1.177,0L52.9,47.517a.835.835,0,0,0,0-1.177l-.893-.9a7.643,7.643,0,0,0,.3-.726h1.227a.835.835,0,0,0,.835-.835V40.538a.835.835,0,0,0-.835-.835H52.262a7.644,7.644,0,0,0-.3-.726l.893-.9a.835.835,0,0,0,0-1.177l-2.362-2.362a.835.835,0,0,0-1.177,0l-.9.893a7.644,7.644,0,0,0-.726-.3V33.86a.835.835,0,0,0-.835-.835h-.835V30.2Zm-.376-7.421a.835.835,0,1,1-.835.835A.835.835,0,0,1,51.861,19.668ZM46.644,36.556a5.51,5.51,0,0,1,1.5.626.835.835,0,0,0,1.01-.134l.751-.743,1.177,1.177-.743.751a.835.835,0,0,0-.15,1.01,5.51,5.51,0,0,1,.626,1.5.835.835,0,0,0,.835.626H52.7v1.67H51.644a.835.835,0,0,0-.835.626,5.51,5.51,0,0,1-.626,1.5.835.835,0,0,0,.134,1.01l.743.751L49.883,48.11l-.751-.743a.835.835,0,0,0-.985-.15,5.51,5.51,0,0,1-1.5.626.835.835,0,0,0-.626.835v1.043h-1.67V48.669a.835.835,0,0,0-.626-.835,5.51,5.51,0,0,1-1.5-.626.835.835,0,0,0-1.01.134l-.751.743-1.177-1.177.743-.751a.835.835,0,0,0,.15-.985,5.51,5.51,0,0,1-.626-1.5.835.835,0,0,0-.835-.626H37.67v-1.67h1.052a.835.835,0,0,0,.835-.626,5.51,5.51,0,0,1,.626-1.5.835.835,0,0,0-.134-1.01l-.743-.751,1.177-1.177.751.743a.835.835,0,0,0,1.01.134,5.51,5.51,0,0,1,1.5-.626.835.835,0,0,0,.626-.835V34.695h1.67v1.052A.835.835,0,0,0,46.644,36.556Z" transform="translate(-5.617 -2.642)" fill="#12263f"/>
      </g>
    </g>
  </g>
</svg>
