<svg xmlns="http://www.w3.org/2000/svg" xmlns:xlink="http://www.w3.org/1999/xlink" width="88" height="88" viewBox="0 0 88 88">
  <defs>
    <filter id="Trazado_188616" x="0" y="0" width="88" height="88" filterUnits="userSpaceOnUse">
      <feOffset dy="3" input="SourceAlpha"/>
      <feGaussianBlur stdDeviation="3" result="blur"/>
      <feFlood flood-opacity="0.161"/>
      <feComposite operator="in" in2="blur"/>
      <feComposite in="SourceGraphic"/>
    </filter>
  </defs>
  <g id="Grupo_128476" data-name="Grupo 128476" transform="translate(-1221.333 -118)">
    <g transform="matrix(1, 0, 0, 1, 1221.33, 118)" filter="url(#Trazado_188616)">
      <path id="Trazado_188616-2" data-name="Trazado 188616" d="M7.778,0H62.222A7.778,7.778,0,0,1,70,7.778V70H7.778A7.778,7.778,0,0,1,0,62.222V7.778A7.778,7.778,0,0,1,7.778,0Z" transform="translate(9 6)" fill="#f7ca18"/>
    </g>
    <g id="trabajo" transform="translate(1236.882 131.656)">
      <g id="Grupo_136831" data-name="Grupo 136831" transform="translate(1.24 0)">
        <path id="Trazado_195639" data-name="Trazado 195639" d="M53.908,42.134H52.152v-.878a2.637,2.637,0,0,0-2.633-2.633h-.878V18.938a9.648,9.648,0,1,0-11.234-4.893H24.568A11.037,11.037,0,0,0,13.859,27.76l.423,1.693a3.477,3.477,0,0,0-.753,2.147,3.515,3.515,0,0,0,3.511,3.511v.878A7.9,7.9,0,0,0,20.9,42.764,13.117,13.117,0,0,0,16.805,47.4H13.493A3.837,3.837,0,0,0,9.655,43.89H9.5a3.878,3.878,0,0,0-1.241.21V21.067a1.757,1.757,0,0,0,1.756-1.756V17.556h1.756A1.757,1.757,0,0,0,13.529,15.8V14.045a1.757,1.757,0,0,0-1.756-1.756H10.018V8.778h1.756a1.757,1.757,0,0,0,1.756-1.756V5.267a1.757,1.757,0,0,0-1.756-1.756H10.018V1.756A1.757,1.757,0,0,0,8.262,0H6.507A1.757,1.757,0,0,0,4.751,1.756V3.511H3A1.757,1.757,0,0,0,1.24,5.267V7.022A1.757,1.757,0,0,0,3,8.778H4.751v3.511H3A1.757,1.757,0,0,0,1.24,14.045V15.8A1.757,1.757,0,0,0,3,17.556H4.751v1.756a1.757,1.757,0,0,0,1.756,1.756V44.1a3.88,3.88,0,0,0-1.242-.21h-.15A3.867,3.867,0,0,0,2.63,50.726l4.755,3.962,4.756-3.963a3.843,3.843,0,0,0,1.108-1.569h2.787a13.18,13.18,0,0,0-.75,4.389v.878H53.908a1.757,1.757,0,0,0,1.756-1.756V43.89a1.757,1.757,0,0,0-1.755-1.756ZM6.507,1.756H8.262V3.511H6.507ZM3,5.267h8.778l0,1.756H3ZM6.507,8.778H8.262v3.511H6.507ZM3,14.045h8.778V15.8H3Zm5.267,3.511v1.756H6.507V17.556Zm2.755,31.821L7.385,52.4,3.753,49.378A2.1,2.1,0,0,1,3,47.759a2.119,2.119,0,0,1,2.119-2.114h.15a2.105,2.105,0,0,1,1.5.621l.621.621.621-.621a2.106,2.106,0,0,1,1.5-.621h.151a2.112,2.112,0,0,1,1.362,3.732ZM53.909,47.4H41.619V43.89H53.908ZM50.4,41.257v.878H45.13v-.878a.878.878,0,0,1,.878-.878h3.511a.878.878,0,0,1,.878.878Zm-3.511-2.633h-.878a2.637,2.637,0,0,0-2.633,2.633v.878H41.619a1.757,1.757,0,0,0-1.756,1.756v3.087a13.128,13.128,0,0,0-3.855-4.213,7.9,7.9,0,0,0,3.855-6.774v-.878a3.506,3.506,0,0,0,2.925-5.448L43.1,28.41a9.014,9.014,0,0,0-1.042-6.89,9.6,9.6,0,0,0,1.055-2.654,9.609,9.609,0,0,0,2.893.445c.3,0,.588-.018.878-.045ZM25.236,44.985l-.473-1.1c.06,0,.118.009.177.009h1.391ZM28.182,47.4h.538L30.7,52.668H26.207Zm.678-1.756h-.816l-.393-.59.8-.8.8.8Zm1.712-1.756h1.391c.06,0,.118-.008.177-.009l-.473,1.1ZM40.926,23.081a7.367,7.367,0,0,1,.473,4.9l-.1.418a3.472,3.472,0,0,0-1.432-.313v-.878a4.377,4.377,0,0,0-.791-2.5,9.683,9.683,0,0,0,1.854-1.627Zm-1.063,6.764a1.756,1.756,0,0,1,0,3.511ZM38.108,9.656a7.923,7.923,0,1,1,5.246,7.434c.006-.138.021-.273.021-.412V15.8a1.757,1.757,0,0,0-1.756-1.756H39.444a7.824,7.824,0,0,1-1.337-4.389ZM15.285,31.6a1.757,1.757,0,0,1,1.756-1.756v3.511A1.757,1.757,0,0,1,15.285,31.6Zm1.756-4.389v.878a3.483,3.483,0,0,0-1.232.234l-.247-.989A9.285,9.285,0,0,1,24.568,15.8H41.619v.878a7.909,7.909,0,0,1-7.9,7.9H24.063a1.756,1.756,0,1,1,0-3.511V19.311a3.515,3.515,0,0,0-3.511,3.511c0,.03.008.058.009.088A4.4,4.4,0,0,0,17.041,27.212ZM18.8,35.99V27.212a2.628,2.628,0,0,1,2.264-2.6,3.5,3.5,0,0,0,3,1.718h9.656a9.6,9.6,0,0,0,3.795-.78,2.617,2.617,0,0,1,.594,1.657V35.99a6.152,6.152,0,0,1-6.145,6.145H24.941A6.152,6.152,0,0,1,18.8,35.99Zm3.968,7.683,1.88,4.388,1.74-1.74.21.314-2.262,6.032H22.307V49.157H20.552v3.511H17.075A11.373,11.373,0,0,1,22.765,43.673Zm13.587,8.995V49.157H34.6v3.511H32.571l-2.262-6.032.21-.314,1.74,1.74,1.881-4.389a11.372,11.372,0,0,1,5.691,9Zm5.267,0V49.157h5.267v1.756h1.756V49.157h5.268v3.511Z" transform="translate(-1.24 0)" fill="#6836bf"/>
        <path id="Trazado_195640" data-name="Trazado 195640" d="M397.463,43.244v1.917h1.756V43.406h1.756V40.772a2.637,2.637,0,0,0-2.633-2.633.878.878,0,0,1-.878-.878v-.878h.878a.878.878,0,0,1,.878.878v.878h1.756v-.878a2.63,2.63,0,0,0-1.756-2.472V32.872h-1.756v1.756h-1.756v2.633a2.637,2.637,0,0,0,2.633,2.633.878.878,0,0,1,.878.878v.878h-.878a.878.878,0,0,1-.878-.878v-.878h-1.756v.878A2.63,2.63,0,0,0,397.463,43.244Z" transform="translate(-353.573 -29.361)" fill="#6836bf"/>
        <path id="Trazado_195641" data-name="Trazado 195641" d="M297.09,82.18h1.756v1.756H297.09Z" transform="translate(-265.489 -73.402)" fill="#6836bf"/>
        <path id="Trazado_195642" data-name="Trazado 195642" d="M264.218,82.18h1.756v1.756h-1.756Z" transform="translate(-236.128 -73.402)" fill="#6836bf"/>
        <path id="Trazado_195643" data-name="Trazado 195643" d="M231.346,82.18H233.1v1.756h-1.756Z" transform="translate(-206.768 -73.402)" fill="#6836bf"/>
        <path id="Trazado_195644" data-name="Trazado 195644" d="M198.474,82.18h1.756v1.756h-1.756Z" transform="translate(-177.407 -73.402)" fill="#6836bf"/>
        <path id="Trazado_195645" data-name="Trazado 195645" d="M165.6,82.18h1.756v1.756H165.6Z" transform="translate(-148.046 -73.402)" fill="#6836bf"/>
        <path id="Trazado_195646" data-name="Trazado 195646" d="M132.729,82.18h1.756v1.756h-1.756Z" transform="translate(-118.684 -73.402)" fill="#6836bf"/>
        <path id="Trazado_195647" data-name="Trazado 195647" d="M187.3,265.61a2.633,2.633,0,1,0-2.633,2.633A2.637,2.637,0,0,0,187.3,265.61Zm-2.633.878a.878.878,0,1,1,.878-.878A.878.878,0,0,1,184.671,266.488Z" transform="translate(-162.726 -234.887)" fill="#6836bf"/>
        <path id="Trazado_195648" data-name="Trazado 195648" d="M283.287,268.244a2.633,2.633,0,1,0-2.633-2.633A2.637,2.637,0,0,0,283.287,268.244Zm0-3.511a.878.878,0,1,1-.878.878A.878.878,0,0,1,283.287,264.733Z" transform="translate(-250.809 -234.887)" fill="#6836bf"/>
        <path id="Trazado_195649" data-name="Trazado 195649" d="M219.3,333.989a4.394,4.394,0,0,0,4.389-4.389v-.878H214.91v.878A4.394,4.394,0,0,0,219.3,333.989Zm2.483-3.511a2.634,2.634,0,0,1-4.967,0Z" transform="translate(-192.087 -293.61)" fill="#6836bf"/>
      </g>
    </g>
  </g>
</svg>
