<svg xmlns="http://www.w3.org/2000/svg" xmlns:xlink="http://www.w3.org/1999/xlink" width="88" height="88" viewBox="0 0 88 88">
  <defs>
    <filter id="Rect치ngulo_40719" x="0" y="0" width="88" height="88" filterUnits="userSpaceOnUse">
      <feOffset dy="3" input="SourceAlpha"/>
      <feGaussianBlur stdDeviation="3" result="blur"/>
      <feFlood flood-opacity="0.161"/>
      <feComposite operator="in" in2="blur"/>
      <feComposite in="SourceGraphic"/>
    </filter>
  </defs>
  <g id="Grupo_128459" data-name="Grupo 128459" transform="translate(-225 -909)">
    <g transform="matrix(1, 0, 0, 1, 225, 909)" filter="url(#Rect치ngulo_40719)">
      <path id="Rect치ngulo_40719-2" data-name="Rect치ngulo 40719" d="M10,0H60A10,10,0,0,1,70,10V70a0,0,0,0,1,0,0H10A10,10,0,0,1,0,60V10A10,10,0,0,1,10,0Z" transform="translate(9 6)" fill="#b13e8d"/>
    </g>
    <g id="equilibrar" transform="translate(242.605 921.318)">
      <path id="Trazado_195614" data-name="Trazado 195614" d="M10.533,42.074h.048a3.564,3.564,0,0,0-.043-7.128H10.49a3.564,3.564,0,0,0,.043,7.128Zm-1.276-4.81a1.774,1.774,0,0,1,1.256-.539h.024a1.786,1.786,0,0,1,.02,3.571,1.937,1.937,0,0,1-1.268-.506,1.787,1.787,0,0,1-.032-2.526Z" transform="translate(-0.661 -3.644)" fill="#fff"/>
      <path id="Trazado_195615" data-name="Trazado 195615" d="M1.93,40.482h.012l1.152-.015q.113.3.251.584l-.8.824a.888.888,0,0,0,.016,1.258l2.287,2.229a.921.921,0,0,0,.632.253.884.884,0,0,0,.625-.269l.8-.824c.194.087.39.165.591.236l.014,1.152a.891.891,0,0,0,.888.879H8.41l3.194-.041a.889.889,0,0,0,.878-.9l-.015-1.152c.2-.075.393-.158.584-.25l.824.8a.93.93,0,0,0,.632.253.884.884,0,0,0,.625-.269l2.23-2.288a.89.89,0,0,0-.016-1.258l-.825-.8c.087-.193.166-.39.236-.591l1.152-.015a.889.889,0,0,0,.878-.9l-.041-3.193a.879.879,0,0,0-.9-.878l-1.152.015q-.113-.3-.251-.584l.8-.824a.888.888,0,0,0-.016-1.258l-2.287-2.229a.889.889,0,0,0-1.258.016l-.8.824c-.194-.087-.39-.165-.591-.236l-.014-1.152a.89.89,0,0,0-.9-.878l-3.194.041a.889.889,0,0,0-.878.9l.015,1.152c-.2.075-.393.158-.584.25l-.824-.8a.9.9,0,0,0-.632-.253.884.884,0,0,0-.625.269l-2.23,2.288A.89.89,0,0,0,2.439,34.1l.825.8c-.087.193-.166.39-.236.591l-1.152.015a.888.888,0,0,0-.877.9L1.041,39.6a.889.889,0,0,0,.889.878Zm1.777-3.217a.888.888,0,0,0,.853-.679,5.427,5.427,0,0,1,.567-1.419.89.89,0,0,0-.151-1.079l-.656-.639.987-1.014.656.64a.892.892,0,0,0,1.084.123,5.487,5.487,0,0,1,1.4-.6.89.89,0,0,0,.655-.87L9.1,30.807l1.415-.019.012.917a.889.889,0,0,0,.679.853,5.452,5.452,0,0,1,1.42.567.891.891,0,0,0,1.08-.15l.64-.656,1.013.987-.639.656a.89.89,0,0,0-.124,1.082,5.48,5.48,0,0,1,.6,1.405.894.894,0,0,0,.87.656l.917-.012L17,38.509l-.917.012a.888.888,0,0,0-.853.679,5.427,5.427,0,0,1-.567,1.419.89.89,0,0,0,.151,1.079l.656.639-.987,1.014-.656-.64a.889.889,0,0,0-1.084-.123,5.487,5.487,0,0,1-1.4.6.89.89,0,0,0-.655.87l.012.917L9.279,45l-.012-.917a.889.889,0,0,0-.679-.853,5.452,5.452,0,0,1-1.42-.567.889.889,0,0,0-1.08.15l-.64.656L4.436,42.48l.639-.656A.889.889,0,0,0,5.2,40.742a5.48,5.48,0,0,1-.6-1.405.9.9,0,0,0-.87-.656l-.917.012L2.79,37.277Z" transform="translate(0 -2.986)" fill="#fff"/>
      <path id="Trazado_195616" data-name="Trazado 195616" d="M7.744,14.439l1.925.321V25.124h1.779V15.056l11.562,1.927V44.691H19.451a.888.888,0,0,0-.872.715L16.8,54.3a.889.889,0,0,0,.872,1.064H40.8a.889.889,0,0,0,.872-1.064L39.89,45.406a.888.888,0,0,0-.872-.715H35.46V16.984l11.562-1.927V26.013H48.8V14.76l1.925-.321a.889.889,0,0,0,.744-.877V10a.89.89,0,0,0-.963-.887L33.5,10.535a5.336,5.336,0,1,0-8.522,0L7.963,9.118A.89.89,0,0,0,7,10v3.558A.889.889,0,0,0,7.744,14.439ZM39.712,53.585H18.758l1.423-7.115H38.29ZM25.677,7.336a3.558,3.558,0,1,1,3.728,3.541l-.171.014-.171-.014A3.554,3.554,0,0,1,25.677,7.336Zm-16.9,3.635,19.7,1.642a5.4,5.4,0,0,0,.661.055l.021,0h.014l.06,0,.06,0h.014l.021,0a5.4,5.4,0,0,0,.661-.055l19.7-1.642v1.837L34.425,15.353a.889.889,0,0,0-.744.877v28.46H30.124V28.682H28.345V44.691H24.788V16.23a.889.889,0,0,0-.744-.877L8.779,12.809Z" transform="translate(-0.664)" fill="#fff"/>
      <path id="Trazado_195617" data-name="Trazado 195617" d="M57.157,29.127a5.515,5.515,0,0,0-5.263,1.722,5.51,5.51,0,0,0-5.263-1.722A4.572,4.572,0,0,0,43,33.847c0,4.984,6.428,9.689,8.4,11.012a.89.89,0,0,0,.993,0c1.969-1.323,8.4-6.028,8.4-11.012a4.572,4.572,0,0,0-3.63-4.72ZM51.894,43.039c-1.934-1.368-7.115-5.387-7.115-9.193a2.8,2.8,0,0,1,2.24-2.984,3.5,3.5,0,0,1,.76-.082,3.623,3.623,0,0,1,3.31,2.064.888.888,0,0,0,1.608,0,3.656,3.656,0,0,1,4.071-1.982,2.8,2.8,0,0,1,2.24,2.984c0,3.806-5.182,7.826-7.115,9.193Z" transform="translate(-4.646 -2.987)" fill="#fff"/>
    </g>
  </g>
</svg>
